SplineFontDB: 3.2
FontName: Montserrat-Medium
FullName: Montserrat Medium
FamilyName: Montserrat Medium
Weight: Medium
Copyright: Copyright 2011 The Montserrat Project Authors (https://github.com/JulietaUla/Montserrat)
Version: 9.000
ItalicAngle: 0
UnderlinePosition: -125
UnderlineWidth: 50
Ascent: 800
Descent: 200
InvalidEm: 0
sfntRevision: 0x00090000
LayerCount: 2
Layer: 0 1 "Back" 1
Layer: 1 1 "Fore" 0
XUID: [1021 598 623987363 2408308]
StyleMap: 0x0040
FSType: 0
OS2Version: 4
OS2_WeightWidthSlopeOnly: 0
OS2_UseTypoMetrics: 1
CreationTime: 1624264748
ModificationTime: 1773221863
PfmFamily: 81
TTFWeight: 500
TTFWidth: 5
LineGap: 0
VLineGap: 0
Panose: 0 0 0 0 0 0 0 0 0 0
OS2TypoAscent: 968
OS2TypoAOffset: 0
OS2TypoDescent: -251
OS2TypoDOffset: 0
OS2TypoLinegap: 0
OS2WinAscent: 1109
OS2WinAOffset: 0
OS2WinDescent: 453
OS2WinDOffset: 0
HheadAscent: 968
HheadAOffset: 0
HheadDescent: -251
HheadDOffset: 0
OS2SubXSize: 650
OS2SubYSize: 600
OS2SubXOff: 0
OS2SubYOff: 75
OS2SupXSize: 650
OS2SupYSize: 600
OS2SupXOff: 0
OS2SupYOff: 350
OS2StrikeYSize: 50
OS2StrikeYPos: 318
OS2CapHeight: 700
OS2XHeight: 530
OS2Vendor: 'ULA '
OS2CodePages: 20000197.00000000
OS2UnicodeRanges: a00002ff.4000247b.00000000.00000000
Lookup: 1 0 0 "'aalt' Access All Alternates lookup 0" { "'aalt' Access All Alternates lookup 0 subtable"  } ['aalt' ('DFLT' <'NAV ' 'dflt' > 'cyrl' <'BGR ' 'BSH ' 'CHU ' 'MKD ' 'SRB ' 'dflt' > 'latn' <'AZE ' 'CAT ' 'CRT ' 'KAZ ' 'MOL ' 'NAV ' 'NLD ' 'NSM ' 'ROM ' 'TAT ' 'TOD0' 'TRK ' 'VIT ' 'XPE ' 'dflt' > ) ]
Lookup: 3 0 0 "'aalt' Access All Alternates lookup 1" { "'aalt' Access All Alternates lookup 1 subtable"  } ['aalt' ('DFLT' <'NAV ' 'dflt' > 'cyrl' <'BGR ' 'BSH ' 'CHU ' 'MKD ' 'SRB ' 'dflt' > 'latn' <'AZE ' 'CAT ' 'CRT ' 'KAZ ' 'MOL ' 'NAV ' 'NLD ' 'NSM ' 'ROM ' 'TAT ' 'TOD0' 'TRK ' 'VIT ' 'XPE ' 'dflt' > ) ]

StartChar: .notdef
Encoding: 65536 -1 0
Width: 587
GlyphClass: 1
Flags: W
LayerCount: 2
Fore
SplineSet
40 0 m 1,0,-1
 40 700 l 1,1,-1
 547 700 l 1,2,-1
 547 0 l 1,3,-1
 40 0 l 1,0,-1
120 70 m 1,4,-1
 467 70 l 1,5,-1
 467 630 l 1,6,-1
 120 630 l 1,7,-1
 120 70 l 1,4,-1
EndSplineSet
EndChar

StartChar: A
Encoding: 65 65 1
Width: 732
GlyphClass: 2
Flags: W
AnchorPoint: "Anchor-3" 366 700 basechar 0
AnchorPoint: "Anchor-2" 733 0 basechar 0
AnchorPoint: "Anchor-0" 366 0 basechar 0
LayerCount: 2
Fore
SplineSet
-1 0 m 1,0,-1
 316 700 l 1,1,-1
 415 700 l 1,2,-1
 733 0 l 1,3,-1
 628 0 l 1,4,-1
 345 644 l 1,5,-1
 385 644 l 1,6,-1
 102 0 l 1,7,-1
 -1 0 l 1,0,-1
134 175 m 1,8,-1
 161 255 l 1,9,-1
 555 255 l 1,10,-1
 584 175 l 1,11,-1
 134 175 l 1,8,-1
EndSplineSet
Substitution2: "'ss01' Style Set 1 lookup 50 subtable" A.ss01
Substitution2: "'c2sc' Capitals to Small Capitals lookup 45 subtable" a.sc
Substitution2: "Single Substitution lookup 39 subtable" ordfeminine
AlternateSubs2: "'aalt' Access All Alternates lookup 1 subtable" ordfeminine a.sc A.ss01
EndChar

StartChar: uni2C6D
Encoding: 11373 11373 25
Width: 895
GlyphClass: 2
Flags: W
AnchorPoint: "Anchor-3" 432 700 basechar 0
AnchorPoint: "Anchor-2" 790 0 basechar 0
AnchorPoint: "Anchor-0" 432 0 basechar 0
LayerCount: 2
Fore
SplineSet
411 -7 m 0,0,1
 334 -7 334 -7 268 19 c 128,-1,2
 202 45 202 45 152.5 92.5 c 128,-1,3
 103 140 103 140 75.5 205.5 c 128,-1,4
 48 271 48 271 48 351 c 256,5,6
 48 431 48 431 75.5 496.5 c 128,-1,7
 103 562 103 562 152 609.5 c 128,-1,8
 201 657 201 657 267 682.5 c 128,-1,9
 333 708 333 708 410 708 c 0,10,11
 482 708 482 708 544 684.5 c 128,-1,12
 606 661 606 661 652.5 615.5 c 128,-1,13
 699 570 699 570 724.5 503.5 c 128,-1,14
 750 437 750 437 750 351 c 256,15,16
 750 265 750 265 725 198.5 c 128,-1,17
 700 132 700 132 654 86.5 c 128,-1,18
 608 41 608 41 545.5 17 c 128,-1,19
 483 -7 483 -7 411 -7 c 0,0,1
421 82 m 0,20,21
 498 82 498 82 559 115.5 c 128,-1,22
 620 149 620 149 655.5 210 c 128,-1,23
 691 271 691 271 691 351 c 0,24,25
 691 432 691 432 655.5 492 c 128,-1,26
 620 552 620 552 559 586 c 128,-1,27
 498 620 498 620 421 620 c 256,28,29
 344 620 344 620 282 586 c 128,-1,30
 220 552 220 552 184.5 492 c 128,-1,31
 149 432 149 432 149 351 c 0,32,33
 149 271 149 271 184.5 210 c 128,-1,34
 220 149 220 149 281.5 115.5 c 128,-1,35
 343 82 343 82 421 82 c 0,20,21
694 0 m 1,36,-1
 694 208 l 1,37,-1
 703 353 l 1,38,-1
 689 498 l 1,39,-1
 689 700 l 1,40,-1
 790 700 l 1,41,-1
 790 0 l 1,42,-1
 694 0 l 1,36,-1
EndSplineSet
Substitution2: "'c2sc' Capitals to Small Capitals lookup 45 subtable" uni0251.sc
Substitution2: "'aalt' Access All Alternates lookup 0 subtable" uni0251.sc
EndChar

StartChar: uni023A
Encoding: 570 570 31
Width: 732
GlyphClass: 1
Flags: W
LayerCount: 2
Fore
SplineSet
-1 0 m 1,0,-1
 316 700 l 1,1,-1
 415 700 l 1,2,-1
 733 0 l 1,3,-1
 628 0 l 1,4,-1
 345 649 l 1,5,-1
 385 649 l 1,6,-1
 102 0 l 1,7,-1
 -1 0 l 1,0,-1
134 178 m 1,8,-1
 161 253 l 1,9,-1
 555 253 l 1,10,-1
 584 178 l 1,11,-1
 134 178 l 1,8,-1
179 -70 m 1,12,-1
 545 770 l 1,13,-1
 626 770 l 1,14,-1
 260 -70 l 1,15,-1
 179 -70 l 1,12,-1
EndSplineSet
Substitution2: "'ss01' Style Set 1 lookup 50 subtable" uni023A.ss01
Substitution2: "'c2sc' Capitals to Small Capitals lookup 45 subtable" uni2C65.sc
AlternateSubs2: "'aalt' Access All Alternates lookup 1 subtable" uni2C65.sc uni023A.ss01
EndChar

StartChar: uni2C6F
Encoding: 11375 11375 33
Width: 732
GlyphClass: 2
Flags: W
AnchorPoint: "Anchor-3" 366 700 basechar 0
AnchorPoint: "Anchor-2" -1 700 basechar 0
AnchorPoint: "Anchor-0" 366 0 basechar 0
LayerCount: 2
Fore
SplineSet
733 700 m 1,0,-1
 416 0 l 1,1,-1
 317 0 l 1,2,-1
 -1 700 l 1,3,-1
 104 700 l 1,4,-1
 387 56 l 1,5,-1
 347 56 l 1,6,-1
 630 700 l 1,7,-1
 733 700 l 1,0,-1
598 525 m 1,8,-1
 570 445 l 1,9,-1
 177 445 l 1,10,-1
 148 525 l 1,11,-1
 598 525 l 1,8,-1
EndSplineSet
Substitution2: "'ss01' Style Set 1 lookup 50 subtable" uni2C6F.ss01
Substitution2: "'c2sc' Capitals to Small Capitals lookup 45 subtable" uni0250.sc
AlternateSubs2: "'aalt' Access All Alternates lookup 1 subtable" uni0250.sc uni2C6F.ss01
EndChar

StartChar: AE
Encoding: 198 198 34
Width: 1047
GlyphClass: 2
Flags: W
AnchorPoint: "Anchor-3" 619 700 basechar 0
AnchorPoint: "Anchor-2" 991 0 basechar 0
AnchorPoint: "Anchor-0" 532 0 basechar 0
LayerCount: 2
Fore
SplineSet
-1 0 m 1,0,-1
 416 700 l 1,1,-1
 516 700 l 1,2,-1
 516 613 l 1,3,-1
 428 613 l 1,4,-1
 489 657 l 1,5,-1
 102 0 l 1,6,-1
 -1 0 l 1,0,-1
177 175 m 1,7,-1
 183 255 l 1,8,-1
 516 255 l 1,9,-1
 516 175 l 1,10,-1
 177 175 l 1,7,-1
483 0 m 1,11,-1
 483 700 l 1,12,-1
 977 700 l 1,13,-1
 977 613 l 1,14,-1
 582 613 l 1,15,-1
 582 87 l 1,16,-1
 991 87 l 1,17,-1
 991 0 l 1,18,-1
 483 0 l 1,11,-1
573 313 m 1,19,-1
 574 398 l 1,20,-1
 933 398 l 1,21,-1
 933 313 l 1,22,-1
 573 313 l 1,19,-1
EndSplineSet
Substitution2: "'ss01' Style Set 1 lookup 50 subtable" AE.ss01
Substitution2: "'c2sc' Capitals to Small Capitals lookup 45 subtable" ae.sc
AlternateSubs2: "'aalt' Access All Alternates lookup 1 subtable" ae.sc AE.ss01
EndChar

StartChar: B
Encoding: 66 66 37
Width: 757
GlyphClass: 2
Flags: W
AnchorPoint: "Anchor-3" 379 700 basechar 0
AnchorPoint: "Anchor-0" 379 0 basechar 0
LayerCount: 2
Fore
SplineSet
105 0 m 1,0,-1
 105 700 l 1,1,-1
 419 700 l 2,2,3
 540 700 540 700 605 651.5 c 128,-1,4
 670 603 670 603 670 519 c 0,5,6
 670 462 670 462 644.5 423 c 128,-1,7
 619 384 619 384 576 363 c 128,-1,8
 533 342 533 342 483 342 c 1,9,-1
 501 372 l 1,10,11
 561 372 561 372 607 351 c 128,-1,12
 653 330 653 330 680 289.5 c 128,-1,13
 707 249 707 249 707 189 c 0,14,15
 707 99 707 99 639.5 49.5 c 128,-1,16
 572 0 572 0 439 0 c 2,17,-1
 105 0 l 1,0,-1
205 81 m 1,18,-1
 435 81 l 2,19,20
 518 81 518 81 562 109 c 128,-1,21
 606 137 606 137 606 197 c 0,22,23
 606 258 606 258 562 286 c 128,-1,24
 518 314 518 314 435 314 c 2,25,-1
 196 314 l 1,26,-1
 196 395 l 1,27,-1
 410 395 l 2,28,29
 486 395 486 395 528 423 c 128,-1,30
 570 451 570 451 570 507 c 256,31,32
 570 563 570 563 528 591 c 128,-1,33
 486 619 486 619 410 619 c 2,34,-1
 205 619 l 1,35,-1
 205 81 l 1,18,-1
EndSplineSet
Substitution2: "'c2sc' Capitals to Small Capitals lookup 45 subtable" b.sc
Substitution2: "'aalt' Access All Alternates lookup 0 subtable" b.sc
EndChar

StartChar: uniA7B4
Encoding: 42932 42932 40
Width: 757
GlyphClass: 2
Flags: W
AnchorPoint: "Anchor-3" 379 700 basechar 0
AnchorPoint: "Anchor-0" 379 0 basechar 0
LayerCount: 2
Fore
SplineSet
105 -194 m 1,0,-1
 105 700 l 1,1,-1
 419 700 l 2,2,3
 540 700 540 700 605 651.5 c 128,-1,4
 670 603 670 603 670 519 c 0,5,6
 670 462 670 462 644.5 423 c 128,-1,7
 619 384 619 384 576 363 c 128,-1,8
 533 342 533 342 483 342 c 1,9,-1
 501 372 l 1,10,11
 561 372 561 372 607 351 c 128,-1,12
 653 330 653 330 680 289.5 c 128,-1,13
 707 249 707 249 707 189 c 0,14,15
 707 99 707 99 639.5 49.5 c 128,-1,16
 572 0 572 0 439 0 c 2,17,-1
 196 0 l 1,18,-1
 196 81 l 1,19,-1
 435 81 l 2,20,21
 518 81 518 81 562 109 c 128,-1,22
 606 137 606 137 606 197 c 0,23,24
 606 258 606 258 562 286 c 128,-1,25
 518 314 518 314 435 314 c 2,26,-1
 196 314 l 1,27,-1
 196 395 l 1,28,-1
 410 395 l 2,29,30
 486 395 486 395 528 423 c 128,-1,31
 570 451 570 451 570 507 c 256,32,33
 570 563 570 563 528 591 c 128,-1,34
 486 619 486 619 410 619 c 2,35,-1
 205 619 l 1,36,-1
 205 -194 l 1,37,-1
 105 -194 l 1,0,-1
EndSplineSet
Substitution2: "'c2sc' Capitals to Small Capitals lookup 45 subtable" uniA7B5.sc
Substitution2: "'aalt' Access All Alternates lookup 0 subtable" uniA7B5.sc
EndChar

StartChar: uni0181
Encoding: 385 385 41
Width: 923
GlyphClass: 2
Flags: W
AnchorPoint: "Anchor-3" 545 700 basechar 0
AnchorPoint: "Anchor-0" 545 0 basechar 0
LayerCount: 2
Fore
SplineSet
102 383 m 1,0,1
 67 416 67 416 49 458 c 128,-1,2
 31 500 31 500 31.5 542 c 128,-1,3
 32 584 32 584 51.5 620 c 128,-1,4
 71 656 71 656 111 678 c 128,-1,5
 151 700 151 700 213 700 c 2,6,-1
 279 700 l 1,7,-1
 279 613 l 1,8,-1
 214 613 l 2,9,10
 178 613 178 613 157.5 596.5 c 128,-1,11
 137 580 137 580 131.5 553.5 c 128,-1,12
 126 527 126 527 135.5 496.5 c 128,-1,13
 145 466 145 466 170 438 c 1,14,-1
 102 383 l 1,0,1
271 0 m 1,15,-1
 271 700 l 1,16,-1
 585 700 l 2,17,18
 706 700 706 700 771 651.5 c 128,-1,19
 836 603 836 603 836 519 c 0,20,21
 836 462 836 462 810 423 c 128,-1,22
 784 384 784 384 741.5 363 c 128,-1,23
 699 342 699 342 649 342 c 1,24,-1
 667 372 l 1,25,26
 727 372 727 372 773 351 c 128,-1,27
 819 330 819 330 846 289.5 c 128,-1,28
 873 249 873 249 873 189 c 0,29,30
 873 99 873 99 805.5 49.5 c 128,-1,31
 738 0 738 0 605 0 c 2,32,-1
 271 0 l 1,15,-1
370 81 m 1,33,-1
 601 81 l 2,34,35
 684 81 684 81 728 109 c 128,-1,36
 772 137 772 137 772 197 c 0,37,38
 772 258 772 258 728 286 c 128,-1,39
 684 314 684 314 601 314 c 2,40,-1
 362 314 l 1,41,-1
 362 395 l 1,42,-1
 576 395 l 2,43,44
 652 395 652 395 694 423 c 128,-1,45
 736 451 736 451 736 507 c 256,46,47
 736 563 736 563 694 591 c 128,-1,48
 652 619 652 619 576 619 c 2,49,-1
 370 619 l 1,50,-1
 370 81 l 1,33,-1
EndSplineSet
Substitution2: "'c2sc' Capitals to Small Capitals lookup 45 subtable" uni0253.sc
Substitution2: "'locl' Localized Forms in Latin lookup 19 subtable" uni0181.loclXPE
AlternateSubs2: "'aalt' Access All Alternates lookup 1 subtable" uni0181.loclXPE uni0253.sc
EndChar

StartChar: uni0243
Encoding: 579 579 43
Width: 774
GlyphClass: 2
Flags: W
AnchorPoint: "Anchor-3" 396 700 basechar 0
AnchorPoint: "Anchor-0" 396 0 basechar 0
LayerCount: 2
Fore
SplineSet
122 0 m 1,0,-1
 122 700 l 1,1,-1
 436 700 l 2,2,3
 557 700 557 700 622 651.5 c 128,-1,4
 687 603 687 603 687 519 c 0,5,6
 687 462 687 462 661 423.5 c 128,-1,7
 635 385 635 385 592.5 365 c 128,-1,8
 550 345 550 345 500 345 c 1,9,-1
 518 375 l 1,10,11
 578 375 578 375 624 354 c 128,-1,12
 670 333 670 333 697 292 c 128,-1,13
 724 251 724 251 724 191 c 0,14,15
 724 102 724 102 656.5 51 c 128,-1,16
 589 0 589 0 456 0 c 2,17,-1
 122 0 l 1,0,-1
19 161 m 1,18,-1
 19 238 l 1,19,-1
 155 238 l 1,20,-1
 178 238 l 1,21,-1
 375 238 l 1,22,-1
 375 161 l 1,23,-1
 178 161 l 1,24,-1
 155 161 l 1,25,-1
 19 161 l 1,18,-1
221 81 m 1,26,-1
 452 81 l 2,27,28
 535 81 535 81 579 109 c 128,-1,29
 623 137 623 137 623 197 c 0,30,31
 623 258 623 258 579 287 c 128,-1,32
 535 316 535 316 452 316 c 2,33,-1
 213 316 l 1,34,-1
 213 398 l 1,35,-1
 427 398 l 2,36,37
 503 398 503 398 545 424.5 c 128,-1,38
 587 451 587 451 587 507 c 256,39,40
 587 563 587 563 545 591 c 128,-1,41
 503 619 503 619 427 619 c 2,42,-1
 221 619 l 1,43,-1
 221 81 l 1,26,-1
EndSplineSet
Substitution2: "'c2sc' Capitals to Small Capitals lookup 45 subtable" uni0180.sc
Substitution2: "'aalt' Access All Alternates lookup 0 subtable" uni0180.sc
EndChar

StartChar: uni0182
Encoding: 386 386 44
Width: 757
GlyphClass: 2
Flags: W
AnchorPoint: "Anchor-3" 379 700 basechar 0
AnchorPoint: "Anchor-0" 379 0 basechar 0
LayerCount: 2
Fore
SplineSet
105 0 m 1,0,-1
 105 700 l 1,1,-1
 645 700 l 1,2,-1
 645 619 l 1,3,-1
 205 619 l 1,4,-1
 205 81 l 1,5,-1
 435 81 l 2,6,7
 518 81 518 81 562 109.5 c 128,-1,8
 606 138 606 138 606 202 c 0,9,10
 606 265 606 265 562 293 c 128,-1,11
 518 321 518 321 435 321 c 2,12,-1
 196 321 l 1,13,-1
 196 403 l 1,14,-1
 448 403 l 2,15,16
 575 403 575 403 641 354.5 c 128,-1,17
 707 306 707 306 707 204 c 0,18,19
 707 101 707 101 639 50.5 c 128,-1,20
 571 0 571 0 439 0 c 2,21,-1
 105 0 l 1,0,-1
EndSplineSet
Substitution2: "'c2sc' Capitals to Small Capitals lookup 45 subtable" uni0183.sc
Substitution2: "'aalt' Access All Alternates lookup 0 subtable" uni0183.sc
EndChar

StartChar: C
Encoding: 67 67 45
Width: 713
GlyphClass: 2
Flags: W
AnchorPoint: "Anchor-3" 412 700 basechar 0
AnchorPoint: "Anchor-1" 149 358 basechar 0
AnchorPoint: "Anchor-0" 412 0 basechar 0
LayerCount: 2
Fore
SplineSet
418 -8 m 0,0,1
 338 -8 338 -8 270.5 18.5 c 128,-1,2
 203 45 203 45 153.5 93.5 c 128,-1,3
 104 142 104 142 76 207 c 128,-1,4
 48 272 48 272 48 350 c 256,5,6
 48 428 48 428 76 493 c 128,-1,7
 104 558 104 558 154 606.5 c 128,-1,8
 204 655 204 655 271.5 681.5 c 128,-1,9
 339 708 339 708 419 708 c 0,10,11
 500 708 500 708 568.5 680.5 c 128,-1,12
 637 653 637 653 685 599 c 1,13,-1
 620 536 l 1,14,15
 580 578 580 578 530 598.5 c 128,-1,16
 480 619 480 619 423 619 c 0,17,18
 364 619 364 619 313.5 599 c 128,-1,19
 263 579 263 579 226 543 c 128,-1,20
 189 507 189 507 168.5 457.5 c 128,-1,21
 148 408 148 408 148 350 c 256,22,23
 148 292 148 292 168.5 242.5 c 128,-1,24
 189 193 189 193 226 157 c 128,-1,25
 263 121 263 121 313.5 101 c 128,-1,26
 364 81 364 81 423 81 c 0,27,28
 480 81 480 81 530 101.5 c 128,-1,29
 580 122 580 122 620 165 c 1,30,-1
 685 102 l 1,31,32
 637 48 637 48 568.5 20 c 128,-1,33
 500 -8 500 -8 418 -8 c 0,0,1
EndSplineSet
Substitution2: "'c2sc' Capitals to Small Capitals lookup 45 subtable" c.sc
Substitution2: "'aalt' Access All Alternates lookup 0 subtable" c.sc
EndChar

StartChar: uniA792
Encoding: 42898 42898 47
Width: 780
GlyphClass: 2
Flags: W
AnchorPoint: "Anchor-3" 480 700 basechar 0
AnchorPoint: "Anchor-1" 216 358 basechar 0
AnchorPoint: "Anchor-0" 480 0 basechar 0
LayerCount: 2
Fore
SplineSet
486 -8 m 0,0,1
 406 -8 406 -8 338.5 18.5 c 128,-1,2
 271 45 271 45 221 93.5 c 128,-1,3
 171 142 171 142 143.5 207 c 128,-1,4
 116 272 116 272 116 350 c 256,5,6
 116 428 116 428 143.5 493 c 128,-1,7
 171 558 171 558 221.5 606.5 c 128,-1,8
 272 655 272 655 339.5 681.5 c 128,-1,9
 407 708 407 708 486 708 c 0,10,11
 567 708 567 708 636 680.5 c 128,-1,12
 705 653 705 653 752 599 c 1,13,-1
 688 536 l 1,14,15
 648 578 648 578 598 598.5 c 128,-1,16
 548 619 548 619 491 619 c 0,17,18
 431 619 431 619 381 599 c 128,-1,19
 331 579 331 579 294 543 c 128,-1,20
 257 507 257 507 236.5 457.5 c 128,-1,21
 216 408 216 408 216 350 c 256,22,23
 216 292 216 292 236.5 242.5 c 128,-1,24
 257 193 257 193 294 157 c 128,-1,25
 331 121 331 121 381 101 c 128,-1,26
 431 81 431 81 491 81 c 0,27,28
 548 81 548 81 598 101.5 c 128,-1,29
 648 122 648 122 688 165 c 1,30,-1
 752 102 l 1,31,32
 705 48 705 48 636 20 c 128,-1,33
 567 -8 567 -8 486 -8 c 0,0,1
12 319 m 1,34,-1
 12 398 l 1,35,-1
 389 398 l 1,36,-1
 389 319 l 1,37,-1
 12 319 l 1,34,-1
EndSplineSet
Substitution2: "'c2sc' Capitals to Small Capitals lookup 45 subtable" uniA793.sc
Substitution2: "'aalt' Access All Alternates lookup 0 subtable" uniA793.sc
EndChar

StartChar: uniA7B3
Encoding: 42931 42931 53
Width: 562
GlyphClass: 1
Flags: W
LayerCount: 2
Fore
SplineSet
686 -129 m 1,0,1
 665 -160 665 -160 630 -180 c 128,-1,2
 595 -200 595 -200 554.5 -202 c 128,-1,3
 514 -204 514 -204 476 -182.5 c 128,-1,4
 438 -161 438 -161 412 -109 c 2,5,-1
 251 217 l 1,6,-1
 222 261 l 1,7,-1
 64 572 l 2,8,9
 48 602 48 602 26.5 614 c 128,-1,10
 5 626 5 626 -18 618.5 c 128,-1,11
 -41 611 -41 611 -62 583 c 1,12,-1
 -124 635 l 1,13,14
 -103 665 -103 665 -68.5 685 c 128,-1,15
 -34 705 -34 705 6 707 c 128,-1,16
 46 709 46 709 83.5 688 c 128,-1,17
 121 667 121 667 146 615 c 2,18,-1
 284 340 l 1,19,-1
 309 299 l 1,20,-1
 496 -66 l 2,21,22
 511 -96 511 -96 533.5 -108 c 128,-1,23
 556 -120 556 -120 580 -112 c 128,-1,24
 604 -104 604 -104 624 -77 c 1,25,-1
 686 -129 l 1,0,1
-52 -194 m 1,26,-1
 239 312 l 1,27,-1
 248 315 l 1,28,-1
 475 700 l 1,29,-1
 580 700 l 1,30,-1
 302 242 l 1,31,-1
 292 233 l 1,32,-1
 51 -194 l 1,33,-1
 -52 -194 l 1,26,-1
EndSplineSet
Substitution2: "'c2sc' Capitals to Small Capitals lookup 45 subtable" uniAB53.sc
Substitution2: "'aalt' Access All Alternates lookup 0 subtable" uniAB53.sc
EndChar

StartChar: uni0187
Encoding: 391 391 54
Width: 746
GlyphClass: 2
Flags: W
AnchorPoint: "Anchor-3" 421 700 basechar 0
AnchorPoint: "Anchor-0" 421 0 basechar 0
LayerCount: 2
Fore
SplineSet
696 599 m 1,0,-1
 605 600 l 1,1,-1
 605 674 l 2,2,3
 605 727 605 727 625.5 763 c 128,-1,4
 646 799 646 799 679.5 818.5 c 128,-1,5
 713 838 713 838 754 839.5 c 128,-1,6
 795 841 795 841 836 824 c 1,7,-1
 809 746 l 1,8,9
 782 757 782 757 756 752 c 128,-1,10
 730 747 730 747 713 727 c 128,-1,11
 696 707 696 707 696 674 c 2,12,-1
 696 599 l 1,0,-1
430 -8 m 0,13,14
 350 -8 350 -8 282.5 18.5 c 128,-1,15
 215 45 215 45 165 93.5 c 128,-1,16
 115 142 115 142 87.5 207 c 128,-1,17
 60 272 60 272 60 350 c 256,18,19
 60 428 60 428 87.5 493 c 128,-1,20
 115 558 115 558 165.5 606.5 c 128,-1,21
 216 655 216 655 283.5 681.5 c 128,-1,22
 351 708 351 708 430 708 c 0,23,24
 511 708 511 708 580 680.5 c 128,-1,25
 649 653 649 653 696 599 c 1,26,-1
 632 536 l 1,27,28
 592 578 592 578 542 598.5 c 128,-1,29
 492 619 492 619 435 619 c 0,30,31
 375 619 375 619 325 599 c 128,-1,32
 275 579 275 579 238 543 c 128,-1,33
 201 507 201 507 180.5 457.5 c 128,-1,34
 160 408 160 408 160 350 c 256,35,36
 160 292 160 292 180.5 242.5 c 128,-1,37
 201 193 201 193 238 157 c 128,-1,38
 275 121 275 121 325 101 c 128,-1,39
 375 81 375 81 435 81 c 0,40,41
 492 81 492 81 542 101.5 c 128,-1,42
 592 122 592 122 632 165 c 1,43,-1
 696 102 l 1,44,45
 649 48 649 48 580 20 c 128,-1,46
 511 -8 511 -8 430 -8 c 0,13,14
EndSplineSet
Substitution2: "'c2sc' Capitals to Small Capitals lookup 45 subtable" uni0188.sc
Substitution2: "'aalt' Access All Alternates lookup 0 subtable" uni0188.sc
EndChar

StartChar: uni023B
Encoding: 571 571 55
Width: 713
GlyphClass: 2
Flags: W
AnchorPoint: "Anchor-3" 412 700 basechar 0
AnchorPoint: "Anchor-0" 412 0 basechar 0
LayerCount: 2
Fore
SplineSet
171 -70 m 1,0,-1
 558 770 l 1,1,-1
 640 770 l 1,2,-1
 254 -70 l 1,3,-1
 171 -70 l 1,0,-1
418 -8 m 0,4,5
 338 -8 338 -8 270.5 18.5 c 128,-1,6
 203 45 203 45 153.5 93.5 c 128,-1,7
 104 142 104 142 76 207 c 128,-1,8
 48 272 48 272 48 350 c 256,9,10
 48 428 48 428 76 493 c 128,-1,11
 104 558 104 558 154 606.5 c 128,-1,12
 204 655 204 655 271.5 681.5 c 128,-1,13
 339 708 339 708 419 708 c 0,14,15
 500 708 500 708 568.5 680.5 c 128,-1,16
 637 653 637 653 685 599 c 1,17,-1
 620 536 l 1,18,19
 580 578 580 578 530 598.5 c 128,-1,20
 480 619 480 619 423 619 c 0,21,22
 364 619 364 619 313.5 599 c 128,-1,23
 263 579 263 579 226 543 c 128,-1,24
 189 507 189 507 168.5 457.5 c 128,-1,25
 148 408 148 408 148 350 c 256,26,27
 148 292 148 292 168.5 242.5 c 128,-1,28
 189 193 189 193 226 157 c 128,-1,29
 263 121 263 121 313.5 101 c 128,-1,30
 364 81 364 81 423 81 c 0,31,32
 480 81 480 81 530 101.5 c 128,-1,33
 580 122 580 122 620 165 c 1,34,-1
 685 102 l 1,35,36
 637 48 637 48 568.5 20 c 128,-1,37
 500 -8 500 -8 418 -8 c 0,4,5
EndSplineSet
Substitution2: "'c2sc' Capitals to Small Capitals lookup 45 subtable" uni023C.sc
Substitution2: "'aalt' Access All Alternates lookup 0 subtable" uni023C.sc
EndChar

StartChar: D
Encoding: 68 68 56
Width: 826
GlyphClass: 2
Flags: W
AnchorPoint: "Anchor-3" 379 700 basechar 0
AnchorPoint: "Anchor-1" 203 359 basechar 0
AnchorPoint: "Anchor-0" 383 0 basechar 0
LayerCount: 2
Fore
SplineSet
105 0 m 1,0,-1
 105 700 l 1,1,-1
 400 700 l 2,2,3
 512 700 512 700 597.5 656 c 128,-1,4
 683 612 683 612 730.5 533 c 128,-1,5
 778 454 778 454 778 350 c 256,6,7
 778 246 778 246 730.5 167 c 128,-1,8
 683 88 683 88 597.5 44 c 128,-1,9
 512 0 512 0 400 0 c 2,10,-1
 105 0 l 1,0,-1
205 87 m 1,11,-1
 394 87 l 2,12,13
 481 87 481 87 544.5 120 c 128,-1,14
 608 153 608 153 643 212.5 c 128,-1,15
 678 272 678 272 678 350 c 0,16,17
 678 429 678 429 643 488 c 128,-1,18
 608 547 608 547 544.5 580 c 128,-1,19
 481 613 481 613 394 613 c 2,20,-1
 205 613 l 1,21,-1
 205 87 l 1,11,-1
EndSplineSet
Substitution2: "'c2sc' Capitals to Small Capitals lookup 45 subtable" d.sc
Substitution2: "'aalt' Access All Alternates lookup 0 subtable" d.sc
EndChar

StartChar: uni018A
Encoding: 394 394 65
Width: 992
GlyphClass: 2
Flags: W
AnchorPoint: "Anchor-3" 545 700 basechar 0
AnchorPoint: "Anchor-1" 368 359 basechar 0
AnchorPoint: "Anchor-0" 549 0 basechar 0
LayerCount: 2
Fore
SplineSet
102 383 m 1,0,1
 67 416 67 416 49 458 c 128,-1,2
 31 500 31 500 31.5 542 c 128,-1,3
 32 584 32 584 51.5 620 c 128,-1,4
 71 656 71 656 111 678 c 128,-1,5
 151 700 151 700 213 700 c 2,6,-1
 279 700 l 1,7,-1
 279 613 l 1,8,-1
 214 613 l 2,9,10
 178 613 178 613 157.5 596.5 c 128,-1,11
 137 580 137 580 131.5 553.5 c 128,-1,12
 126 527 126 527 135.5 496.5 c 128,-1,13
 145 466 145 466 170 438 c 1,14,-1
 102 383 l 1,0,1
271 0 m 1,15,-1
 271 700 l 1,16,-1
 566 700 l 2,17,18
 678 700 678 700 763 656 c 128,-1,19
 848 612 848 612 896 533 c 128,-1,20
 944 454 944 454 944 350 c 256,21,22
 944 246 944 246 896 167 c 128,-1,23
 848 88 848 88 763 44 c 128,-1,24
 678 0 678 0 566 0 c 2,25,-1
 271 0 l 1,15,-1
370 87 m 1,26,-1
 560 87 l 2,27,28
 647 87 647 87 710.5 120 c 128,-1,29
 774 153 774 153 809 212.5 c 128,-1,30
 844 272 844 272 844 350 c 0,31,32
 844 429 844 429 809 488 c 128,-1,33
 774 547 774 547 710.5 580 c 128,-1,34
 647 613 647 613 560 613 c 2,35,-1
 370 613 l 1,36,-1
 370 87 l 1,26,-1
EndSplineSet
Substitution2: "'c2sc' Capitals to Small Capitals lookup 45 subtable" uni0257.sc
Substitution2: "'aalt' Access All Alternates lookup 0 subtable" uni0257.sc
EndChar

StartChar: uni018B
Encoding: 395 395 68
Width: 746
GlyphClass: 1
Flags: W
LayerCount: 2
Fore
SplineSet
305 0 m 2,0,1
 179 0 179 0 108.5 57 c 128,-1,2
 38 114 38 114 38 215 c 0,3,4
 38 311 38 311 105.5 363.5 c 128,-1,5
 173 416 173 416 303 416 c 2,6,-1
 543 416 l 1,7,-1
 543 613 l 1,8,-1
 116 613 l 1,9,-1
 116 700 l 1,10,-1
 641 700 l 1,11,-1
 641 0 l 1,12,-1
 305 0 l 2,0,1
313 81 m 2,13,-1
 543 81 l 1,14,-1
 543 334 l 1,15,-1
 313 334 l 2,16,17
 226 334 226 334 182 302 c 128,-1,18
 138 270 138 270 138 213 c 0,19,20
 138 154 138 154 182.5 117.5 c 128,-1,21
 227 81 227 81 313 81 c 2,13,-1
EndSplineSet
Substitution2: "'c2sc' Capitals to Small Capitals lookup 45 subtable" uni018C.sc
Substitution2: "'aalt' Access All Alternates lookup 0 subtable" uni018C.sc
EndChar

StartChar: E
Encoding: 69 69 72
Width: 670
GlyphClass: 2
Flags: W
AnchorPoint: "Anchor-3" 352 700 basechar 0
AnchorPoint: "Anchor-2" 613 0 basechar 0
AnchorPoint: "Anchor-0" 352 0 basechar 0
LayerCount: 2
Fore
SplineSet
105 0 m 1,0,-1
 105 700 l 1,1,-1
 599 700 l 1,2,-1
 599 613 l 1,3,-1
 205 613 l 1,4,-1
 205 87 l 1,5,-1
 613 87 l 1,6,-1
 613 0 l 1,7,-1
 105 0 l 1,0,-1
196 313 m 1,8,-1
 196 398 l 1,9,-1
 556 398 l 1,10,-1
 556 313 l 1,11,-1
 196 313 l 1,8,-1
EndSplineSet
Substitution2: "'ss01' Style Set 1 lookup 50 subtable" E.ss01
Substitution2: "'c2sc' Capitals to Small Capitals lookup 45 subtable" e.sc
AlternateSubs2: "'aalt' Access All Alternates lookup 1 subtable" e.sc E.ss01
EndChar

StartChar: uni0190
Encoding: 400 400 96
Width: 633
GlyphClass: 2
Flags: W
AnchorPoint: "Anchor-3" 339 700 basechar 0
AnchorPoint: "Anchor-2" 425 0 basechar 0
AnchorPoint: "Anchor-0" 339 0 basechar 0
LayerCount: 2
Fore
SplineSet
357 -8 m 0,0,1
 259 -8 259 -8 192 18.5 c 128,-1,2
 125 45 125 45 90.5 91.5 c 128,-1,3
 56 138 56 138 56 197 c 0,4,5
 56 254 56 254 84 293.5 c 128,-1,6
 112 333 112 333 158 354 c 128,-1,7
 204 375 204 375 258 375 c 1,8,-1
 263 346 l 1,9,10
 210 346 210 346 170 369 c 128,-1,11
 130 392 130 392 108 431 c 128,-1,12
 86 470 86 470 86 518 c 256,13,14
 86 566 86 566 107.5 602 c 128,-1,15
 129 638 129 638 167 661 c 128,-1,16
 205 684 205 684 253 695.5 c 128,-1,17
 301 707 301 707 353 707 c 0,18,19
 417 707 417 707 480.5 691.5 c 128,-1,20
 544 676 544 676 598 646 c 1,21,-1
 568 566 l 1,22,23
 539 582 539 582 502.5 594.5 c 128,-1,24
 466 607 466 607 427.5 614 c 128,-1,25
 389 621 389 621 353 621 c 0,26,27
 308 621 308 621 270 609 c 128,-1,28
 232 597 232 597 209 571.5 c 128,-1,29
 186 546 186 546 186 504 c 0,30,31
 186 453 186 453 223.5 427.5 c 128,-1,32
 261 402 261 402 330 402 c 2,33,-1
 490 402 l 1,34,-1
 490 321 l 1,35,-1
 325 321 l 2,36,37
 275 321 275 321 236.5 308.5 c 128,-1,38
 198 296 198 296 177 269.5 c 128,-1,39
 156 243 156 243 156 203 c 0,40,41
 156 145 156 145 205 111.5 c 128,-1,42
 254 78 254 78 356 78 c 0,43,44
 431 78 431 78 493 97 c 128,-1,45
 555 116 555 116 597 151 c 1,46,-1
 632 73 l 1,47,48
 587 35 587 35 515 13.5 c 128,-1,49
 443 -8 443 -8 357 -8 c 0,0,1
EndSplineSet
Substitution2: "'c2sc' Capitals to Small Capitals lookup 45 subtable" uni025B.sc
Substitution2: "'aalt' Access All Alternates lookup 0 subtable" uni025B.sc
EndChar

StartChar: uni018E
Encoding: 398 398 97
Width: 670
GlyphClass: 2
Flags: W
AnchorPoint: "Anchor-3" 317 700 basechar 0
AnchorPoint: "Anchor-0" 317 0 basechar 0
LayerCount: 2
Fore
SplineSet
565 0 m 1,0,-1
 56 0 l 1,1,-1
 56 87 l 1,2,-1
 465 87 l 1,3,-1
 465 613 l 1,4,-1
 70 613 l 1,5,-1
 70 700 l 1,6,-1
 565 700 l 1,7,-1
 565 0 l 1,0,-1
474 312 m 1,8,-1
 114 312 l 1,9,-1
 114 397 l 1,10,-1
 474 397 l 1,11,-1
 474 312 l 1,8,-1
EndSplineSet
Substitution2: "'ss01' Style Set 1 lookup 50 subtable" uni018E.ss01
Substitution2: "'c2sc' Capitals to Small Capitals lookup 45 subtable" uni0258.sc
AlternateSubs2: "'aalt' Access All Alternates lookup 1 subtable" uni0258.sc uni018E.ss01
EndChar

StartChar: uniA7AB
Encoding: 42923 42923 98
Width: 633
GlyphClass: 2
Flags: W
AnchorPoint: "Anchor-3" 294 700 basechar 0
AnchorPoint: "Anchor-2" 207 0 basechar 0
AnchorPoint: "Anchor-0" 294 0 basechar 0
LayerCount: 2
Fore
SplineSet
276 -8 m 0,0,1
 190 -8 190 -8 118.5 13.5 c 128,-1,2
 47 35 47 35 1 73 c 1,3,-1
 35 151 l 1,4,5
 77 116 77 116 139.5 97 c 128,-1,6
 202 78 202 78 277 78 c 0,7,8
 378 78 378 78 427 111.5 c 128,-1,9
 476 145 476 145 476 203 c 0,10,11
 476 243 476 243 455 269.5 c 128,-1,12
 434 296 434 296 396.5 308.5 c 128,-1,13
 359 321 359 321 308 321 c 2,14,-1
 143 321 l 1,15,-1
 143 402 l 1,16,-1
 303 402 l 2,17,18
 371 402 371 402 408.5 427.5 c 128,-1,19
 446 453 446 453 446 504 c 0,20,21
 446 546 446 546 423 571.5 c 128,-1,22
 400 597 400 597 362.5 609 c 128,-1,23
 325 621 325 621 280 621 c 0,24,25
 244 621 244 621 205.5 614 c 128,-1,26
 167 607 167 607 131 594.5 c 128,-1,27
 95 582 95 582 64 566 c 1,28,-1
 35 646 l 1,29,30
 89 676 89 676 152.5 691.5 c 128,-1,31
 216 707 216 707 279 707 c 0,32,33
 332 707 332 707 380 695.5 c 128,-1,34
 428 684 428 684 465.5 661 c 128,-1,35
 503 638 503 638 524.5 602 c 128,-1,36
 546 566 546 566 546 518 c 256,37,38
 546 470 546 470 524.5 431 c 128,-1,39
 503 392 503 392 463 369 c 128,-1,40
 423 346 423 346 370 346 c 1,41,-1
 375 375 l 1,42,43
 429 375 429 375 475 354 c 128,-1,44
 521 333 521 333 548.5 293.5 c 128,-1,45
 576 254 576 254 576 197 c 0,46,47
 576 138 576 138 541.5 91.5 c 128,-1,48
 507 45 507 45 440.5 18.5 c 128,-1,49
 374 -8 374 -8 276 -8 c 0,0,1
EndSplineSet
Substitution2: "'c2sc' Capitals to Small Capitals lookup 45 subtable" uni025C.sc
Substitution2: "'aalt' Access All Alternates lookup 0 subtable" uni025C.sc
EndChar

StartChar: uni01A9
Encoding: 425 425 99
Width: 481
GlyphClass: 1
Flags: W
LayerCount: 2
Fore
SplineSet
108 -8 m 0,0,1
 70 -8 70 -8 33 4.5 c 128,-1,2
 -4 17 -4 17 -31 43 c 1,3,-1
 0 115 l 1,4,5
 22 97 22 97 46 87.5 c 128,-1,6
 70 78 70 78 94 78 c 0,7,8
 134 78 134 78 163 101 c 128,-1,9
 192 124 192 124 191 176 c 2,10,-1
 186 520 l 2,11,12
 185 585 185 585 208.5 626.5 c 128,-1,13
 232 668 232 668 273.5 688 c 128,-1,14
 315 708 315 708 369 708 c 0,15,16
 409 708 409 708 445 695.5 c 128,-1,17
 481 683 481 683 508 657 c 1,18,-1
 478 584 l 1,19,20
 455 603 455 603 431 612 c 128,-1,21
 407 621 407 621 384 621 c 256,22,23
 361 621 361 621 338.5 613 c 128,-1,24
 316 605 316 605 301.5 584 c 128,-1,25
 287 563 287 563 287 524 c 2,26,-1
 291 180 l 2,27,28
 292 122 292 122 274.5 85 c 128,-1,29
 257 48 257 48 229 27.5 c 128,-1,30
 201 7 201 7 169 -0.5 c 128,-1,31
 137 -8 137 -8 108 -8 c 0,0,1
EndSplineSet
Substitution2: "'c2sc' Capitals to Small Capitals lookup 45 subtable" uni0283.sc
Substitution2: "'aalt' Access All Alternates lookup 0 subtable" uni0283.sc
EndChar

StartChar: uni0246
Encoding: 582 582 100
Width: 670
GlyphClass: 2
Flags: W
AnchorPoint: "Anchor-3" 352 700 basechar 0
AnchorPoint: "Anchor-2" 613 0 basechar 0
AnchorPoint: "Anchor-0" 352 0 basechar 0
LayerCount: 2
Fore
SplineSet
140 -70 m 1,0,-1
 519 770 l 1,1,-1
 598 770 l 1,2,-1
 220 -70 l 1,3,-1
 140 -70 l 1,0,-1
105 0 m 1,4,-1
 105 700 l 1,5,-1
 599 700 l 1,6,-1
 599 613 l 1,7,-1
 205 613 l 1,8,-1
 205 87 l 1,9,-1
 614 87 l 1,10,-1
 614 0 l 1,11,-1
 105 0 l 1,4,-1
196 313 m 1,12,-1
 196 398 l 1,13,-1
 556 398 l 1,14,-1
 556 313 l 1,15,-1
 196 313 l 1,12,-1
EndSplineSet
Substitution2: "'ss01' Style Set 1 lookup 50 subtable" uni0246.ss01
Substitution2: "'c2sc' Capitals to Small Capitals lookup 45 subtable" uni0247.sc
AlternateSubs2: "'aalt' Access All Alternates lookup 1 subtable" uni0247.sc uni0246.ss01
EndChar

StartChar: uni018F
Encoding: 399 399 103
Width: 817
GlyphClass: 2
Flags: W
AnchorPoint: "Anchor-3" 409 700 basechar 0
AnchorPoint: "Anchor-2" 458 0 basechar 0
AnchorPoint: "Anchor-0" 409 0 basechar 0
LayerCount: 2
Fore
SplineSet
409 -8 m 0,0,1
 331 -8 331 -8 265 19 c 128,-1,2
 199 46 199 46 150.5 94.5 c 128,-1,3
 102 143 102 143 75 209.5 c 128,-1,4
 48 276 48 276 48 354 c 2,5,-1
 48 382 l 1,6,-1
 680 382 l 1,7,-1
 680 297 l 1,8,-1
 115 297 l 1,9,-1
 147 350 l 1,10,11
 147 289 147 289 166 239 c 128,-1,12
 185 189 185 189 220 153.5 c 128,-1,13
 255 118 255 118 303 98 c 128,-1,14
 351 78 351 78 409 78 c 256,15,16
 467 78 467 78 514.5 97.5 c 128,-1,17
 562 117 562 117 596.5 152.5 c 128,-1,18
 631 188 631 188 650 237 c 128,-1,19
 669 286 669 286 669 345 c 2,20,-1
 669 354 l 2,21,22
 669 411 669 411 648.5 459.5 c 128,-1,23
 628 508 628 508 591.5 543.5 c 128,-1,24
 555 579 555 579 506.5 599 c 128,-1,25
 458 619 458 619 402 619 c 0,26,27
 361 619 361 619 321.5 610 c 128,-1,28
 282 601 282 601 246.5 583 c 128,-1,29
 211 565 211 565 182 537 c 1,30,-1
 122 606 l 1,31,32
 155 639 155 639 198.5 661.5 c 128,-1,33
 242 684 242 684 294 696 c 128,-1,34
 346 708 346 708 403 708 c 0,35,36
 483 708 483 708 549.5 681.5 c 128,-1,37
 616 655 616 655 665.5 606.5 c 128,-1,38
 715 558 715 558 742 493 c 128,-1,39
 769 428 769 428 769 351 c 256,40,41
 769 274 769 274 742 208.5 c 128,-1,42
 715 143 715 143 666 94.5 c 128,-1,43
 617 46 617 46 551.5 19 c 128,-1,44
 486 -8 486 -8 409 -8 c 0,0,1
EndSplineSet
Substitution2: "'ss01' Style Set 1 lookup 50 subtable" uni018F.ss01
Substitution2: "'c2sc' Capitals to Small Capitals lookup 45 subtable" uni0259.sc
AlternateSubs2: "'aalt' Access All Alternates lookup 1 subtable" uni0259.sc uni018F.ss01
EndChar

StartChar: uni01B8
Encoding: 440 440 106
Width: 628
GlyphClass: 2
Flags: W
AnchorPoint: "Anchor-3" 317 700 basechar 0
AnchorPoint: "Anchor-0" 317 0 basechar 0
LayerCount: 2
Fore
SplineSet
331 -8 m 0,0,1
 238 -8 238 -8 176.5 20.5 c 128,-1,2
 115 49 115 49 85 98 c 128,-1,3
 55 147 55 147 55 206 c 256,4,5
 55 265 55 265 84.5 310.5 c 128,-1,6
 114 356 114 356 173.5 381 c 128,-1,7
 233 406 233 406 322 406 c 2,8,-1
 355 406 l 1,9,-1
 317 377 l 1,10,-1
 87 632 l 1,11,-1
 87 700 l 1,12,-1
 570 700 l 1,13,-1
 570 615 l 1,14,-1
 164 615 l 1,15,-1
 172 660 l 1,16,-1
 403 405 l 1,17,-1
 403 328 l 1,18,-1
 340 328 l 2,19,20
 244 328 244 328 198 295 c 128,-1,21
 152 262 152 262 152 206 c 0,22,23
 152 147 152 147 199.5 113 c 128,-1,24
 247 79 247 79 333 79 c 0,25,26
 404 79 404 79 463.5 100.5 c 128,-1,27
 523 122 523 122 560 155 c 1,28,-1
 597 76 l 1,29,30
 555 38 555 38 483.5 15 c 128,-1,31
 412 -8 412 -8 331 -8 c 0,0,1
EndSplineSet
Substitution2: "'c2sc' Capitals to Small Capitals lookup 45 subtable" uni01B9.sc
Substitution2: "'aalt' Access All Alternates lookup 0 subtable" uni01B9.sc
EndChar

StartChar: F
Encoding: 70 70 107
Width: 635
GlyphClass: 2
Flags: W
AnchorPoint: "Anchor-3" 350 700 basechar 0
AnchorPoint: "Anchor-0" 350 0 basechar 0
LayerCount: 2
Fore
SplineSet
105 0 m 1,0,-1
 105 700 l 1,1,-1
 599 700 l 1,2,-1
 599 613 l 1,3,-1
 205 613 l 1,4,-1
 205 0 l 1,5,-1
 105 0 l 1,0,-1
195 283 m 1,6,-1
 195 369 l 1,7,-1
 556 369 l 1,8,-1
 556 283 l 1,9,-1
 195 283 l 1,6,-1
EndSplineSet
Substitution2: "'ss01' Style Set 1 lookup 50 subtable" F.ss01
Substitution2: "'c2sc' Capitals to Small Capitals lookup 45 subtable" f.sc
AlternateSubs2: "'aalt' Access All Alternates lookup 1 subtable" f.sc F.ss01
EndChar

StartChar: uni0191
Encoding: 401 401 109
Width: 652
GlyphClass: 1
Flags: W
LayerCount: 2
Fore
SplineSet
-25 -185 m 1,0,-1
 3 -107 l 1,1,2
 31 -117 31 -117 57.5 -113 c 128,-1,3
 84 -109 84 -109 102 -89 c 128,-1,4
 120 -69 120 -69 120 -33 c 2,5,-1
 120 700 l 1,6,-1
 614 700 l 1,7,-1
 614 613 l 1,8,-1
 219 613 l 1,9,-1
 219 -33 l 2,10,11
 219 -87 219 -87 196.5 -124.5 c 128,-1,12
 174 -162 174 -162 138.5 -181 c 128,-1,13
 103 -200 103 -200 60 -201 c 128,-1,14
 17 -202 17 -202 -25 -185 c 1,0,-1
210 283 m 1,15,-1
 210 369 l 1,16,-1
 571 369 l 1,17,-1
 571 283 l 1,18,-1
 210 283 l 1,15,-1
EndSplineSet
Substitution2: "'ss01' Style Set 1 lookup 50 subtable" uni0191.ss01
Substitution2: "'c2sc' Capitals to Small Capitals lookup 45 subtable" florin.sc
AlternateSubs2: "'aalt' Access All Alternates lookup 1 subtable" florin.sc uni0191.ss01
EndChar

StartChar: G
Encoding: 71 71 110
Width: 772
GlyphClass: 2
Flags: W
AnchorPoint: "Anchor-3" 410 700 basechar 0
AnchorPoint: "Anchor-0" 405 0 basechar 0
LayerCount: 2
Fore
SplineSet
421 -8 m 0,0,1
 340 -8 340 -8 272 18.5 c 128,-1,2
 204 45 204 45 154 93.5 c 128,-1,3
 104 142 104 142 76 207 c 128,-1,4
 48 272 48 272 48 350 c 256,5,6
 48 428 48 428 76 493 c 128,-1,7
 104 558 104 558 154.5 606.5 c 128,-1,8
 205 655 205 655 273 681.5 c 128,-1,9
 341 708 341 708 423 708 c 0,10,11
 506 708 506 708 575 681 c 128,-1,12
 644 654 644 654 692 600 c 1,13,-1
 630 538 l 1,14,15
 587 580 587 580 536.5 599.5 c 128,-1,16
 486 619 486 619 427 619 c 0,17,18
 367 619 367 619 315.5 599 c 128,-1,19
 264 579 264 579 226.5 543 c 128,-1,20
 189 507 189 507 168.5 457.5 c 128,-1,21
 148 408 148 408 148 350 c 0,22,23
 148 293 148 293 168.5 243.5 c 128,-1,24
 189 194 189 194 226.5 157.5 c 128,-1,25
 264 121 264 121 315 101 c 128,-1,26
 366 81 366 81 426 81 c 0,27,28
 482 81 482 81 533.5 98.5 c 128,-1,29
 585 116 585 116 629 157 c 1,30,-1
 686 81 l 1,31,32
 634 37 634 37 564.5 14.5 c 128,-1,33
 495 -8 495 -8 421 -8 c 0,0,1
686 81 m 1,34,-1
 590 94 l 1,35,-1
 590 354 l 1,36,-1
 686 354 l 1,37,-1
 686 81 l 1,34,-1
EndSplineSet
Substitution2: "'ss01' Style Set 1 lookup 50 subtable" G.ss01
Substitution2: "'c2sc' Capitals to Small Capitals lookup 45 subtable" g.sc
AlternateSubs2: "'aalt' Access All Alternates lookup 1 subtable" g.sc G.ss01
EndChar

StartChar: uni0193
Encoding: 403 403 117
Width: 781
GlyphClass: 2
Flags: W
AnchorPoint: "Anchor-3" 408 700 basechar 0
AnchorPoint: "Anchor-0" 408 0 basechar 0
LayerCount: 2
Fore
SplineSet
421 -8 m 0,0,1
 340 -8 340 -8 272 18.5 c 128,-1,2
 204 45 204 45 154 93.5 c 128,-1,3
 104 142 104 142 76 207 c 128,-1,4
 48 272 48 272 48 350 c 256,5,6
 48 428 48 428 76 493 c 128,-1,7
 104 558 104 558 154.5 606.5 c 128,-1,8
 205 655 205 655 273 681.5 c 128,-1,9
 341 708 341 708 423 708 c 0,10,11
 506 708 506 708 575 681 c 128,-1,12
 644 654 644 654 692 600 c 1,13,-1
 630 538 l 1,14,15
 587 580 587 580 536.5 599.5 c 128,-1,16
 486 619 486 619 427 619 c 0,17,18
 367 619 367 619 315.5 599 c 128,-1,19
 264 579 264 579 226.5 543 c 128,-1,20
 189 507 189 507 168.5 457.5 c 128,-1,21
 148 408 148 408 148 350 c 0,22,23
 148 293 148 293 168.5 243.5 c 128,-1,24
 189 194 189 194 226.5 157.5 c 128,-1,25
 264 121 264 121 315 101 c 128,-1,26
 366 81 366 81 426 81 c 0,27,28
 482 81 482 81 533.5 98.5 c 128,-1,29
 585 116 585 116 629 157 c 1,30,-1
 686 81 l 1,31,32
 634 37 634 37 564.5 14.5 c 128,-1,33
 495 -8 495 -8 421 -8 c 0,0,1
686 81 m 1,34,-1
 590 94 l 1,35,-1
 590 354 l 1,36,-1
 686 354 l 1,37,-1
 686 81 l 1,34,-1
601 600 m 1,38,-1
 601 674 l 2,39,40
 601 727 601 727 621.5 763 c 128,-1,41
 642 799 642 799 675.5 818.5 c 128,-1,42
 709 838 709 838 750.5 839.5 c 128,-1,43
 792 841 792 841 832 824 c 1,44,-1
 805 746 l 1,45,46
 778 757 778 757 752 752 c 128,-1,47
 726 747 726 747 709 727 c 128,-1,48
 692 707 692 707 692 674 c 2,49,-1
 692 600 l 1,50,-1
 601 600 l 1,38,-1
EndSplineSet
Substitution2: "'ss01' Style Set 1 lookup 50 subtable" uni0193.ss01
Substitution2: "'c2sc' Capitals to Small Capitals lookup 45 subtable" uni0260.sc
AlternateSubs2: "'aalt' Access All Alternates lookup 1 subtable" uni0260.sc uni0193.ss01
EndChar

StartChar: uni0241
Encoding: 577 577 118
Width: 571
GlyphClass: 2
Flags: W
AnchorPoint: "Anchor-3" 252 700 basechar 0
AnchorPoint: "Anchor-0" 252 0 basechar 0
LayerCount: 2
Fore
SplineSet
202 0 m 1,0,-1
 202 157 l 2,1,2
 202 209 202 209 220.5 243.5 c 128,-1,3
 239 278 239 278 267 301.5 c 128,-1,4
 295 325 295 325 327.5 344 c 128,-1,5
 360 363 360 363 388.5 382 c 128,-1,6
 417 401 417 401 435.5 426.5 c 128,-1,7
 454 452 454 452 454 490 c 0,8,9
 454 536 454 536 427 564.5 c 128,-1,10
 400 593 400 593 357.5 607.5 c 128,-1,11
 315 622 315 622 268 622 c 0,12,13
 226 622 226 622 185 610.5 c 128,-1,14
 144 599 144 599 109.5 575.5 c 128,-1,15
 75 552 75 552 51 516 c 1,16,-1
 -28 573 l 1,17,18
 5 618 5 618 51.5 648 c 128,-1,19
 98 678 98 678 153.5 693 c 128,-1,20
 209 708 209 708 267 708 c 0,21,22
 323 708 323 708 374 694.5 c 128,-1,23
 425 681 425 681 465.5 654.5 c 128,-1,24
 506 628 506 628 530 587 c 128,-1,25
 554 546 554 546 554 491 c 0,26,27
 554 442 554 442 535.5 407.5 c 128,-1,28
 517 373 517 373 488.5 348.5 c 128,-1,29
 460 324 460 324 428 304.5 c 128,-1,30
 396 285 396 285 367 264.5 c 128,-1,31
 338 244 338 244 319.5 217 c 128,-1,32
 301 190 301 190 301 152 c 2,33,-1
 301 0 l 1,34,-1
 202 0 l 1,0,-1
EndSplineSet
Substitution2: "'c2sc' Capitals to Small Capitals lookup 45 subtable" uni0294.sc
Substitution2: "'aalt' Access All Alternates lookup 0 subtable" uni0294.sc
EndChar

StartChar: uni01E4
Encoding: 484 484 120
Width: 802
GlyphClass: 2
Flags: W
AnchorPoint: "Anchor-3" 410 700 basechar 0
AnchorPoint: "Anchor-0" 405 0 basechar 0
LayerCount: 2
Fore
SplineSet
421 -8 m 0,0,1
 340 -8 340 -8 272 18.5 c 128,-1,2
 204 45 204 45 154 93.5 c 128,-1,3
 104 142 104 142 76 207 c 128,-1,4
 48 272 48 272 48 350 c 256,5,6
 48 428 48 428 76 493 c 128,-1,7
 104 558 104 558 154.5 606.5 c 128,-1,8
 205 655 205 655 273 681.5 c 128,-1,9
 341 708 341 708 423 708 c 0,10,11
 506 708 506 708 575 681 c 128,-1,12
 644 654 644 654 692 600 c 1,13,-1
 630 538 l 1,14,15
 587 580 587 580 536.5 599.5 c 128,-1,16
 486 619 486 619 427 619 c 0,17,18
 367 619 367 619 315.5 599 c 128,-1,19
 264 579 264 579 226.5 543 c 128,-1,20
 189 507 189 507 168.5 457.5 c 128,-1,21
 148 408 148 408 148 350 c 0,22,23
 148 293 148 293 168.5 243.5 c 128,-1,24
 189 194 189 194 226.5 157.5 c 128,-1,25
 264 121 264 121 315 101 c 128,-1,26
 366 81 366 81 426 81 c 0,27,28
 482 81 482 81 533.5 98.5 c 128,-1,29
 585 116 585 116 629 157 c 1,30,-1
 686 81 l 1,31,32
 634 37 634 37 564.5 14.5 c 128,-1,33
 495 -8 495 -8 421 -8 c 0,0,1
437 209 m 1,34,-1
 437 288 l 1,35,-1
 789 288 l 1,36,-1
 789 209 l 1,37,-1
 437 209 l 1,34,-1
686 81 m 1,38,-1
 590 94 l 1,39,-1
 590 354 l 1,40,-1
 686 354 l 1,41,-1
 686 81 l 1,38,-1
EndSplineSet
Substitution2: "'ss01' Style Set 1 lookup 50 subtable" uni01E4.ss01
Substitution2: "'c2sc' Capitals to Small Capitals lookup 45 subtable" uni01E5.sc
AlternateSubs2: "'aalt' Access All Alternates lookup 1 subtable" uni01E5.sc uni01E4.ss01
EndChar

StartChar: uni021C
Encoding: 540 540 121
Width: 609
GlyphClass: 1
Flags: W
LayerCount: 2
Fore
SplineSet
-12 -103 m 1,0,-1
 -17 -20 l 1,1,2
 92 -6 92 -6 179 14 c 128,-1,3
 266 34 266 34 327 61.5 c 128,-1,4
 388 89 388 89 420.5 125 c 128,-1,5
 453 161 453 161 453 208 c 0,6,7
 453 249 453 249 429 272.5 c 128,-1,8
 405 296 405 296 364 302 c 128,-1,9
 323 308 323 308 270 298 c 2,10,-1
 136 269 l 1,11,-1
 130 352 l 1,12,-1
 241 376 l 2,13,14
 291 388 291 388 333 406 c 128,-1,15
 375 424 375 424 399.5 451 c 128,-1,16
 424 478 424 478 424 516 c 0,17,18
 424 544 424 544 410 567.5 c 128,-1,19
 396 591 396 591 367.5 606.5 c 128,-1,20
 339 622 339 622 293 623 c 0,21,22
 259 624 259 624 215.5 615.5 c 128,-1,23
 172 607 172 607 123 589 c 128,-1,24
 74 571 74 571 23 544 c 1,25,-1
 -10 618 l 1,26,27
 39 648 39 648 92.5 668 c 128,-1,28
 146 688 146 688 199.5 698 c 128,-1,29
 253 708 253 708 302 708 c 0,30,31
 381 707 381 707 430 682 c 128,-1,32
 479 657 479 657 502 618 c 128,-1,33
 525 579 525 579 525 535 c 0,34,35
 525 481 525 481 494 441 c 128,-1,36
 463 401 463 401 410 375 c 128,-1,37
 357 349 357 349 291 334 c 1,38,-1
 287 356 l 1,39,40
 364 374 364 374 425 359.5 c 128,-1,41
 486 345 486 345 521 305 c 128,-1,42
 556 265 556 265 556 204 c 0,43,44
 556 140 556 140 514.5 88 c 128,-1,45
 473 36 473 36 397.5 -3 c 128,-1,46
 322 -42 322 -42 218 -67 c 128,-1,47
 114 -92 114 -92 -12 -103 c 1,0,-1
EndSplineSet
Substitution2: "'c2sc' Capitals to Small Capitals lookup 45 subtable" uni021D.sc
Substitution2: "'aalt' Access All Alternates lookup 0 subtable" uni021D.sc
EndChar

StartChar: H
Encoding: 72 72 122
Width: 812
GlyphClass: 2
Flags: W
AnchorPoint: "Anchor-3" 405 700 basechar 0
AnchorPoint: "Anchor-1" 406 545 basechar 0
AnchorPoint: "Anchor-0" 405 0 basechar 0
LayerCount: 2
Fore
SplineSet
607 0 m 1,0,-1
 607 700 l 1,1,-1
 707 700 l 1,2,-1
 707 0 l 1,3,-1
 607 0 l 1,0,-1
105 0 m 1,4,-1
 105 700 l 1,5,-1
 205 700 l 1,6,-1
 205 0 l 1,7,-1
 105 0 l 1,4,-1
195 312 m 1,8,-1
 195 399 l 1,9,-1
 616 399 l 1,10,-1
 616 312 l 1,11,-1
 195 312 l 1,8,-1
EndSplineSet
Substitution2: "'c2sc' Capitals to Small Capitals lookup 45 subtable" h.sc
Substitution2: "'aalt' Access All Alternates lookup 0 subtable" h.sc
EndChar

StartChar: Hbar
Encoding: 294 294 123
Width: 827
GlyphClass: 2
Flags: W
AnchorPoint: "Anchor-3" 413 700 basechar 0
AnchorPoint: "Anchor-1" 414 545 basechar 0
AnchorPoint: "Anchor-0" 413 0 basechar 0
LayerCount: 2
Fore
SplineSet
615 0 m 1,0,-1
 615 700 l 1,1,-1
 714 700 l 1,2,-1
 714 0 l 1,3,-1
 615 0 l 1,0,-1
113 0 m 1,4,-1
 113 700 l 1,5,-1
 212 700 l 1,6,-1
 212 0 l 1,7,-1
 113 0 l 1,4,-1
203 312 m 1,8,-1
 203 399 l 1,9,-1
 623 399 l 1,10,-1
 623 312 l 1,11,-1
 203 312 l 1,8,-1
10 505 m 1,12,-1
 10 584 l 1,13,-1
 817 584 l 1,14,-1
 817 505 l 1,15,-1
 10 505 l 1,12,-1
EndSplineSet
Substitution2: "'c2sc' Capitals to Small Capitals lookup 45 subtable" hbar.sc
Substitution2: "'aalt' Access All Alternates lookup 0 subtable" hbar.sc
EndChar

StartChar: uni1E28
Encoding: 7720 7720 126
Width: 812
GlyphClass: 2
Flags: W
AnchorPoint: "Anchor-3" 405 700 basechar 0
AnchorPoint: "Anchor-1" 405 553 basechar 0
AnchorPoint: "Anchor-0" 405 0 basechar 0
LayerCount: 2
Fore
SplineSet
607 0 m 1,0,-1
 607 700 l 1,1,-1
 707 700 l 1,2,-1
 707 0 l 1,3,-1
 607 0 l 1,0,-1
150 -224 m 0,4,5
 124 -224 124 -224 102 -218.5 c 128,-1,6
 80 -213 80 -213 62 -202 c 1,7,-1
 82 -153 l 1,8,9
 98 -162 98 -162 114.5 -166 c 128,-1,10
 131 -170 131 -170 150 -170 c 0,11,12
 179 -170 179 -170 193 -159.5 c 128,-1,13
 207 -149 207 -149 207 -130 c 0,14,15
 207 -112 207 -112 193 -101.5 c 128,-1,16
 179 -91 179 -91 149 -91 c 2,17,-1
 110 -91 l 1,18,-1
 135 6 l 1,19,-1
 189 6 l 1,20,-1
 176 -50 l 1,21,22
 228 -54 228 -54 251.5 -77 c 128,-1,23
 275 -100 275 -100 275 -133 c 0,24,25
 275 -175 275 -175 240.5 -199.5 c 128,-1,26
 206 -224 206 -224 150 -224 c 0,4,5
105 0 m 1,27,-1
 105 700 l 1,28,-1
 205 700 l 1,29,-1
 205 0 l 1,30,-1
 105 0 l 1,27,-1
195 312 m 1,31,-1
 195 399 l 1,32,-1
 616 399 l 1,33,-1
 616 312 l 1,34,-1
 195 312 l 1,31,-1
EndSplineSet
Substitution2: "'c2sc' Capitals to Small Capitals lookup 45 subtable" uni1E29.sc
Substitution2: "'aalt' Access All Alternates lookup 0 subtable" uni1E29.sc
EndChar

StartChar: uniA7AA
Encoding: 42922 42922 132
Width: 978
GlyphClass: 2
Flags: W
AnchorPoint: "Anchor-3" 571 700 basechar 0
AnchorPoint: "Anchor-1" 572 545 basechar 0
AnchorPoint: "Anchor-0" 571 0 basechar 0
LayerCount: 2
Fore
SplineSet
102 383 m 1,0,1
 67 416 67 416 49 458 c 128,-1,2
 31 500 31 500 31.5 542 c 128,-1,3
 32 584 32 584 51.5 620 c 128,-1,4
 71 656 71 656 111 678 c 128,-1,5
 151 700 151 700 213 700 c 2,6,-1
 279 700 l 1,7,-1
 279 613 l 1,8,-1
 214 613 l 2,9,10
 178 613 178 613 157.5 596.5 c 128,-1,11
 137 580 137 580 131.5 553.5 c 128,-1,12
 126 527 126 527 135.5 496.5 c 128,-1,13
 145 466 145 466 170 438 c 1,14,-1
 102 383 l 1,0,1
773 0 m 1,15,-1
 773 700 l 1,16,-1
 873 700 l 1,17,-1
 873 0 l 1,18,-1
 773 0 l 1,15,-1
271 0 m 1,19,-1
 271 700 l 1,20,-1
 370 700 l 1,21,-1
 370 0 l 1,22,-1
 271 0 l 1,19,-1
361 312 m 1,23,-1
 361 399 l 1,24,-1
 782 399 l 1,25,-1
 782 312 l 1,26,-1
 361 312 l 1,23,-1
EndSplineSet
Substitution2: "'c2sc' Capitals to Small Capitals lookup 45 subtable" uni0266.sc
Substitution2: "'aalt' Access All Alternates lookup 0 subtable" uni0266.sc
EndChar

StartChar: uniA78D
Encoding: 42893 42893 133
Width: 753
GlyphClass: 2
Flags: W
AnchorPoint: "Anchor-3" 352 700 basechar 0
AnchorPoint: "Anchor-0" 351 0 basechar 0
LayerCount: 2
Fore
SplineSet
648 700 m 1,0,-1
 648 0 l 1,1,-1
 552 0 l 1,2,-1
 552 398 l 1,3,-1
 580 382 l 1,4,5
 547 297 547 297 480.5 258 c 128,-1,6
 414 219 414 219 322 219 c 0,7,8
 198 219 198 219 126 294.5 c 128,-1,9
 54 370 54 370 54 512 c 2,10,-1
 54 700 l 1,11,-1
 153 700 l 1,12,-1
 153 515 l 2,13,14
 153 411 153 411 204 359.5 c 128,-1,15
 255 308 255 308 342 308 c 0,16,17
 435 308 435 308 491.5 362.5 c 128,-1,18
 548 417 548 417 548 530 c 2,19,-1
 548 700 l 1,20,-1
 648 700 l 1,0,-1
EndSplineSet
Substitution2: "'c2sc' Capitals to Small Capitals lookup 45 subtable" uni0265.sc
Substitution2: "'aalt' Access All Alternates lookup 0 subtable" uni0265.sc
EndChar

StartChar: I
Encoding: 73 73 134
Width: 310
GlyphClass: 2
Flags: W
AnchorPoint: "Anchor-3" 155 700 basechar 0
AnchorPoint: "Anchor-2" 205 0 basechar 0
AnchorPoint: "Anchor-1" 155 350 basechar 0
AnchorPoint: "Anchor-0" 155 0 basechar 0
LayerCount: 2
Fore
SplineSet
105 0 m 1,0,-1
 105 700 l 1,1,-1
 205 700 l 1,2,-1
 205 0 l 1,3,-1
 105 0 l 1,0,-1
EndSplineSet
Substitution2: "'ss01' Style Set 1 lookup 50 subtable" I.ss01
Substitution2: "'c2sc' Capitals to Small Capitals lookup 45 subtable" i.sc
AlternateSubs2: "'aalt' Access All Alternates lookup 1 subtable" i.sc I.ss01
EndChar

StartChar: IJ
Encoding: 306 306 135
Width: 720
GlyphClass: 2
Flags: W
AnchorPoint: "Anchor-3" 153 700 basechar 0
LayerCount: 2
Fore
SplineSet
327 -8 m 0,0,1
 256 -8 256 -8 194.5 11.5 c 128,-1,2
 133 31 133 31 87 63 c 1,3,-1
 126 143 l 1,4,5
 169 113 169 113 221.5 97 c 128,-1,6
 274 81 274 81 329 81 c 0,7,8
 421 81 421 81 471 135 c 128,-1,9
 521 189 521 189 521 302 c 2,10,-1
 521 700 l 1,11,-1
 621 700 l 1,12,-1
 621 307 l 2,13,14
 621 203 621 203 584 133 c 128,-1,15
 547 63 547 63 481.5 27.5 c 128,-1,16
 416 -8 416 -8 327 -8 c 0,0,1
99 309 m 1,17,-1
 99 700 l 1,18,-1
 199 700 l 1,19,-1
 199 309 l 1,20,-1
 99 309 l 1,17,-1
EndSplineSet
Substitution2: "'ss01' Style Set 1 lookup 50 subtable" IJ.ss01
Substitution2: "'c2sc' Capitals to Small Capitals lookup 45 subtable" ij.sc
AlternateSubs2: "'aalt' Access All Alternates lookup 1 subtable" ij.sc IJ.ss01
EndChar

StartChar: Iacute_J.loclNLD
Encoding: 65537 -1 136
Width: 720
GlyphClass: 1
Flags: W
LayerCount: 2
Fore
SplineSet
327 -6 m 0,0,1
 256 -6 256 -6 194.5 14.5 c 128,-1,2
 133 35 133 35 87 67 c 1,3,-1
 126 146 l 1,4,5
 169 115 169 115 220.5 99 c 128,-1,6
 272 83 272 83 324 83 c 0,7,8
 419 83 419 83 470 137 c 128,-1,9
 521 191 521 191 521 304 c 2,10,-1
 521 700 l 1,11,-1
 621 700 l 1,12,-1
 621 308 l 2,13,14
 621 205 621 205 584 135.5 c 128,-1,15
 547 66 547 66 481.5 30 c 128,-1,16
 416 -6 416 -6 327 -6 c 0,0,1
99 309 m 1,17,-1
 99 700 l 1,18,-1
 199 700 l 1,19,-1
 199 309 l 1,20,-1
 99 309 l 1,17,-1
101 757 m 1,21,-1
 238 887 l 1,22,-1
 343 887 l 1,23,-1
 175 757 l 1,24,-1
 101 757 l 1,21,-1
523 757 m 1,25,-1
 660 887 l 1,26,-1
 765 887 l 1,27,-1
 597 757 l 1,28,-1
 523 757 l 1,25,-1
EndSplineSet
Substitution2: "'ss01' Style Set 1 lookup 50 subtable" Iacute_J.loclNLD.ss01
Substitution2: "'c2sc' Capitals to Small Capitals lookup 45 subtable" iacute_j.loclNLD.sc
Ligature2: "'locl' Localized Forms in Latin lookup 16 subtable" Iacute J
AlternateSubs2: "'aalt' Access All Alternates lookup 1 subtable" iacute_j.loclNLD.sc Iacute_J.loclNLD.ss01
EndChar

StartChar: uni0196
Encoding: 406 406 151
Width: 382
GlyphClass: 2
Flags: W
AnchorPoint: "Anchor-3" 149 700 basechar 0
AnchorPoint: "Anchor-2" 317 0 basechar 0
AnchorPoint: "Anchor-0" 235 0 basechar 0
LayerCount: 2
Fore
SplineSet
267 -8 m 1,0,-1
 267 -8 l 1,1,2
 224 -8 224 -8 185.5 10 c 128,-1,3
 147 28 147 28 123 66.5 c 128,-1,4
 99 105 99 105 99 163 c 2,5,-1
 99 700 l 1,6,-1
 198 700 l 1,7,-1
 198 163 l 2,8,9
 198 121 198 121 222.5 99.5 c 128,-1,10
 247 78 247 78 280 78 c 0,11,12
 299 78 299 78 318.5 84 c 128,-1,13
 338 90 338 90 357 102 c 1,14,-1
 388 28 l 1,15,16
 361 11 361 11 329.5 1.5 c 128,-1,17
 298 -8 298 -8 267 -8 c 1,0,-1
EndSplineSet
Substitution2: "'c2sc' Capitals to Small Capitals lookup 45 subtable" uni0269.sc
Substitution2: "'aalt' Access All Alternates lookup 0 subtable" uni0269.sc
EndChar

StartChar: uni0197
Encoding: 407 407 152
Width: 338
GlyphClass: 2
Flags: W
AnchorPoint: "Anchor-3" 169 700 basechar 0
AnchorPoint: "Anchor-2" 219 0 basechar 0
AnchorPoint: "Anchor-0" 169 0 basechar 0
LayerCount: 2
Fore
SplineSet
119 0 m 1,0,-1
 119 700 l 1,1,-1
 219 700 l 1,2,-1
 219 0 l 1,3,-1
 119 0 l 1,0,-1
16 319 m 1,4,-1
 16 398 l 1,5,-1
 322 398 l 1,6,-1
 322 319 l 1,7,-1
 16 319 l 1,4,-1
EndSplineSet
Substitution2: "'ss01' Style Set 1 lookup 50 subtable" uni0197.ss01
Substitution2: "'c2sc' Capitals to Small Capitals lookup 45 subtable" uni0268.sc
AlternateSubs2: "'aalt' Access All Alternates lookup 1 subtable" uni0268.sc uni0197.ss01
EndChar

StartChar: J
Encoding: 74 74 155
Width: 513
GlyphClass: 2
Flags: W
AnchorPoint: "Anchor-3" 239 700 basechar 0
LayerCount: 2
Fore
SplineSet
195 -8 m 0,0,1
 133 -8 133 -8 79 18 c 128,-1,2
 25 44 25 44 -9 93 c 1,3,-1
 49 161 l 1,4,5
 78 121 78 121 114.5 99.5 c 128,-1,6
 151 78 151 78 195 78 c 0,7,8
 315 78 315 78 315 220 c 2,9,-1
 315 613 l 1,10,-1
 62 613 l 1,11,-1
 62 700 l 1,12,-1
 414 700 l 1,13,-1
 414 225 l 2,14,15
 414 108 414 108 358.5 50 c 128,-1,16
 303 -8 303 -8 195 -8 c 0,0,1
EndSplineSet
Substitution2: "'ss01' Style Set 1 lookup 50 subtable" J.ss01
Substitution2: "'c2sc' Capitals to Small Capitals lookup 45 subtable" j.sc
AlternateSubs2: "'aalt' Access All Alternates lookup 1 subtable" j.sc J.ss01
EndChar

StartChar: uniA7B2
Encoding: 42930 42930 157
Width: 511
GlyphClass: 2
Flags: W
AnchorPoint: "Anchor-3" 236 700 basechar 0
LayerCount: 2
Fore
SplineSet
196 -8 m 0,0,1
 146 -8 146 -8 105.5 9 c 128,-1,2
 65 26 65 26 41 59.5 c 128,-1,3
 17 93 17 93 17 138 c 0,4,5
 17 175 17 175 35.5 208.5 c 128,-1,6
 54 242 54 242 99 263.5 c 128,-1,7
 144 285 144 285 221 285 c 2,8,-1
 490 285 l 1,9,-1
 490 205 l 1,10,-1
 221 205 l 2,11,12
 175 205 175 205 150.5 194 c 128,-1,13
 126 183 126 183 118 167 c 128,-1,14
 110 151 110 151 110 137 c 0,15,16
 110 118 110 118 120.5 103.5 c 128,-1,17
 131 89 131 89 150 80.5 c 128,-1,18
 169 72 169 72 195 72 c 0,19,20
 222 72 222 72 248.5 84 c 128,-1,21
 275 96 275 96 292.5 124 c 128,-1,22
 310 152 310 152 310 201 c 2,23,-1
 312 613 l 1,24,-1
 60 613 l 1,25,-1
 60 700 l 1,26,-1
 412 700 l 1,27,-1
 409 201 l 2,28,29
 409 126 409 126 377.5 80 c 128,-1,30
 346 34 346 34 297.5 13 c 128,-1,31
 249 -8 249 -8 196 -8 c 0,0,1
EndSplineSet
Substitution2: "'ss01' Style Set 1 lookup 50 subtable" uniA7B2.ss01
Substitution2: "'c2sc' Capitals to Small Capitals lookup 45 subtable" uni029D.sc
AlternateSubs2: "'aalt' Access All Alternates lookup 1 subtable" uni029D.sc uniA7B2.ss01
EndChar

StartChar: uni0248
Encoding: 584 584 158
Width: 518
GlyphClass: 2
Flags: W
AnchorPoint: "Anchor-3" 239 700 basechar 0
LayerCount: 2
Fore
SplineSet
195 -8 m 0,0,1
 133 -8 133 -8 79 18 c 128,-1,2
 25 44 25 44 -9 93 c 1,3,-1
 49 161 l 1,4,5
 78 121 78 121 114.5 99.5 c 128,-1,6
 151 78 151 78 195 78 c 0,7,8
 315 78 315 78 315 220 c 2,9,-1
 315 613 l 1,10,-1
 62 613 l 1,11,-1
 62 700 l 1,12,-1
 414 700 l 1,13,-1
 414 225 l 2,14,15
 414 108 414 108 358.5 50 c 128,-1,16
 303 -8 303 -8 195 -8 c 0,0,1
162 319 m 1,17,-1
 162 398 l 1,18,-1
 517 398 l 1,19,-1
 517 319 l 1,20,-1
 162 319 l 1,17,-1
EndSplineSet
Substitution2: "'ss01' Style Set 1 lookup 50 subtable" uni0248.ss01
Substitution2: "'c2sc' Capitals to Small Capitals lookup 45 subtable" uni0249.sc
AlternateSubs2: "'aalt' Access All Alternates lookup 1 subtable" uni0249.sc uni0248.ss01
EndChar

StartChar: K
Encoding: 75 75 159
Width: 719
GlyphClass: 2
Flags: W
AnchorPoint: "Anchor-3" 375 700 basechar 0
AnchorPoint: "Anchor-0" 375 0 basechar 0
LayerCount: 2
Fore
SplineSet
193 169 m 1,0,-1
 188 291 l 1,1,-1
 585 700 l 1,2,-1
 699 700 l 1,3,-1
 392 376 l 1,4,-1
 336 314 l 1,5,-1
 193 169 l 1,0,-1
105 0 m 1,6,-1
 105 700 l 1,7,-1
 205 700 l 1,8,-1
 205 0 l 1,9,-1
 105 0 l 1,6,-1
601 0 m 1,10,-1
 314 334 l 1,11,-1
 381 408 l 1,12,-1
 718 0 l 1,13,-1
 601 0 l 1,10,-1
EndSplineSet
Substitution2: "'c2sc' Capitals to Small Capitals lookup 45 subtable" k.sc
Substitution2: "'aalt' Access All Alternates lookup 0 subtable" k.sc
EndChar

StartChar: uni0198
Encoding: 408 408 164
Width: 702
GlyphClass: 2
Flags: W
AnchorPoint: "Anchor-3" 375 700 basechar 0
AnchorPoint: "Anchor-0" 375 0 basechar 0
LayerCount: 2
Fore
SplineSet
193 174 m 1,0,-1
 188 297 l 1,1,-1
 500 681 l 2,2,3
 534 724 534 724 574 739 c 128,-1,4
 614 754 614 754 652.5 746.5 c 128,-1,5
 691 739 691 739 723 713 c 1,6,-1
 676 646 l 1,7,8
 652 667 652 667 620 664.5 c 128,-1,9
 588 662 588 662 560 627 c 2,10,-1
 193 174 l 1,0,-1
105 0 m 1,11,-1
 105 700 l 1,12,-1
 205 700 l 1,13,-1
 205 0 l 1,14,-1
 105 0 l 1,11,-1
601 0 m 1,15,-1
 312 337 l 1,16,-1
 378 411 l 1,17,-1
 718 0 l 1,18,-1
 601 0 l 1,15,-1
EndSplineSet
Substitution2: "'c2sc' Capitals to Small Capitals lookup 45 subtable" uni0199.sc
Substitution2: "'aalt' Access All Alternates lookup 0 subtable" uni0199.sc
EndChar

StartChar: uniA740
Encoding: 42816 42816 166
Width: 719
GlyphClass: 2
Flags: W
AnchorPoint: "Anchor-3" 371 700 basechar 0
AnchorPoint: "Anchor-0" 371 0 basechar 0
LayerCount: 2
Fore
SplineSet
193 169 m 1,0,-1
 188 291 l 1,1,-1
 585 700 l 1,2,-1
 699 700 l 1,3,-1
 193 169 l 1,0,-1
105 0 m 1,4,-1
 105 700 l 1,5,-1
 205 700 l 1,6,-1
 205 0 l 1,7,-1
 105 0 l 1,4,-1
601 0 m 1,8,-1
 314 334 l 1,9,-1
 381 408 l 1,10,-1
 718 0 l 1,11,-1
 601 0 l 1,8,-1
2 528 m 1,12,-1
 2 605 l 1,13,-1
 358 605 l 1,14,-1
 358 528 l 1,15,-1
 2 528 l 1,12,-1
EndSplineSet
Substitution2: "'c2sc' Capitals to Small Capitals lookup 45 subtable" uniA741.sc
Substitution2: "'aalt' Access All Alternates lookup 0 subtable" uniA741.sc
EndChar

StartChar: L
Encoding: 76 76 167
Width: 594
GlyphClass: 2
Flags: W
AnchorPoint: "Anchor-4" 438 700 basechar 0
AnchorPoint: "Anchor-3" 155 700 basechar 0
AnchorPoint: "Anchor-1" 155 358 basechar 0
AnchorPoint: "Anchor-0" 345 0 basechar 0
LayerCount: 2
Fore
SplineSet
105 0 m 1,0,-1
 105 700 l 1,1,-1
 205 700 l 1,2,-1
 205 87 l 1,3,-1
 584 87 l 1,4,-1
 584 0 l 1,5,-1
 105 0 l 1,0,-1
EndSplineSet
Substitution2: "'c2sc' Capitals to Small Capitals lookup 45 subtable" l.sc
Substitution2: "'aalt' Access All Alternates lookup 0 subtable" l.sc
EndChar

StartChar: uni023D
Encoding: 573 573 170
Width: 603
GlyphClass: 2
Flags: W
AnchorPoint: "Anchor-4" 447 700 basechar 0
AnchorPoint: "Anchor-3" 164 700 basechar 0
AnchorPoint: "Anchor-1" 164 358 basechar 0
AnchorPoint: "Anchor-0" 355 0 basechar 0
LayerCount: 2
Fore
SplineSet
115 0 m 1,0,-1
 115 700 l 1,1,-1
 214 700 l 1,2,-1
 214 87 l 1,3,-1
 594 87 l 1,4,-1
 594 0 l 1,5,-1
 115 0 l 1,0,-1
12 319 m 1,6,-1
 12 398 l 1,7,-1
 367 398 l 1,8,-1
 367 319 l 1,9,-1
 12 319 l 1,6,-1
EndSplineSet
Substitution2: "'c2sc' Capitals to Small Capitals lookup 45 subtable" uni019A.sc
Substitution2: "'aalt' Access All Alternates lookup 0 subtable" uni019A.sc
EndChar

StartChar: uniA7AD
Encoding: 42925 42925 171
Width: 652
GlyphClass: 2
Flags: W
AnchorPoint: "Anchor-4" 496 700 basechar 0
AnchorPoint: "Anchor-3" 214 700 basechar 0
AnchorPoint: "Anchor-1" 214 376 basechar 0
AnchorPoint: "Anchor-0" 415 0 basechar 0
LayerCount: 2
Fore
SplineSet
164 0 m 1,0,-1
 164 700 l 1,1,-1
 263 700 l 1,2,-1
 263 87 l 1,3,-1
 643 87 l 1,4,-1
 643 0 l 1,5,-1
 164 0 l 1,0,-1
139 319 m 2,6,7
 83 319 83 319 48 337.5 c 128,-1,8
 13 356 13 356 -3 384.5 c 128,-1,9
 -19 413 -19 413 -19 445 c 0,10,11
 -19 480 -19 480 -2.5 505 c 128,-1,12
 14 530 14 530 40 543.5 c 128,-1,13
 66 557 66 557 95 557 c 0,14,15
 125 557 125 557 152.5 541 c 128,-1,16
 180 525 180 525 197.5 490 c 128,-1,17
 215 455 215 455 215 398 c 1,18,-1
 164 398 l 1,19,20
 164 445 164 445 143 466 c 128,-1,21
 122 487 122 487 100 487 c 0,22,23
 83 487 83 487 72.5 476 c 128,-1,24
 62 465 62 465 62 450 c 0,25,26
 62 431 62 431 79.5 414.5 c 128,-1,27
 97 398 97 398 142 398 c 2,28,-1
 480 398 l 1,29,-1
 481 319 l 1,30,-1
 139 319 l 2,6,7
EndSplineSet
Substitution2: "'c2sc' Capitals to Small Capitals lookup 45 subtable" uni026C.sc
Substitution2: "'aalt' Access All Alternates lookup 0 subtable" uni026C.sc
EndChar

StartChar: uni2C60
Encoding: 11360 11360 178
Width: 634
GlyphClass: 1
Flags: W
LayerCount: 2
Fore
SplineSet
146 0 m 1,0,-1
 146 700 l 1,1,-1
 245 700 l 1,2,-1
 245 87 l 1,3,-1
 625 87 l 1,4,-1
 625 0 l 1,5,-1
 146 0 l 1,0,-1
43 273 m 1,6,-1
 43 351 l 1,7,-1
 398 351 l 1,8,-1
 398 273 l 1,9,-1
 43 273 l 1,6,-1
43 433 m 1,10,-1
 43 510 l 1,11,-1
 398 510 l 1,12,-1
 398 433 l 1,13,-1
 43 433 l 1,10,-1
EndSplineSet
Substitution2: "'c2sc' Capitals to Small Capitals lookup 45 subtable" uni2C61.sc
Substitution2: "'aalt' Access All Alternates lookup 0 subtable" uni2C61.sc
EndChar

StartChar: uni2C62
Encoding: 11362 11362 181
Width: 604
GlyphClass: 2
Flags: W
AnchorPoint: "Anchor-4" 448 700 basechar 0
AnchorPoint: "Anchor-3" 165 700 basechar 0
AnchorPoint: "Anchor-0" 355 0 basechar 0
LayerCount: 2
Fore
SplineSet
115 0 m 1,0,-1
 115 700 l 1,1,-1
 215 700 l 1,2,-1
 215 87 l 1,3,-1
 594 87 l 1,4,-1
 594 0 l 1,5,-1
 115 0 l 1,0,-1
266 327 m 0,6,7
 242 327 242 327 216 337 c 128,-1,8
 190 347 190 347 166.5 360.5 c 128,-1,9
 143 374 143 374 122 384 c 128,-1,10
 101 394 101 394 85 394 c 0,11,12
 64 394 64 394 51 376.5 c 128,-1,13
 38 359 38 359 37 332 c 1,14,-1
 -18 332 l 1,15,16
 -16 388 -16 388 10.5 421 c 128,-1,17
 37 454 37 454 80 454 c 0,18,19
 105 454 105 454 130.5 443.5 c 128,-1,20
 156 433 156 433 180 419.5 c 128,-1,21
 204 406 204 406 224.5 396 c 128,-1,22
 245 386 245 386 261 386 c 0,23,24
 282 386 282 386 295 403.5 c 128,-1,25
 308 421 308 421 309 446 c 1,26,-1
 364 446 l 1,27,28
 363 393 363 393 336 360 c 128,-1,29
 309 327 309 327 266 327 c 0,6,7
EndSplineSet
Substitution2: "'c2sc' Capitals to Small Capitals lookup 45 subtable" uni026B.sc
Substitution2: "'aalt' Access All Alternates lookup 0 subtable" uni026B.sc
EndChar

StartChar: M
Encoding: 77 77 183
Width: 955
GlyphClass: 2
Flags: W
AnchorPoint: "Anchor-3" 477 700 basechar 0
AnchorPoint: "Anchor-0" 477 0 basechar 0
LayerCount: 2
Fore
SplineSet
105 0 m 1,0,-1
 105 700 l 1,1,-1
 187 700 l 1,2,-1
 501 171 l 1,3,-1
 457 171 l 1,4,-1
 767 700 l 1,5,-1
 849 700 l 1,6,-1
 850 0 l 1,7,-1
 754 0 l 1,8,-1
 753 549 l 1,9,-1
 776 549 l 1,10,-1
 500 85 l 1,11,-1
 454 85 l 1,12,-1
 176 549 l 1,13,-1
 201 549 l 1,14,-1
 201 0 l 1,15,-1
 105 0 l 1,0,-1
EndSplineSet
Substitution2: "'ss01' Style Set 1 lookup 50 subtable" M.ss01
Substitution2: "'c2sc' Capitals to Small Capitals lookup 45 subtable" m.sc
AlternateSubs2: "'aalt' Access All Alternates lookup 1 subtable" m.sc M.ss01
EndChar

StartChar: uni2C6E
Encoding: 11374 11374 187
Width: 967
GlyphClass: 2
Flags: W
AnchorPoint: "Anchor-3" 489 700 basechar 0
AnchorPoint: "Anchor-0" 489 0 basechar 0
LayerCount: 2
Fore
SplineSet
583 -167 m 1,0,-1
 617 -92 l 1,1,2
 641 -109 641 -109 667.5 -114 c 128,-1,3
 694 -119 694 -119 716 -111.5 c 128,-1,4
 738 -104 738 -104 751.5 -84.5 c 128,-1,5
 765 -65 765 -65 765 -32 c 2,6,-1
 765 549 l 1,7,-1
 787 549 l 1,8,-1
 512 85 l 1,9,-1
 466 85 l 1,10,-1
 188 549 l 1,11,-1
 213 549 l 1,12,-1
 213 0 l 1,13,-1
 117 0 l 1,14,-1
 117 700 l 1,15,-1
 199 700 l 1,16,-1
 512 171 l 1,17,-1
 469 171 l 1,18,-1
 779 700 l 1,19,-1
 861 700 l 1,20,-1
 861 -35 l 2,21,22
 861 -85 861 -85 843 -120 c 128,-1,23
 825 -155 825 -155 795.5 -175 c 128,-1,24
 766 -195 766 -195 729.5 -200 c 128,-1,25
 693 -205 693 -205 655 -196.5 c 128,-1,26
 617 -188 617 -188 583 -167 c 1,0,-1
EndSplineSet
Substitution2: "'c2sc' Capitals to Small Capitals lookup 45 subtable" uni0271.sc
Substitution2: "'aalt' Access All Alternates lookup 0 subtable" uni0271.sc
EndChar

StartChar: uni019C
Encoding: 412 412 188
Width: 1227
GlyphClass: 2
Flags: W
AnchorPoint: "Anchor-3" 610 700 basechar 0
AnchorPoint: "Anchor-0" 610 0 basechar 0
LayerCount: 2
Fore
SplineSet
1121 700 m 1,0,-1
 1121 0 l 1,1,-1
 1025 0 l 1,2,-1
 1025 140 l 1,3,-1
 1038 126 l 1,4,5
 1011 63 1011 63 950.5 27.5 c 128,-1,6
 890 -8 890 -8 807 -8 c 0,7,8
 717 -8 717 -8 656.5 32 c 128,-1,9
 596 72 596 72 576 140 c 1,10,-1
 603 139 l 1,11,12
 575 68 575 68 509.5 30 c 128,-1,13
 444 -8 444 -8 357 -8 c 0,14,15
 237 -8 237 -8 168 61 c 128,-1,16
 99 130 99 130 99 265 c 2,17,-1
 99 700 l 1,18,-1
 199 700 l 1,19,-1
 199 268 l 2,20,21
 199 172 199 172 248 126.5 c 128,-1,22
 297 81 297 81 373 81 c 0,23,24
 457 81 457 81 509 128.5 c 128,-1,25
 561 176 561 176 561 282 c 2,26,-1
 561 700 l 1,27,-1
 661 700 l 1,28,-1
 661 268 l 2,29,30
 661 172 661 172 708 126.5 c 128,-1,31
 755 81 755 81 831 81 c 0,32,33
 887 81 887 81 929.5 102 c 128,-1,34
 972 123 972 123 997 167.5 c 128,-1,35
 1022 212 1022 212 1022 282 c 2,36,-1
 1022 700 l 1,37,-1
 1121 700 l 1,0,-1
EndSplineSet
Substitution2: "'c2sc' Capitals to Small Capitals lookup 45 subtable" uni026F.sc
Substitution2: "'aalt' Access All Alternates lookup 0 subtable" uni026F.sc
EndChar

StartChar: N
Encoding: 78 78 189
Width: 812
GlyphClass: 2
Flags: W
AnchorPoint: "Anchor-3" 405 700 basechar 0
AnchorPoint: "Anchor-0" 405 0 basechar 0
LayerCount: 2
Fore
SplineSet
105 0 m 1,0,-1
 105 700 l 1,1,-1
 187 700 l 1,2,-1
 650 125 l 1,3,-1
 607 125 l 1,4,-1
 607 700 l 1,5,-1
 707 700 l 1,6,-1
 707 0 l 1,7,-1
 625 0 l 1,8,-1
 162 575 l 1,9,-1
 205 575 l 1,10,-1
 205 0 l 1,11,-1
 105 0 l 1,0,-1
EndSplineSet
Substitution2: "'ss01' Style Set 1 lookup 50 subtable" N.ss01
Substitution2: "'c2sc' Capitals to Small Capitals lookup 45 subtable" n.sc
AlternateSubs2: "'aalt' Access All Alternates lookup 1 subtable" n.sc N.ss01
EndChar

StartChar: uni019D
Encoding: 413 413 198
Width: 813
GlyphClass: 2
Flags: W
AnchorPoint: "Anchor-3" 417 700 basechar 0
AnchorPoint: "Anchor-0" 416 0 basechar 0
LayerCount: 2
Fore
SplineSet
-25 -185 m 1,0,-1
 3 -107 l 1,1,2
 31 -117 31 -117 57.5 -113 c 128,-1,3
 84 -109 84 -109 102 -89 c 128,-1,4
 120 -69 120 -69 120 -33 c 2,5,-1
 120 700 l 1,6,-1
 216 700 l 1,7,-1
 216 529 l 1,8,-1
 188 545 l 1,9,10
 220 630 220 630 286.5 669 c 128,-1,11
 353 708 353 708 446 708 c 0,12,13
 571 708 571 708 642.5 632.5 c 128,-1,14
 714 557 714 557 714 415 c 2,15,-1
 714 0 l 1,16,-1
 614 0 l 1,17,-1
 614 412 l 2,18,19
 614 516 614 516 563 567.5 c 128,-1,20
 512 619 512 619 425 619 c 0,21,22
 332 619 332 619 275.5 564.5 c 128,-1,23
 219 510 219 510 219 397 c 2,24,-1
 219 -33 l 2,25,26
 219 -87 219 -87 196.5 -124.5 c 128,-1,27
 174 -162 174 -162 138.5 -181 c 128,-1,28
 103 -200 103 -200 60 -201 c 128,-1,29
 17 -202 17 -202 -25 -185 c 1,0,-1
EndSplineSet
Substitution2: "'c2sc' Capitals to Small Capitals lookup 45 subtable" uni0272.sc
Substitution2: "'aalt' Access All Alternates lookup 0 subtable" uni0272.sc
EndChar

StartChar: uni0220
Encoding: 544 544 201
Width: 810
GlyphClass: 2
Flags: W
AnchorPoint: "Anchor-3" 414 700 basechar 0
AnchorPoint: "Anchor-0" 412 0 basechar 0
LayerCount: 2
Fore
SplineSet
611 -194 m 1,0,-1
 611 412 l 2,1,2
 611 516 611 516 560 567.5 c 128,-1,3
 509 619 509 619 422 619 c 0,4,5
 329 619 329 619 272.5 564.5 c 128,-1,6
 216 510 216 510 216 397 c 2,7,-1
 216 0 l 1,8,-1
 117 0 l 1,9,-1
 117 700 l 1,10,-1
 213 700 l 1,11,-1
 213 529 l 1,12,-1
 184 545 l 1,13,14
 217 630 217 630 283.5 669 c 128,-1,15
 350 708 350 708 442 708 c 0,16,17
 567 708 567 708 639 632.5 c 128,-1,18
 711 557 711 557 711 415 c 2,19,-1
 711 -194 l 1,20,-1
 611 -194 l 1,0,-1
EndSplineSet
EndChar

StartChar: Eng
Encoding: 330 330 203
Width: 812
GlyphClass: 2
Flags: W
AnchorPoint: "Anchor-3" 406 700 basechar 0
AnchorPoint: "Anchor-0" 406 -195 basechar 0
LayerCount: 2
Fore
SplineSet
105 0 m 1,0,-1
 105 700 l 1,1,-1
 187 700 l 1,2,-1
 650 125 l 1,3,-1
 625 0 l 1,4,-1
 162 575 l 1,5,-1
 205 575 l 1,6,-1
 205 0 l 1,7,-1
 105 0 l 1,0,-1
490 -200 m 0,8,9
 437 -200 437 -200 390 -179.5 c 128,-1,10
 343 -159 343 -159 310 -121 c 1,11,-1
 359 -49 l 1,12,13
 383 -79 383 -79 416 -96.5 c 128,-1,14
 449 -114 449 -114 490 -114 c 0,15,16
 549 -114 549 -114 578 -78.5 c 128,-1,17
 607 -43 607 -43 607 29 c 2,18,-1
 607 700 l 1,19,-1
 707 700 l 1,20,-1
 707 42 l 2,21,22
 707 -19 707 -19 693 -64.5 c 128,-1,23
 679 -110 679 -110 652 -140 c 128,-1,24
 625 -170 625 -170 584.5 -185 c 128,-1,25
 544 -200 544 -200 490 -200 c 0,8,9
EndSplineSet
Substitution2: "'ss01' Style Set 1 lookup 50 subtable" Eng.ss01
Substitution2: "'c2sc' Capitals to Small Capitals lookup 45 subtable" eng.sc
Substitution2: "'locl' Localized Forms in Latin lookup 17 subtable" Eng.loclNSM
AlternateSubs2: "'aalt' Access All Alternates lookup 1 subtable" Eng.loclNSM eng.sc Eng.ss01
EndChar

StartChar: O
Encoding: 79 79 204
Width: 840
GlyphClass: 2
Flags: W
AnchorPoint: "Anchor-4" 638 700 basechar 0
AnchorPoint: "Anchor-3" 421 700 basechar 0
AnchorPoint: "Anchor-2" 498 0 basechar 0
AnchorPoint: "Anchor-1" 421 350 basechar 0
AnchorPoint: "Anchor-0" 421 0 basechar 0
LayerCount: 2
Fore
SplineSet
421 -8 m 256,0,1
 341 -8 341 -8 272.5 19 c 128,-1,2
 204 46 204 46 154 94.5 c 128,-1,3
 104 143 104 143 76 208 c 128,-1,4
 48 273 48 273 48 350 c 256,5,6
 48 427 48 427 76 492 c 128,-1,7
 104 557 104 557 154 605.5 c 128,-1,8
 204 654 204 654 272 681 c 128,-1,9
 340 708 340 708 421 708 c 0,10,11
 501 708 501 708 568.5 681.5 c 128,-1,12
 636 655 636 655 686.5 606.5 c 128,-1,13
 737 558 737 558 764.5 493 c 128,-1,14
 792 428 792 428 792 350 c 256,15,16
 792 272 792 272 764.5 207 c 128,-1,17
 737 142 737 142 686.5 93.5 c 128,-1,18
 636 45 636 45 568.5 18.5 c 128,-1,19
 501 -8 501 -8 421 -8 c 256,0,1
421 81 m 0,20,21
 479 81 479 81 528.5 101 c 128,-1,22
 578 121 578 121 614.5 157.5 c 128,-1,23
 651 194 651 194 671.5 243 c 128,-1,24
 692 292 692 292 692 350 c 256,25,26
 692 408 692 408 671.5 457 c 128,-1,27
 651 506 651 506 614.5 542.5 c 128,-1,28
 578 579 578 579 528.5 599 c 128,-1,29
 479 619 479 619 421 619 c 0,30,31
 362 619 362 619 312.5 599 c 128,-1,32
 263 579 263 579 226 542.5 c 128,-1,33
 189 506 189 506 168.5 457 c 128,-1,34
 148 408 148 408 148 350 c 256,35,36
 148 292 148 292 168.5 243 c 128,-1,37
 189 194 189 194 226 157.5 c 128,-1,38
 263 121 263 121 312.5 101 c 128,-1,39
 362 81 362 81 421 81 c 0,20,21
EndSplineSet
Substitution2: "'c2sc' Capitals to Small Capitals lookup 45 subtable" o.sc
Substitution2: "Single Substitution lookup 39 subtable" ordmasculine
AlternateSubs2: "'aalt' Access All Alternates lookup 1 subtable" ordmasculine o.sc
EndChar

StartChar: uni0222
Encoding: 546 546 205
Width: 737
GlyphClass: 1
Flags: W
LayerCount: 2
Fore
SplineSet
367 -8 m 0,0,1
 271 -8 271 -8 200.5 20.5 c 128,-1,2
 130 49 130 49 91 102 c 128,-1,3
 52 155 52 155 52 227 c 0,4,5
 52 296 52 296 91 345.5 c 128,-1,6
 130 395 130 395 200.5 422.5 c 128,-1,7
 271 450 271 450 367 450 c 0,8,9
 465 450 465 450 536 422.5 c 128,-1,10
 607 395 607 395 645.5 345.5 c 128,-1,11
 684 296 684 296 684 227 c 0,12,13
 684 155 684 155 645.5 102 c 128,-1,14
 607 49 607 49 536 20.5 c 128,-1,15
 465 -8 465 -8 367 -8 c 0,0,1
367 78 m 0,16,17
 468 78 468 78 526 119 c 128,-1,18
 584 160 584 160 584 229 c 0,19,20
 584 299 584 299 526 340 c 128,-1,21
 468 381 468 381 367 381 c 0,22,23
 302 381 302 381 253.5 362.5 c 128,-1,24
 205 344 205 344 179 310 c 128,-1,25
 153 276 153 276 153 230 c 0,26,27
 153 183 153 183 179 149 c 128,-1,28
 205 115 205 115 253.5 96.5 c 128,-1,29
 302 78 302 78 367 78 c 0,16,17
367 392 m 0,30,31
 277 392 277 392 213 417.5 c 128,-1,32
 149 443 149 443 115 490 c 128,-1,33
 81 537 81 537 81 602 c 2,34,-1
 81 700 l 1,35,-1
 181 700 l 1,36,-1
 181 602 l 2,37,38
 181 536 181 536 230 498 c 128,-1,39
 279 460 279 460 367 460 c 0,40,41
 456 460 456 460 506 498 c 128,-1,42
 556 536 556 536 556 602 c 2,43,-1
 556 700 l 1,44,-1
 655 700 l 1,45,-1
 655 602 l 2,46,47
 655 537 655 537 621 490 c 128,-1,48
 587 443 587 443 522.5 417.5 c 128,-1,49
 458 392 458 392 367 392 c 0,30,31
EndSplineSet
Substitution2: "'c2sc' Capitals to Small Capitals lookup 45 subtable" uni0223.sc
Substitution2: "'aalt' Access All Alternates lookup 0 subtable" uni0223.sc
EndChar

StartChar: Ohorn
Encoding: 416 416 224
Width: 840
GlyphClass: 2
Flags: W
AnchorPoint: "Anchor-3" 421 700 basechar 0
AnchorPoint: "Anchor-0" 421 0 basechar 0
LayerCount: 2
Fore
SplineSet
421 -8 m 0,0,1
 340 -8 340 -8 272 19 c 128,-1,2
 204 46 204 46 154 94.5 c 128,-1,3
 104 143 104 143 76 208 c 128,-1,4
 48 273 48 273 48 350 c 0,5,6
 48 428 48 428 76 493 c 128,-1,7
 104 558 104 558 154.5 606.5 c 128,-1,8
 205 655 205 655 274 681.5 c 128,-1,9
 343 708 343 708 424 708 c 0,10,11
 484 708 484 708 529 701 c 128,-1,12
 574 694 574 694 616 694 c 0,13,14
 662 694 662 694 686.5 712.5 c 128,-1,15
 711 731 711 731 711 767 c 0,16,17
 711 785 711 785 705 800.5 c 128,-1,18
 699 816 699 816 691 829 c 1,19,-1
 751 853 l 1,20,21
 764 834 764 834 771.5 811 c 128,-1,22
 779 788 779 788 779 763 c 0,23,24
 779 701 779 701 735.5 666 c 128,-1,25
 692 631 692 631 612 631 c 0,26,27
 583 631 583 631 550.5 634.5 c 128,-1,28
 518 638 518 638 489 642 c 1,29,-1
 614 657 l 1,30,31
 667 630 667 630 707 584 c 128,-1,32
 747 538 747 538 769.5 478 c 128,-1,33
 792 418 792 418 792 350 c 0,34,35
 792 272 792 272 764.5 207 c 128,-1,36
 737 142 737 142 686.5 93.5 c 128,-1,37
 636 45 636 45 568.5 18.5 c 128,-1,38
 501 -8 501 -8 421 -8 c 0,0,1
421 81 m 0,39,40
 479 81 479 81 528.5 101.5 c 128,-1,41
 578 122 578 122 614.5 158 c 128,-1,42
 651 194 651 194 671.5 243.5 c 128,-1,43
 692 293 692 293 692 350 c 256,44,45
 692 407 692 407 671.5 456.5 c 128,-1,46
 651 506 651 506 614.5 542 c 128,-1,47
 578 578 578 578 528.5 598.5 c 128,-1,48
 479 619 479 619 421 619 c 0,49,50
 362 619 362 619 312.5 599 c 128,-1,51
 263 579 263 579 226 542.5 c 128,-1,52
 189 506 189 506 168.5 457 c 128,-1,53
 148 408 148 408 148 350 c 0,54,55
 148 293 148 293 168.5 243.5 c 128,-1,56
 189 194 189 194 226 157.5 c 128,-1,57
 263 121 263 121 312.5 101 c 128,-1,58
 362 81 362 81 421 81 c 0,39,40
EndSplineSet
Substitution2: "'c2sc' Capitals to Small Capitals lookup 45 subtable" ohorn.sc
Substitution2: "'aalt' Access All Alternates lookup 0 subtable" ohorn.sc
EndChar

StartChar: uniA7B6
Encoding: 42934 42934 235
Width: 1051
GlyphClass: 2
Flags: W
AnchorPoint: "Anchor-3" 525 700 basechar 0
AnchorPoint: "Anchor-0" 525 0 basechar 0
LayerCount: 2
Fore
SplineSet
325 -6 m 0,0,1
 256 -6 256 -6 207 23.5 c 128,-1,2
 158 53 158 53 127 102.5 c 128,-1,3
 96 152 96 152 81 215 c 128,-1,4
 66 278 66 278 66 347 c 0,5,6
 66 444 66 444 94.5 538.5 c 128,-1,7
 123 633 123 633 177 700 c 1,8,-1
 289 700 l 1,9,10
 248 651 248 651 220.5 592 c 128,-1,11
 193 533 193 533 179 470 c 128,-1,12
 165 407 165 407 165 346 c 0,13,14
 165 275 165 275 184 215.5 c 128,-1,15
 203 156 203 156 241 120 c 128,-1,16
 279 84 279 84 336 84 c 0,17,18
 376 84 376 84 407 104.5 c 128,-1,19
 438 125 438 125 455.5 167 c 128,-1,20
 473 209 473 209 473 273 c 2,21,-1
 473 432 l 1,22,-1
 577 432 l 1,23,-1
 577 273 l 2,24,25
 577 208 577 208 595 166.5 c 128,-1,26
 613 125 613 125 644 104.5 c 128,-1,27
 675 84 675 84 716 84 c 0,28,29
 774 84 774 84 811.5 120.5 c 128,-1,30
 849 157 849 157 867 217 c 128,-1,31
 885 277 885 277 885 347 c 0,32,33
 885 407 885 407 872 469 c 128,-1,34
 859 531 859 531 832.5 590.5 c 128,-1,35
 806 650 806 650 764 700 c 1,36,-1
 876 700 l 1,37,38
 913 654 913 654 937 596 c 128,-1,39
 961 538 961 538 973.5 474.5 c 128,-1,40
 986 411 986 411 986 346 c 0,41,42
 986 277 986 277 970.5 214.5 c 128,-1,43
 955 152 955 152 924 102 c 128,-1,44
 893 52 893 52 843.5 23 c 128,-1,45
 794 -6 794 -6 726 -6 c 0,46,47
 659 -6 659 -6 607.5 24 c 128,-1,48
 556 54 556 54 527 110.5 c 128,-1,49
 498 167 498 167 498 246 c 1,50,-1
 553 246 l 1,51,52
 553 167 553 167 524 110.5 c 128,-1,53
 495 54 495 54 443.5 24 c 128,-1,54
 392 -6 392 -6 325 -6 c 0,0,1
EndSplineSet
Substitution2: "'c2sc' Capitals to Small Capitals lookup 45 subtable" uniA7B7.sc
Substitution2: "'aalt' Access All Alternates lookup 0 subtable" uniA7B7.sc
EndChar

StartChar: uni01EA
Encoding: 490 490 236
Width: 840
GlyphClass: 2
Flags: W
AnchorPoint: "Anchor-3" 421 700 basechar 0
LayerCount: 2
Fore
SplineSet
429 -224 m 0,0,1
 373 -224 373 -224 341 -196 c 128,-1,2
 309 -168 309 -168 309 -123 c 0,3,4
 309 -96 309 -96 322.5 -68.5 c 128,-1,5
 336 -41 336 -41 367.5 -15 c 128,-1,6
 399 11 399 11 452 32 c 1,7,-1
 455 -6 l 1,8,9
 445 -7 445 -7 436.5 -7.5 c 128,-1,10
 428 -8 428 -8 421 -8 c 0,11,12
 340 -8 340 -8 272.5 18.5 c 128,-1,13
 205 45 205 45 154.5 93.5 c 128,-1,14
 104 142 104 142 76 207 c 128,-1,15
 48 272 48 272 48 350 c 256,16,17
 48 428 48 428 76 493 c 128,-1,18
 104 558 104 558 154.5 606.5 c 128,-1,19
 205 655 205 655 272.5 681.5 c 128,-1,20
 340 708 340 708 421 708 c 0,21,22
 501 708 501 708 568.5 681.5 c 128,-1,23
 636 655 636 655 686.5 606.5 c 128,-1,24
 737 558 737 558 764.5 493 c 128,-1,25
 792 428 792 428 792 350 c 0,26,27
 792 261 792 261 756 190 c 128,-1,28
 720 119 720 119 659.5 72 c 128,-1,29
 599 25 599 25 524 6 c 0,30,31
 479 -5 479 -5 446 -24 c 128,-1,32
 413 -43 413 -43 395 -66 c 128,-1,33
 377 -89 377 -89 377 -116 c 0,34,35
 377 -141 377 -141 395 -154.5 c 128,-1,36
 413 -168 413 -168 439 -168 c 0,37,38
 455 -168 455 -168 471.5 -163 c 128,-1,39
 488 -158 488 -158 500 -151 c 1,40,-1
 519 -200 l 1,41,42
 501 -211 501 -211 477.5 -217.5 c 128,-1,43
 454 -224 454 -224 429 -224 c 0,0,1
421 81 m 0,44,45
 479 81 479 81 528.5 101 c 128,-1,46
 578 121 578 121 614.5 157.5 c 128,-1,47
 651 194 651 194 671.5 243 c 128,-1,48
 692 292 692 292 692 350 c 256,49,50
 692 408 692 408 671.5 457 c 128,-1,51
 651 506 651 506 614.5 542.5 c 128,-1,52
 578 579 578 579 528.5 599 c 128,-1,53
 479 619 479 619 421 619 c 0,54,55
 362 619 362 619 312.5 599 c 128,-1,56
 263 579 263 579 226 542.5 c 128,-1,57
 189 506 189 506 168.5 457 c 128,-1,58
 148 408 148 408 148 350 c 256,59,60
 148 292 148 292 168.5 243 c 128,-1,61
 189 194 189 194 226 157.5 c 128,-1,62
 263 121 263 121 312.5 101 c 128,-1,63
 362 81 362 81 421 81 c 0,44,45
EndSplineSet
Substitution2: "'c2sc' Capitals to Small Capitals lookup 45 subtable" uni01EB.sc
Substitution2: "'locl' Localized Forms in Latin lookup 15 subtable" uni01EA.loclNAV
AlternateSubs2: "'aalt' Access All Alternates lookup 1 subtable" uni01EA.loclNAV uni01EB.sc
EndChar

StartChar: uni0186
Encoding: 390 390 238
Width: 713
GlyphClass: 2
Flags: W
AnchorPoint: "Anchor-3" 301 700 basechar 0
AnchorPoint: "Anchor-2" 354 0 basechar 0
AnchorPoint: "Anchor-1" 564 344 basechar 0
AnchorPoint: "Anchor-0" 301 0 basechar 0
LayerCount: 2
Fore
SplineSet
295 708 m 0,0,1
 374 708 374 708 442 681.5 c 128,-1,2
 510 655 510 655 559.5 606.5 c 128,-1,3
 609 558 609 558 637 493 c 128,-1,4
 665 428 665 428 665 350 c 256,5,6
 665 272 665 272 637 207 c 128,-1,7
 609 142 609 142 559 93.5 c 128,-1,8
 509 45 509 45 441.5 18.5 c 128,-1,9
 374 -8 374 -8 294 -8 c 0,10,11
 213 -8 213 -8 144.5 20 c 128,-1,12
 76 48 76 48 28 101 c 1,13,-1
 92 164 l 1,14,15
 133 122 133 122 183 101.5 c 128,-1,16
 233 81 233 81 290 81 c 0,17,18
 349 81 349 81 399 101 c 128,-1,19
 449 121 449 121 486.5 157 c 128,-1,20
 524 193 524 193 544.5 242.5 c 128,-1,21
 565 292 565 292 565 350 c 256,22,23
 565 408 565 408 544.5 457.5 c 128,-1,24
 524 507 524 507 486.5 543 c 128,-1,25
 449 579 449 579 399 599 c 128,-1,26
 349 619 349 619 290 619 c 0,27,28
 233 619 233 619 183 598.5 c 128,-1,29
 133 578 133 578 92 535 c 1,30,-1
 28 598 l 1,31,32
 76 652 76 652 144.5 680 c 128,-1,33
 213 708 213 708 295 708 c 0,0,1
EndSplineSet
Substitution2: "'c2sc' Capitals to Small Capitals lookup 45 subtable" uni0254.sc
Substitution2: "'aalt' Access All Alternates lookup 0 subtable" uni0254.sc
EndChar

StartChar: OE
Encoding: 338 338 245
Width: 1126
GlyphClass: 2
Flags: W
AnchorPoint: "Anchor-3" 610 700 basechar 0
AnchorPoint: "Anchor-0" 610 0 basechar 0
LayerCount: 2
Fore
SplineSet
426 0 m 2,0,1
 314 0 314 0 229 44 c 128,-1,2
 144 88 144 88 96 166.5 c 128,-1,3
 48 245 48 245 48 349 c 256,4,5
 48 453 48 453 96 532.5 c 128,-1,6
 144 612 144 612 229 656 c 128,-1,7
 314 700 314 700 426 700 c 2,8,-1
 586 700 l 1,9,-1
 586 613 l 1,10,-1
 431 613 l 2,11,12
 346 613 346 613 282 580 c 128,-1,13
 218 547 218 547 183 487.5 c 128,-1,14
 148 428 148 428 148 349 c 0,15,16
 148 271 148 271 183 212 c 128,-1,17
 218 153 218 153 282 120 c 128,-1,18
 346 87 346 87 431 87 c 2,19,-1
 586 87 l 1,20,-1
 586 0 l 1,21,-1
 426 0 l 2,0,1
561 0 m 1,22,-1
 561 700 l 1,23,-1
 1055 700 l 1,24,-1
 1055 613 l 1,25,-1
 660 613 l 1,26,-1
 660 87 l 1,27,-1
 1069 87 l 1,28,-1
 1069 0 l 1,29,-1
 561 0 l 1,22,-1
652 313 m 1,30,-1
 652 398 l 1,31,-1
 1012 398 l 1,32,-1
 1012 313 l 1,33,-1
 652 313 l 1,30,-1
EndSplineSet
Substitution2: "'c2sc' Capitals to Small Capitals lookup 45 subtable" oe.sc
Substitution2: "'aalt' Access All Alternates lookup 0 subtable" oe.sc
EndChar

StartChar: P
Encoding: 80 80 246
Width: 722
GlyphClass: 2
Flags: W
AnchorPoint: "Anchor-3" 361 700 basechar 0
AnchorPoint: "Anchor-0" 361 0 basechar 0
LayerCount: 2
Fore
SplineSet
105 0 m 1,0,-1
 105 700 l 1,1,-1
 378 700 l 2,2,3
 470 700 470 700 535 671 c 128,-1,4
 600 642 600 642 635 587 c 128,-1,5
 670 532 670 532 670 456 c 256,6,7
 670 380 670 380 635 325.5 c 128,-1,8
 600 271 600 271 535 241.5 c 128,-1,9
 470 212 470 212 378 212 c 2,10,-1
 160 212 l 1,11,-1
 205 259 l 1,12,-1
 205 0 l 1,13,-1
 105 0 l 1,0,-1
205 249 m 1,14,-1
 160 299 l 1,15,-1
 375 299 l 2,16,17
 471 299 471 299 520.5 340 c 128,-1,18
 570 381 570 381 570 456 c 256,19,20
 570 531 570 531 520.5 572 c 128,-1,21
 471 613 471 613 375 613 c 2,22,-1
 160 613 l 1,23,-1
 205 663 l 1,24,-1
 205 249 l 1,14,-1
EndSplineSet
Substitution2: "'c2sc' Capitals to Small Capitals lookup 45 subtable" p.sc
Substitution2: "'aalt' Access All Alternates lookup 0 subtable" p.sc
EndChar

StartChar: uni01A4
Encoding: 420 420 249
Width: 888
GlyphClass: 2
Flags: W
AnchorPoint: "Anchor-3" 527 700 basechar 0
AnchorPoint: "Anchor-0" 527 0 basechar 0
LayerCount: 2
Fore
SplineSet
102 383 m 1,0,1
 67 416 67 416 49 458 c 128,-1,2
 31 500 31 500 31.5 542 c 128,-1,3
 32 584 32 584 51.5 620 c 128,-1,4
 71 656 71 656 111 678 c 128,-1,5
 151 700 151 700 213 700 c 2,6,-1
 279 700 l 1,7,-1
 279 613 l 1,8,-1
 214 613 l 2,9,10
 178 613 178 613 157.5 596.5 c 128,-1,11
 137 580 137 580 131.5 553.5 c 128,-1,12
 126 527 126 527 135.5 496.5 c 128,-1,13
 145 466 145 466 170 438 c 1,14,-1
 102 383 l 1,0,1
271 0 m 1,15,-1
 271 700 l 1,16,-1
 544 700 l 2,17,18
 635 700 635 700 700.5 671 c 128,-1,19
 766 642 766 642 801 587 c 128,-1,20
 836 532 836 532 836 456 c 256,21,22
 836 380 836 380 801 325.5 c 128,-1,23
 766 271 766 271 700.5 241.5 c 128,-1,24
 635 212 635 212 544 212 c 2,25,-1
 326 212 l 1,26,-1
 370 259 l 1,27,-1
 370 0 l 1,28,-1
 271 0 l 1,15,-1
370 249 m 1,29,-1
 326 299 l 1,30,-1
 541 299 l 2,31,32
 637 299 637 299 686.5 340 c 128,-1,33
 736 381 736 381 736 456 c 256,34,35
 736 531 736 531 686.5 572 c 128,-1,36
 637 613 637 613 541 613 c 2,37,-1
 326 613 l 1,38,-1
 370 663 l 1,39,-1
 370 249 l 1,29,-1
EndSplineSet
Substitution2: "'c2sc' Capitals to Small Capitals lookup 45 subtable" uni01A5.sc
Substitution2: "'aalt' Access All Alternates lookup 0 subtable" uni01A5.sc
EndChar

StartChar: Thorn
Encoding: 222 222 250
Width: 722
GlyphClass: 1
Flags: W
LayerCount: 2
Fore
SplineSet
181 125 m 1,0,-1
 181 211 l 1,1,-1
 375 211 l 2,2,3
 471 211 471 211 520.5 252.5 c 128,-1,4
 570 294 570 294 570 369 c 0,5,6
 570 445 570 445 520.5 486 c 128,-1,7
 471 527 471 527 375 527 c 2,8,-1
 181 527 l 1,9,-1
 181 614 l 1,10,-1
 378 614 l 2,11,12
 470 614 470 614 535 584.5 c 128,-1,13
 600 555 600 555 635 500.5 c 128,-1,14
 670 446 670 446 670 370 c 256,15,16
 670 294 670 294 635 238.5 c 128,-1,17
 600 183 600 183 535 154 c 128,-1,18
 470 125 470 125 378 125 c 2,19,-1
 181 125 l 1,0,-1
105 0 m 1,20,-1
 105 700 l 1,21,-1
 205 700 l 1,22,-1
 205 0 l 1,23,-1
 105 0 l 1,20,-1
EndSplineSet
Substitution2: "'c2sc' Capitals to Small Capitals lookup 45 subtable" thorn.sc
Substitution2: "'aalt' Access All Alternates lookup 0 subtable" thorn.sc
EndChar

StartChar: uni2C63
Encoding: 11363 11363 251
Width: 730
GlyphClass: 2
Flags: W
LayerCount: 2
Fore
SplineSet
113 0 m 1,0,-1
 113 700 l 1,1,-1
 386 700 l 2,2,3
 477 700 477 700 542.5 671 c 128,-1,4
 608 642 608 642 643 587 c 128,-1,5
 678 532 678 532 678 456 c 256,6,7
 678 380 678 380 643 325.5 c 128,-1,8
 608 271 608 271 542.5 241.5 c 128,-1,9
 477 212 477 212 386 212 c 2,10,-1
 168 212 l 1,11,-1
 212 259 l 1,12,-1
 212 0 l 1,13,-1
 113 0 l 1,0,-1
10 419 m 1,14,-1
 10 496 l 1,15,-1
 365 496 l 1,16,-1
 365 419 l 1,17,-1
 10 419 l 1,14,-1
212 249 m 1,18,-1
 168 299 l 1,19,-1
 383 299 l 2,20,21
 479 299 479 299 528.5 340 c 128,-1,22
 578 381 578 381 578 456 c 256,23,24
 578 531 578 531 528.5 572 c 128,-1,25
 479 613 479 613 383 613 c 2,26,-1
 168 613 l 1,27,-1
 212 663 l 1,28,-1
 212 249 l 1,18,-1
EndSplineSet
Substitution2: "'c2sc' Capitals to Small Capitals lookup 45 subtable" uni1D7D.sc
Substitution2: "'aalt' Access All Alternates lookup 0 subtable" uni1D7D.sc
EndChar

StartChar: Q
Encoding: 81 81 252
Width: 840
GlyphClass: 2
Flags: W
AnchorPoint: "Anchor-3" 421 700 basechar 0
LayerCount: 2
Fore
SplineSet
421 -8 m 256,0,1
 341 -8 341 -8 272.5 19 c 128,-1,2
 204 46 204 46 154 94.5 c 128,-1,3
 104 143 104 143 76 208 c 128,-1,4
 48 273 48 273 48 350 c 256,5,6
 48 427 48 427 76 492 c 128,-1,7
 104 557 104 557 154 605.5 c 128,-1,8
 204 654 204 654 272 681 c 128,-1,9
 340 708 340 708 421 708 c 0,10,11
 501 708 501 708 568.5 681.5 c 128,-1,12
 636 655 636 655 686.5 606.5 c 128,-1,13
 737 558 737 558 764.5 493 c 128,-1,14
 792 428 792 428 792 350 c 256,15,16
 792 272 792 272 764.5 207 c 128,-1,17
 737 142 737 142 686.5 93.5 c 128,-1,18
 636 45 636 45 568.5 18.5 c 128,-1,19
 501 -8 501 -8 421 -8 c 256,0,1
650 -146 m 0,20,21
 615 -146 615 -146 583 -137.5 c 128,-1,22
 551 -129 551 -129 519 -110.5 c 128,-1,23
 487 -92 487 -92 453 -62.5 c 128,-1,24
 419 -33 419 -33 379 10 c 1,25,-1
 486 38 l 1,26,27
 516 1 516 1 543.5 -22.5 c 128,-1,28
 571 -46 571 -46 598 -56.5 c 128,-1,29
 625 -67 625 -67 651 -67 c 0,30,31
 726 -67 726 -67 779 -7 c 1,32,-1
 826 -64 l 1,33,34
 758 -146 758 -146 650 -146 c 0,20,21
421 81 m 0,35,36
 479 81 479 81 528.5 101 c 128,-1,37
 578 121 578 121 614.5 158 c 128,-1,38
 651 195 651 195 671.5 244 c 128,-1,39
 692 293 692 293 692 350 c 0,40,41
 692 408 692 408 671.5 457 c 128,-1,42
 651 506 651 506 614.5 542.5 c 128,-1,43
 578 579 578 579 528.5 599 c 128,-1,44
 479 619 479 619 421 619 c 0,45,46
 362 619 362 619 312.5 599 c 128,-1,47
 263 579 263 579 226 542.5 c 128,-1,48
 189 506 189 506 168.5 457 c 128,-1,49
 148 408 148 408 148 350 c 0,50,51
 148 293 148 293 168.5 244 c 128,-1,52
 189 195 189 195 226 158 c 128,-1,53
 263 121 263 121 312.5 101 c 128,-1,54
 362 81 362 81 421 81 c 0,35,36
EndSplineSet
Substitution2: "'ss01' Style Set 1 lookup 50 subtable" Q.ss01
Substitution2: "'c2sc' Capitals to Small Capitals lookup 45 subtable" q.sc
AlternateSubs2: "'aalt' Access All Alternates lookup 1 subtable" q.sc Q.ss01
EndChar

StartChar: uni024A
Encoding: 586 586 253
Width: 888
GlyphClass: 2
Flags: W
AnchorPoint: "Anchor-4" 635 700 basechar 0
AnchorPoint: "Anchor-3" 417 700 basechar 0
AnchorPoint: "Anchor-2" 494 0 basechar 0
AnchorPoint: "Anchor-1" 417 350 basechar 0
AnchorPoint: "Anchor-0" 417 0 basechar 0
LayerCount: 2
Fore
SplineSet
413 -8 m 0,0,1
 335 -8 335 -8 268.5 19 c 128,-1,2
 202 46 202 46 152.5 94.5 c 128,-1,3
 103 143 103 143 75.5 208 c 128,-1,4
 48 273 48 273 48 350 c 256,5,6
 48 427 48 427 75.5 492 c 128,-1,7
 103 557 103 557 152.5 605.5 c 128,-1,8
 202 654 202 654 268.5 681 c 128,-1,9
 335 708 335 708 413 708 c 0,10,11
 490 708 490 708 554.5 681.5 c 128,-1,12
 619 655 619 655 667 606.5 c 128,-1,13
 715 558 715 558 741 493 c 128,-1,14
 767 428 767 428 767 350 c 256,15,16
 767 272 767 272 741 207 c 128,-1,17
 715 142 715 142 667 93.5 c 128,-1,18
 619 45 619 45 554.5 18.5 c 128,-1,19
 490 -8 490 -8 413 -8 c 0,0,1
421 81 m 0,20,21
 479 81 479 81 528.5 101 c 128,-1,22
 578 121 578 121 614.5 157.5 c 128,-1,23
 651 194 651 194 671.5 243 c 128,-1,24
 692 292 692 292 692 350 c 256,25,26
 692 408 692 408 671.5 457 c 128,-1,27
 651 506 651 506 614.5 542.5 c 128,-1,28
 578 579 578 579 528.5 599 c 128,-1,29
 479 619 479 619 421 619 c 0,30,31
 362 619 362 619 312.5 599 c 128,-1,32
 263 579 263 579 226 542.5 c 128,-1,33
 189 506 189 506 168.5 457 c 128,-1,34
 148 408 148 408 148 350 c 256,35,36
 148 292 148 292 168.5 243 c 128,-1,37
 189 194 189 194 226 157.5 c 128,-1,38
 263 121 263 121 312.5 101 c 128,-1,39
 362 81 362 81 421 81 c 0,20,21
932 -185 m 1,40,41
 891 -202 891 -202 847.5 -201 c 128,-1,42
 804 -200 804 -200 768 -181 c 128,-1,43
 732 -162 732 -162 710 -125.5 c 128,-1,44
 688 -89 688 -89 688 -36 c 2,45,-1
 688 164 l 1,46,-1
 701 351 l 1,47,-1
 688 529 l 1,48,-1
 688 698 l 1,49,-1
 787 698 l 1,50,-1
 787 -33 l 2,51,52
 787 -69 787 -69 805 -89 c 128,-1,53
 823 -109 823 -109 850 -113.5 c 128,-1,54
 877 -118 877 -118 904 -107 c 1,55,-1
 932 -185 l 1,40,41
EndSplineSet
Substitution2: "'c2sc' Capitals to Small Capitals lookup 45 subtable" uni024B.sc
Substitution2: "'aalt' Access All Alternates lookup 0 subtable" uni024B.sc
EndChar

StartChar: R
Encoding: 82 82 254
Width: 727
GlyphClass: 2
Flags: W
AnchorPoint: "Anchor-3" 367 700 basechar 0
AnchorPoint: "Anchor-0" 367 0 basechar 0
LayerCount: 2
Fore
SplineSet
105 0 m 1,0,-1
 105 700 l 1,1,-1
 378 700 l 2,2,3
 514 700 514 700 592 635.5 c 128,-1,4
 670 571 670 571 670 456 c 0,5,6
 670 380 670 380 635 325.5 c 128,-1,7
 600 271 600 271 535 242 c 128,-1,8
 470 213 470 213 378 213 c 2,9,-1
 160 213 l 1,10,-1
 205 259 l 1,11,-1
 205 0 l 1,12,-1
 105 0 l 1,0,-1
573 0 m 1,13,-1
 395 254 l 1,14,-1
 502 254 l 1,15,-1
 682 0 l 1,16,-1
 573 0 l 1,13,-1
205 249 m 1,17,-1
 160 298 l 1,18,-1
 375 298 l 2,19,20
 471 298 471 298 520.5 339.5 c 128,-1,21
 570 381 570 381 570 456 c 256,22,23
 570 531 570 531 520.5 572 c 128,-1,24
 471 613 471 613 375 613 c 2,25,-1
 160 613 l 1,26,-1
 205 663 l 1,27,-1
 205 249 l 1,17,-1
EndSplineSet
Substitution2: "'c2sc' Capitals to Small Capitals lookup 45 subtable" r.sc
Substitution2: "'aalt' Access All Alternates lookup 0 subtable" r.sc
EndChar

StartChar: uni024C
Encoding: 588 588 264
Width: 727
GlyphClass: 2
Flags: W
AnchorPoint: "Anchor-3" 367 700 basechar 0
AnchorPoint: "Anchor-0" 367 0 basechar 0
LayerCount: 2
Fore
SplineSet
105 0 m 1,0,-1
 105 700 l 1,1,-1
 378 700 l 2,2,3
 514 700 514 700 592 635.5 c 128,-1,4
 670 571 670 571 670 456 c 0,5,6
 670 380 670 380 635 325.5 c 128,-1,7
 600 271 600 271 535 242 c 128,-1,8
 470 213 470 213 378 213 c 2,9,-1
 160 213 l 1,10,-1
 205 259 l 1,11,-1
 205 0 l 1,12,-1
 105 0 l 1,0,-1
573 0 m 1,13,-1
 395 254 l 1,14,-1
 502 254 l 1,15,-1
 682 0 l 1,16,-1
 573 0 l 1,13,-1
205 249 m 1,17,-1
 160 298 l 1,18,-1
 375 298 l 2,19,20
 471 298 471 298 520.5 339.5 c 128,-1,21
 570 381 570 381 570 456 c 256,22,23
 570 531 570 531 520.5 572 c 128,-1,24
 471 613 471 613 375 613 c 2,25,-1
 160 613 l 1,26,-1
 205 663 l 1,27,-1
 205 249 l 1,17,-1
2 219 m 1,28,-1
 2 298 l 1,29,-1
 329 298 l 1,30,-1
 329 219 l 1,31,-1
 2 219 l 1,28,-1
EndSplineSet
Substitution2: "'c2sc' Capitals to Small Capitals lookup 45 subtable" uni024D.sc
Substitution2: "'aalt' Access All Alternates lookup 0 subtable" uni024D.sc
EndChar

StartChar: uni2C64
Encoding: 11364 11364 265
Width: 753
GlyphClass: 2
Flags: W
AnchorPoint: "Anchor-3" 383 700 basechar 0
AnchorPoint: "Anchor-0" 383 0 basechar 0
LayerCount: 2
Fore
SplineSet
400 -165 m 1,0,1
 357 -192 357 -192 308.5 -198.5 c 128,-1,2
 260 -205 260 -205 216.5 -189.5 c 128,-1,3
 173 -174 173 -174 145 -136 c 128,-1,4
 117 -98 117 -98 117 -36 c 2,5,-1
 117 700 l 1,6,-1
 391 700 l 2,7,8
 482 700 482 700 547 671 c 128,-1,9
 612 642 612 642 647.5 587 c 128,-1,10
 683 532 683 532 683 456 c 256,11,12
 683 380 683 380 647.5 325.5 c 128,-1,13
 612 271 612 271 547 242 c 128,-1,14
 482 213 482 213 391 213 c 2,15,-1
 172 213 l 1,16,-1
 217 259 l 1,17,-1
 217 -33 l 2,18,19
 217 -65 217 -65 231 -84 c 128,-1,20
 245 -103 245 -103 267 -110 c 128,-1,21
 289 -117 289 -117 315 -112 c 128,-1,22
 341 -107 341 -107 366 -91 c 1,23,-1
 400 -165 l 1,0,1
586 0 m 1,24,-1
 407 254 l 1,25,-1
 515 254 l 1,26,-1
 694 0 l 1,27,-1
 586 0 l 1,24,-1
217 249 m 1,28,-1
 172 298 l 1,29,-1
 388 298 l 2,30,31
 484 298 484 298 533 339.5 c 128,-1,32
 582 381 582 381 582 456 c 256,33,34
 582 531 582 531 533 572 c 128,-1,35
 484 613 484 613 388 613 c 2,36,-1
 172 613 l 1,37,-1
 217 663 l 1,38,-1
 217 249 l 1,28,-1
EndSplineSet
Substitution2: "'c2sc' Capitals to Small Capitals lookup 45 subtable" uni027D.sc
Substitution2: "'aalt' Access All Alternates lookup 0 subtable" uni027D.sc
EndChar

StartChar: S
Encoding: 83 83 266
Width: 621
GlyphClass: 2
Flags: W
AnchorPoint: "Anchor-3" 322 700 basechar 0
AnchorPoint: "Anchor-1" 322 350 basechar 0
AnchorPoint: "Anchor-0" 322 0 basechar 0
LayerCount: 2
Fore
SplineSet
309 -8 m 0,0,1
 229 -8 229 -8 156 16.5 c 128,-1,2
 83 41 83 41 41 80 c 1,3,-1
 78 158 l 1,4,5
 118 123 118 123 180 100 c 128,-1,6
 242 77 242 77 309 77 c 0,7,8
 370 77 370 77 408 91 c 128,-1,9
 446 105 446 105 464 129.5 c 128,-1,10
 482 154 482 154 482 185 c 0,11,12
 482 221 482 221 458.5 243 c 128,-1,13
 435 265 435 265 397.5 278.5 c 128,-1,14
 360 292 360 292 315 302 c 128,-1,15
 270 312 270 312 224.5 325.5 c 128,-1,16
 179 339 179 339 141.5 360 c 128,-1,17
 104 381 104 381 81 416.5 c 128,-1,18
 58 452 58 452 58 508 c 0,19,20
 58 562 58 562 86.5 607.5 c 128,-1,21
 115 653 115 653 174.5 680.5 c 128,-1,22
 234 708 234 708 326 708 c 0,23,24
 387 708 387 708 447 692 c 128,-1,25
 507 676 507 676 551 646 c 1,26,-1
 518 566 l 1,27,28
 473 596 473 596 423 609.5 c 128,-1,29
 373 623 373 623 326 623 c 0,30,31
 267 623 267 623 229 608 c 128,-1,32
 191 593 191 593 173.5 568 c 128,-1,33
 156 543 156 543 156 512 c 0,34,35
 156 475 156 475 179.5 453 c 128,-1,36
 203 431 203 431 240.5 418 c 128,-1,37
 278 405 278 405 323 394.5 c 128,-1,38
 368 384 368 384 413.5 371 c 128,-1,39
 459 358 459 358 496.5 337 c 128,-1,40
 534 316 534 316 557 281 c 128,-1,41
 580 246 580 246 580 191 c 0,42,43
 580 138 580 138 551 92.5 c 128,-1,44
 522 47 522 47 461.5 19.5 c 128,-1,45
 401 -8 401 -8 309 -8 c 0,0,1
EndSplineSet
Substitution2: "'c2sc' Capitals to Small Capitals lookup 45 subtable" s.sc
Substitution2: "'aalt' Access All Alternates lookup 0 subtable" s.sc
EndChar

StartChar: uni1E9E
Encoding: 7838 7838 277
Width: 763
GlyphClass: 1
Flags: W
LayerCount: 2
Fore
SplineSet
464 -8 m 0,0,1
 427 -8 427 -8 392 -2 c 128,-1,2
 357 4 357 4 326 17 c 1,3,-1
 342 101 l 1,4,5
 367 89 367 89 396.5 83 c 128,-1,6
 426 77 426 77 459 77 c 0,7,8
 529 77 529 77 570 109 c 128,-1,9
 611 141 611 141 611 205 c 0,10,11
 611 268 611 268 569.5 300.5 c 128,-1,12
 528 333 528 333 457 333 c 0,13,14
 436 333 436 333 414 330 c 128,-1,15
 392 327 392 327 375 322 c 1,16,-1
 356 370 l 1,17,-1
 591 633 l 1,18,-1
 603 565 l 1,19,20
 564 595 564 595 516.5 609 c 128,-1,21
 469 623 469 623 417 623 c 0,22,23
 309 623 309 623 254 565.5 c 128,-1,24
 199 508 199 508 199 402 c 2,25,-1
 199 0 l 1,26,-1
 99 0 l 1,27,-1
 99 405 l 2,28,29
 99 498 99 498 136 566 c 128,-1,30
 173 634 173 634 242.5 671 c 128,-1,31
 312 708 312 708 410 708 c 0,32,33
 454 708 454 708 496.5 700.5 c 128,-1,34
 539 693 539 693 578 678 c 128,-1,35
 617 663 617 663 646 639 c 1,36,-1
 646 574 l 1,37,-1
 437 343 l 1,38,-1
 396 401 l 1,39,40
 413 407 413 407 432.5 409 c 128,-1,41
 452 411 452 411 473 411 c 0,42,43
 541 411 541 411 595.5 387 c 128,-1,44
 650 363 650 363 681 316 c 128,-1,45
 712 269 712 269 712 201 c 256,46,47
 712 133 712 133 681 86.5 c 128,-1,48
 650 40 650 40 594 16 c 128,-1,49
 538 -8 538 -8 464 -8 c 0,0,1
EndSplineSet
Substitution2: "'c2sc' Capitals to Small Capitals lookup 45 subtable" germandbls.sc
Substitution2: "'aalt' Access All Alternates lookup 0 subtable" germandbls.sc
EndChar

StartChar: uniA7A8
Encoding: 42920 42920 278
Width: 621
GlyphClass: 2
Flags: W
AnchorPoint: "Anchor-3" 321 700 basechar 0
AnchorPoint: "Anchor-0" 321 0 basechar 0
LayerCount: 2
Fore
SplineSet
309 -8 m 0,0,1
 256 -8 256 -8 205 3 c 128,-1,2
 154 14 154 14 111.5 34 c 128,-1,3
 69 54 69 54 41 80 c 1,4,-1
 78 158 l 1,5,6
 118 123 118 123 180 100 c 128,-1,7
 242 77 242 77 309 77 c 0,8,9
 370 77 370 77 408 91 c 128,-1,10
 446 105 446 105 464 129.5 c 128,-1,11
 482 154 482 154 482 185 c 0,12,13
 482 221 482 221 458.5 243 c 128,-1,14
 435 265 435 265 397.5 278.5 c 128,-1,15
 360 292 360 292 315 302 c 128,-1,16
 270 312 270 312 224.5 325.5 c 128,-1,17
 179 339 179 339 141.5 360 c 128,-1,18
 104 381 104 381 81 416.5 c 128,-1,19
 58 452 58 452 58 508 c 0,20,21
 58 562 58 562 86.5 607.5 c 128,-1,22
 115 653 115 653 174.5 680.5 c 128,-1,23
 234 708 234 708 326 708 c 0,24,25
 387 708 387 708 447 692 c 128,-1,26
 507 676 507 676 551 646 c 1,27,-1
 518 566 l 1,28,29
 473 596 473 596 423 609.5 c 128,-1,30
 373 623 373 623 326 623 c 0,31,32
 267 623 267 623 229 608 c 128,-1,33
 191 593 191 593 173.5 568 c 128,-1,34
 156 543 156 543 156 512 c 0,35,36
 156 475 156 475 179.5 453 c 128,-1,37
 203 431 203 431 240.5 418 c 128,-1,38
 278 405 278 405 323 394.5 c 128,-1,39
 368 384 368 384 413.5 371 c 128,-1,40
 459 358 459 358 496.5 337 c 128,-1,41
 534 316 534 316 557 281 c 128,-1,42
 580 246 580 246 580 191 c 0,43,44
 580 138 580 138 551 92.5 c 128,-1,45
 522 47 522 47 461.5 19.5 c 128,-1,46
 401 -8 401 -8 309 -8 c 0,0,1
249 174 m 1,47,-1
 186 206 l 1,48,-1
 346 522 l 1,49,-1
 410 492 l 1,50,-1
 249 174 l 1,47,-1
EndSplineSet
Substitution2: "'c2sc' Capitals to Small Capitals lookup 45 subtable" uniA7A9.sc
Substitution2: "'aalt' Access All Alternates lookup 0 subtable" uniA7A9.sc
EndChar

StartChar: T
Encoding: 84 84 279
Width: 587
GlyphClass: 2
Flags: W
AnchorPoint: "Anchor-3" 293 700 basechar 0
AnchorPoint: "Anchor-1" 293 358 basechar 0
AnchorPoint: "Anchor-0" 293 0 basechar 0
LayerCount: 2
Fore
SplineSet
244 0 m 1,0,-1
 244 613 l 1,1,-1
 4 613 l 1,2,-1
 4 700 l 1,3,-1
 583 700 l 1,4,-1
 583 613 l 1,5,-1
 343 613 l 1,6,-1
 343 0 l 1,7,-1
 244 0 l 1,0,-1
EndSplineSet
Substitution2: "'ss01' Style Set 1 lookup 50 subtable" T.ss01
Substitution2: "'c2sc' Capitals to Small Capitals lookup 45 subtable" t.sc
AlternateSubs2: "'aalt' Access All Alternates lookup 1 subtable" t.sc T.ss01
EndChar

StartChar: Tbar
Encoding: 358 358 280
Width: 587
GlyphClass: 2
Flags: W
AnchorPoint: "Anchor-3" 293 700 basechar 0
AnchorPoint: "Anchor-1" 293 358 basechar 0
AnchorPoint: "Anchor-0" 293 0 basechar 0
LayerCount: 2
Fore
SplineSet
244 0 m 1,0,-1
 244 613 l 1,1,-1
 4 613 l 1,2,-1
 4 700 l 1,3,-1
 583 700 l 1,4,-1
 583 613 l 1,5,-1
 343 613 l 1,6,-1
 343 0 l 1,7,-1
 244 0 l 1,0,-1
91 319 m 1,8,-1
 91 398 l 1,9,-1
 496 398 l 1,10,-1
 496 319 l 1,11,-1
 91 319 l 1,8,-1
EndSplineSet
Substitution2: "'ss01' Style Set 1 lookup 50 subtable" Tbar.ss01
Substitution2: "'c2sc' Capitals to Small Capitals lookup 45 subtable" tbar.sc
AlternateSubs2: "'aalt' Access All Alternates lookup 1 subtable" tbar.sc Tbar.ss01
EndChar

StartChar: uni023E
Encoding: 574 574 285
Width: 583
GlyphClass: 2
Flags: W
AnchorPoint: "Anchor-3" 293 700 basechar 0
AnchorPoint: "Anchor-1" 293 341 basechar 0
AnchorPoint: "Anchor-0" 293 0 basechar 0
LayerCount: 2
Fore
SplineSet
244 0 m 1,0,-1
 244 613 l 1,1,-1
 4 613 l 1,2,-1
 4 700 l 1,3,-1
 579 700 l 1,4,-1
 579 613 l 1,5,-1
 340 613 l 1,6,-1
 340 0 l 1,7,-1
 244 0 l 1,0,-1
96 -70 m 1,8,-1
 476 770 l 1,9,-1
 555 770 l 1,10,-1
 176 -70 l 1,11,-1
 96 -70 l 1,8,-1
EndSplineSet
Substitution2: "'ss01' Style Set 1 lookup 50 subtable" uni023E.ss01
Substitution2: "'c2sc' Capitals to Small Capitals lookup 45 subtable" uni2C66.sc
AlternateSubs2: "'aalt' Access All Alternates lookup 1 subtable" uni2C66.sc uni023E.ss01
EndChar

StartChar: uni01AC
Encoding: 428 428 288
Width: 660
GlyphClass: 1
Flags: W
LayerCount: 2
Fore
SplineSet
317 0 m 1,0,-1
 317 632 l 1,1,-1
 337 613 l 1,2,-1
 206 613 l 2,3,4
 167 613 167 613 146 595.5 c 128,-1,5
 125 578 125 578 120.5 549.5 c 128,-1,6
 116 521 116 521 127 489.5 c 128,-1,7
 138 458 138 458 165 431 c 1,8,-1
 101 384 l 1,9,10
 67 418 67 418 49.5 459.5 c 128,-1,11
 32 501 32 501 32 543.5 c 128,-1,12
 32 586 32 586 51 621.5 c 128,-1,13
 70 657 70 657 108.5 678.5 c 128,-1,14
 147 700 147 700 206 700 c 2,15,-1
 656 700 l 1,16,-1
 656 613 l 1,17,-1
 397 613 l 1,18,-1
 416 632 l 1,19,-1
 416 0 l 1,20,-1
 317 0 l 1,0,-1
EndSplineSet
Substitution2: "'ss01' Style Set 1 lookup 50 subtable" uni01AC.ss01
Substitution2: "'c2sc' Capitals to Small Capitals lookup 45 subtable" uni01AD.sc
AlternateSubs2: "'aalt' Access All Alternates lookup 1 subtable" uni01AD.sc uni01AC.ss01
EndChar

StartChar: uni01AE
Encoding: 430 430 290
Width: 587
GlyphClass: 2
Flags: W
AnchorPoint: "Anchor-3" 293 700 basechar 0
AnchorPoint: "Anchor-1" 293 339 basechar 0
AnchorPoint: "Anchor-0" 293 0 basechar 0
LayerCount: 2
Fore
SplineSet
526 -165 m 1,0,1
 483 -192 483 -192 434.5 -198.5 c 128,-1,2
 386 -205 386 -205 342.5 -189.5 c 128,-1,3
 299 -174 299 -174 271.5 -135.5 c 128,-1,4
 244 -97 244 -97 244 -35 c 2,5,-1
 244 628 l 1,6,-1
 343 628 l 1,7,-1
 343 -32 l 2,8,9
 343 -64 343 -64 357 -83.5 c 128,-1,10
 371 -103 371 -103 393 -110 c 128,-1,11
 415 -117 415 -117 441.5 -112 c 128,-1,12
 468 -107 468 -107 492 -91 c 1,13,-1
 526 -165 l 1,0,1
4 613 m 1,14,-1
 4 700 l 1,15,-1
 583 700 l 1,16,-1
 583 613 l 1,17,-1
 4 613 l 1,14,-1
EndSplineSet
Substitution2: "'ss01' Style Set 1 lookup 50 subtable" uni01AE.ss01
Substitution2: "'c2sc' Capitals to Small Capitals lookup 45 subtable" uni0288.sc
AlternateSubs2: "'aalt' Access All Alternates lookup 1 subtable" uni0288.sc uni01AE.ss01
EndChar

StartChar: uniA7B1
Encoding: 42929 42929 291
Width: 587
GlyphClass: 1
Flags: W
LayerCount: 2
Fore
SplineSet
343 700 m 1,0,-1
 343 87 l 1,1,-1
 583 87 l 1,2,-1
 583 0 l 1,3,-1
 4 0 l 1,4,-1
 4 87 l 1,5,-1
 244 87 l 1,6,-1
 244 700 l 1,7,-1
 343 700 l 1,0,-1
EndSplineSet
Substitution2: "'ss01' Style Set 1 lookup 50 subtable" uniA7B1.ss01
Substitution2: "'c2sc' Capitals to Small Capitals lookup 45 subtable" uni0287.sc
AlternateSubs2: "'aalt' Access All Alternates lookup 1 subtable" uni0287.sc uniA7B1.ss01
EndChar

StartChar: U
Encoding: 85 85 292
Width: 791
GlyphClass: 2
Flags: W
AnchorPoint: "Anchor-4" 660 700 basechar 0
AnchorPoint: "Anchor-3" 396 700 basechar 0
AnchorPoint: "Anchor-2" 597 0 basechar 0
AnchorPoint: "Anchor-1" 396 358 basechar 0
AnchorPoint: "Anchor-0" 396 0 basechar 0
LayerCount: 2
Fore
SplineSet
395 -8 m 0,0,1
 257 -8 257 -8 178 71 c 128,-1,2
 99 150 99 150 99 302 c 2,3,-1
 99 700 l 1,4,-1
 199 700 l 1,5,-1
 199 306 l 2,6,7
 199 189 199 189 250.5 135 c 128,-1,8
 302 81 302 81 396 81 c 0,9,10
 491 81 491 81 542.5 135 c 128,-1,11
 594 189 594 189 594 306 c 2,12,-1
 594 700 l 1,13,-1
 691 700 l 1,14,-1
 691 302 l 2,15,16
 691 150 691 150 612.5 71 c 128,-1,17
 534 -8 534 -8 395 -8 c 0,0,1
EndSplineSet
Substitution2: "'ss01' Style Set 1 lookup 50 subtable" U.ss01
Substitution2: "'c2sc' Capitals to Small Capitals lookup 45 subtable" u.sc
AlternateSubs2: "'aalt' Access All Alternates lookup 1 subtable" u.sc U.ss01
EndChar

StartChar: uni0244
Encoding: 580 580 294
Width: 790
GlyphClass: 2
Flags: W
AnchorPoint: "Anchor-4" 659 700 basechar 0
AnchorPoint: "Anchor-3" 395 700 basechar 0
AnchorPoint: "Anchor-2" 596 0 basechar 0
AnchorPoint: "Anchor-1" 395 358 basechar 0
AnchorPoint: "Anchor-0" 395 0 basechar 0
LayerCount: 2
Fore
SplineSet
394 -8 m 0,0,1
 256 -8 256 -8 177 71 c 128,-1,2
 98 150 98 150 98 302 c 2,3,-1
 98 700 l 1,4,-1
 198 700 l 1,5,-1
 198 306 l 2,6,7
 198 189 198 189 249.5 135 c 128,-1,8
 301 81 301 81 395 81 c 0,9,10
 490 81 490 81 541.5 135 c 128,-1,11
 593 189 593 189 593 306 c 2,12,-1
 593 700 l 1,13,-1
 691 700 l 1,14,-1
 691 302 l 2,15,16
 691 150 691 150 612 71 c 128,-1,17
 533 -8 533 -8 394 -8 c 0,0,1
-5 319 m 1,18,-1
 -5 398 l 1,19,-1
 794 398 l 1,20,-1
 794 319 l 1,21,-1
 -5 319 l 1,18,-1
EndSplineSet
Substitution2: "'ss01' Style Set 1 lookup 50 subtable" uni0244.ss01
Substitution2: "'c2sc' Capitals to Small Capitals lookup 45 subtable" uni0289.sc
AlternateSubs2: "'aalt' Access All Alternates lookup 1 subtable" uni0289.sc uni0244.ss01
EndChar

StartChar: Uogonek
Encoding: 370 370 319
Width: 791
GlyphClass: 2
Flags: W
AnchorPoint: "Anchor-4" 660 700 basechar 0
AnchorPoint: "Anchor-3" 396 700 basechar 0
AnchorPoint: "Anchor-1" 396 358 basechar 0
AnchorPoint: "Anchor-0" 396 -223 basechar 0
LayerCount: 2
Fore
SplineSet
418 -224 m 0,0,1
 362 -224 362 -224 330 -196 c 128,-1,2
 298 -168 298 -168 298 -123 c 0,3,4
 298 -96 298 -96 311.5 -68.5 c 128,-1,5
 325 -41 325 -41 356 -15 c 128,-1,6
 387 11 387 11 441 32 c 1,7,-1
 438 -6 l 1,8,9
 428 -7 428 -7 417 -7.5 c 128,-1,10
 406 -8 406 -8 395 -8 c 0,11,12
 257 -8 257 -8 178 71 c 128,-1,13
 99 150 99 150 99 302 c 2,14,-1
 99 700 l 1,15,-1
 199 700 l 1,16,-1
 199 306 l 2,17,18
 199 189 199 189 250.5 135 c 128,-1,19
 302 81 302 81 396 81 c 0,20,21
 491 81 491 81 542.5 135 c 128,-1,22
 594 189 594 189 594 306 c 2,23,-1
 594 700 l 1,24,-1
 691 700 l 1,25,-1
 691 302 l 2,26,27
 691 180 691 180 642 109 c 128,-1,28
 593 38 593 38 510 8 c 0,29,30
 451 -13 451 -13 420 -34.5 c 128,-1,31
 389 -56 389 -56 377.5 -76.5 c 128,-1,32
 366 -97 366 -97 366 -116 c 0,33,34
 366 -141 366 -141 383.5 -154.5 c 128,-1,35
 401 -168 401 -168 428 -168 c 0,36,37
 444 -168 444 -168 460.5 -163 c 128,-1,38
 477 -158 477 -158 489 -151 c 1,39,-1
 508 -200 l 1,40,41
 489 -211 489 -211 466 -217.5 c 128,-1,42
 443 -224 443 -224 418 -224 c 0,0,1
EndSplineSet
Substitution2: "'ss01' Style Set 1 lookup 50 subtable" Uogonek.ss01
Substitution2: "'c2sc' Capitals to Small Capitals lookup 45 subtable" uogonek.sc
Substitution2: "'locl' Localized Forms in Latin lookup 15 subtable" Uogonek.loclNAV
AlternateSubs2: "'aalt' Access All Alternates lookup 1 subtable" Uogonek.loclNAV uogonek.sc Uogonek.ss01
EndChar

StartChar: uni01B1
Encoding: 433 433 320
Width: 855
GlyphClass: 2
Flags: W
AnchorPoint: "Anchor-3" 428 700 basechar 0
AnchorPoint: "Anchor-0" 428 0 basechar 0
LayerCount: 2
Fore
SplineSet
837 700 m 1,0,-1
 837 613 l 1,1,-1
 671 613 l 1,2,3
 732 565 732 565 765 495 c 128,-1,4
 798 425 798 425 798 341 c 0,5,6
 798 264 798 264 770.5 200 c 128,-1,7
 743 136 743 136 692 89 c 128,-1,8
 641 42 641 42 574 17 c 128,-1,9
 507 -8 507 -8 428 -8 c 256,10,11
 349 -8 349 -8 281.5 17 c 128,-1,12
 214 42 214 42 163 89 c 128,-1,13
 112 136 112 136 84.5 200 c 128,-1,14
 57 264 57 264 57 341 c 0,15,16
 57 425 57 425 90 495 c 128,-1,17
 123 565 123 565 184 613 c 1,18,-1
 18 613 l 1,19,-1
 18 700 l 1,20,-1
 334 700 l 1,21,-1
 334 619 l 1,22,23
 247 575 247 575 202 503 c 128,-1,24
 157 431 157 431 157 346 c 0,25,26
 157 287 157 287 177 238.5 c 128,-1,27
 197 190 197 190 233 154.5 c 128,-1,28
 269 119 269 119 318.5 100 c 128,-1,29
 368 81 368 81 428 81 c 0,30,31
 487 81 487 81 536.5 100 c 128,-1,32
 586 119 586 119 622 154.5 c 128,-1,33
 658 190 658 190 678 238.5 c 128,-1,34
 698 287 698 287 698 346 c 0,35,36
 698 432 698 432 653 504 c 128,-1,37
 608 576 608 576 521 619 c 1,38,-1
 521 700 l 1,39,-1
 837 700 l 1,0,-1
EndSplineSet
Substitution2: "'c2sc' Capitals to Small Capitals lookup 45 subtable" uni028A.sc
Substitution2: "'aalt' Access All Alternates lookup 0 subtable" uni028A.sc
EndChar

StartChar: V
Encoding: 86 86 325
Width: 712
GlyphClass: 2
Flags: W
AnchorPoint: "Anchor-3" 356 700 basechar 0
AnchorPoint: "Anchor-2" 406 0 basechar 0
AnchorPoint: "Anchor-0" 356 0 basechar 0
LayerCount: 2
Fore
SplineSet
307 0 m 1,0,-1
 -1 700 l 1,1,-1
 107 700 l 1,2,-1
 390 54 l 1,3,-1
 328 54 l 1,4,-1
 613 700 l 1,5,-1
 713 700 l 1,6,-1
 406 0 l 1,7,-1
 307 0 l 1,0,-1
EndSplineSet
Substitution2: "'c2sc' Capitals to Small Capitals lookup 45 subtable" v.sc
Substitution2: "'aalt' Access All Alternates lookup 0 subtable" v.sc
EndChar

StartChar: uni0194
Encoding: 404 404 326
Width: 647
GlyphClass: 2
Flags: W
AnchorPoint: "Anchor-3" 324 700 basechar 0
AnchorPoint: "Anchor-1" 321 249 basechar 0
AnchorPoint: "Anchor-0" 324 0 basechar 0
LayerCount: 2
Fore
SplineSet
322 -203 m 0,0,1
 285 -203 285 -203 255 -186.5 c 128,-1,2
 225 -170 225 -170 207.5 -141.5 c 128,-1,3
 190 -113 190 -113 190 -77 c 0,4,5
 190 -46 190 -46 204 -10.5 c 128,-1,6
 218 25 218 25 238 60 c 128,-1,7
 258 95 258 95 277 126 c 128,-1,8
 296 157 296 157 307 179 c 2,9,-1
 562 700 l 1,10,-1
 662 700 l 1,11,-1
 380 124 l 2,12,13
 370 102 370 102 351.5 76 c 128,-1,14
 333 50 333 50 314.5 22 c 128,-1,15
 296 -6 296 -6 282.5 -31.5 c 128,-1,16
 269 -57 269 -57 269 -78 c 0,17,18
 269 -100 269 -100 284.5 -114 c 128,-1,19
 300 -128 300 -128 323 -128 c 0,20,21
 345 -128 345 -128 360.5 -114 c 128,-1,22
 376 -100 376 -100 376 -78 c 0,23,24
 376 -60 376 -60 365 -35 c 128,-1,25
 354 -10 354 -10 337.5 18 c 128,-1,26
 321 46 321 46 304 74 c 128,-1,27
 287 102 287 102 276 126 c 2,28,-1
 -9 700 l 1,29,-1
 99 700 l 1,30,-1
 352 179 l 2,31,32
 363 158 363 158 380 127 c 128,-1,33
 397 96 397 96 414.5 61 c 128,-1,34
 432 26 432 26 443.5 -9.5 c 128,-1,35
 455 -45 455 -45 455 -76 c 0,36,37
 455 -112 455 -112 437.5 -140.5 c 128,-1,38
 420 -169 420 -169 390 -186 c 128,-1,39
 360 -203 360 -203 322 -203 c 0,0,1
EndSplineSet
Substitution2: "'c2sc' Capitals to Small Capitals lookup 45 subtable" uni0263.sc
Substitution2: "'aalt' Access All Alternates lookup 0 subtable" uni0263.sc
EndChar

StartChar: uni01B2
Encoding: 434 434 328
Width: 782
GlyphClass: 2
Flags: W
AnchorPoint: "Anchor-4" 658 700 basechar 0
AnchorPoint: "Anchor-3" 394 700 basechar 0
AnchorPoint: "Anchor-2" 595 0 basechar 0
AnchorPoint: "Anchor-0" 394 0 basechar 0
LayerCount: 2
Fore
SplineSet
393 -8 m 0,0,1
 255 -8 255 -8 176 71 c 128,-1,2
 97 150 97 150 97 302 c 2,3,-1
 97 700 l 1,4,-1
 197 700 l 1,5,-1
 197 306 l 2,6,7
 197 189 197 189 248.5 135 c 128,-1,8
 300 81 300 81 394 81 c 0,9,10
 489 81 489 81 540.5 135 c 128,-1,11
 592 189 592 189 592 306 c 2,12,-1
 592 545 l 2,13,14
 592 580 592 580 577 600.5 c 128,-1,15
 562 621 562 621 538.5 627.5 c 128,-1,16
 515 634 515 634 487.5 627.5 c 128,-1,17
 460 621 460 621 434 602 c 1,18,-1
 400 676 l 1,19,20
 441 705 441 705 491 713.5 c 128,-1,21
 541 722 541 722 586.5 708 c 128,-1,22
 632 694 632 694 661.5 654.5 c 128,-1,23
 691 615 691 615 691 548 c 2,24,-1
 691 302 l 2,25,26
 691 150 691 150 612 71 c 128,-1,27
 533 -8 533 -8 393 -8 c 0,0,1
EndSplineSet
Substitution2: "'c2sc' Capitals to Small Capitals lookup 45 subtable" uni028B.sc
Substitution2: "'locl' Localized Forms in Latin lookup 18 subtable" uni01B2.loclTOD0
AlternateSubs2: "'aalt' Access All Alternates lookup 1 subtable" uni01B2.loclTOD0 uni028B.sc
EndChar

StartChar: uni0245
Encoding: 581 581 330
Width: 712
GlyphClass: 2
Flags: W
AnchorPoint: "Anchor-3" 356 700 basechar 0
AnchorPoint: "Anchor-2" 713 0 basechar 0
AnchorPoint: "Anchor-0" 356 0 basechar 0
LayerCount: 2
Fore
SplineSet
405 700 m 1,0,-1
 713 0 l 1,1,-1
 605 0 l 1,2,-1
 322 646 l 1,3,-1
 384 646 l 1,4,-1
 99 0 l 1,5,-1
 -1 0 l 1,6,-1
 306 700 l 1,7,-1
 405 700 l 1,0,-1
EndSplineSet
Substitution2: "'c2sc' Capitals to Small Capitals lookup 45 subtable" uni028C.sc
Substitution2: "'aalt' Access All Alternates lookup 0 subtable" uni028C.sc
EndChar

StartChar: W
Encoding: 87 87 331
Width: 1126
GlyphClass: 2
Flags: W
AnchorPoint: "Anchor-3" 564 700 basechar 0
AnchorPoint: "Anchor-0" 564 0 basechar 0
LayerCount: 2
Fore
SplineSet
266 0 m 1,0,-1
 32 700 l 1,1,-1
 135 700 l 1,2,-1
 350 54 l 1,3,-1
 298 54 l 1,4,-1
 521 700 l 1,5,-1
 613 700 l 1,6,-1
 831 54 l 1,7,-1
 781 54 l 1,8,-1
 999 700 l 1,9,-1
 1094 700 l 1,10,-1
 860 0 l 1,11,-1
 755 0 l 1,12,-1
 551 599 l 1,13,-1
 578 599 l 1,14,-1
 373 0 l 1,15,-1
 266 0 l 1,0,-1
EndSplineSet
Substitution2: "'ss01' Style Set 1 lookup 50 subtable" W.ss01
Substitution2: "'c2sc' Capitals to Small Capitals lookup 45 subtable" w.sc
AlternateSubs2: "'aalt' Access All Alternates lookup 1 subtable" w.sc W.ss01
EndChar

StartChar: uni2C72
Encoding: 11378 11378 338
Width: 1156
GlyphClass: 2
Flags: W
AnchorPoint: "Anchor-3" 564 700 basechar 0
AnchorPoint: "Anchor-0" 564 0 basechar 0
LayerCount: 2
Fore
SplineSet
266 0 m 1,0,-1
 32 700 l 1,1,-1
 135 700 l 1,2,-1
 350 54 l 1,3,-1
 298 54 l 1,4,-1
 521 700 l 1,5,-1
 613 700 l 1,6,-1
 815 54 l 1,7,-1
 767 54 l 1,8,-1
 964 632 l 2,9,10
 980 678 980 678 1006.5 705 c 128,-1,11
 1033 732 1033 732 1066 742.5 c 128,-1,12
 1099 753 1099 753 1134.5 748 c 128,-1,13
 1170 743 1170 743 1202 723 c 1,14,-1
 1162 650 l 1,15,16
 1132 668 1132 668 1099 658.5 c 128,-1,17
 1066 649 1066 649 1051 604 c 2,18,-1
 846 0 l 1,19,-1
 739 0 l 1,20,-1
 551 599 l 1,21,-1
 578 599 l 1,22,-1
 373 0 l 1,23,-1
 266 0 l 1,0,-1
EndSplineSet
Substitution2: "'ss01' Style Set 1 lookup 50 subtable" uni2C72.ss01
Substitution2: "'c2sc' Capitals to Small Capitals lookup 45 subtable" uni2C73.sc
AlternateSubs2: "'aalt' Access All Alternates lookup 1 subtable" uni2C73.sc uni2C72.ss01
EndChar

StartChar: X
Encoding: 88 88 339
Width: 673
GlyphClass: 2
Flags: W
AnchorPoint: "Anchor-3" 337 700 basechar 0
AnchorPoint: "Anchor-0" 337 0 basechar 0
LayerCount: 2
Fore
SplineSet
13 0 m 1,0,-1
 304 397 l 1,1,-1
 304 320 l 1,2,-1
 29 700 l 1,3,-1
 143 700 l 1,4,-1
 361 401 l 1,5,-1
 316 400 l 1,6,-1
 533 700 l 1,7,-1
 642 700 l 1,8,-1
 369 326 l 1,9,-1
 369 398 l 1,10,-1
 660 0 l 1,11,-1
 545 0 l 1,12,-1
 313 319 l 1,13,-1
 357 319 l 1,14,-1
 128 0 l 1,15,-1
 13 0 l 1,0,-1
EndSplineSet
Substitution2: "'c2sc' Capitals to Small Capitals lookup 45 subtable" x.sc
Substitution2: "'aalt' Access All Alternates lookup 0 subtable" x.sc
EndChar

StartChar: Y
Encoding: 89 89 342
Width: 647
GlyphClass: 2
Flags: W
AnchorPoint: "Anchor-3" 324 700 basechar 0
AnchorPoint: "Anchor-2" 373 0 basechar 0
AnchorPoint: "Anchor-1" 321 249 basechar 0
AnchorPoint: "Anchor-0" 324 0 basechar 0
LayerCount: 2
Fore
SplineSet
274 0 m 1,0,-1
 274 268 l 1,1,-1
 297 206 l 1,2,-1
 -4 700 l 1,3,-1
 103 700 l 1,4,-1
 356 283 l 1,5,-1
 298 283 l 1,6,-1
 552 700 l 1,7,-1
 651 700 l 1,8,-1
 351 206 l 1,9,-1
 373 268 l 1,10,-1
 373 0 l 1,11,-1
 274 0 l 1,0,-1
EndSplineSet
Substitution2: "'ss01' Style Set 1 lookup 50 subtable" Y.ss01
Substitution2: "'c2sc' Capitals to Small Capitals lookup 45 subtable" y.sc
AlternateSubs2: "'aalt' Access All Alternates lookup 1 subtable" y.sc Y.ss01
EndChar

StartChar: uni01B3
Encoding: 435 435 349
Width: 690
GlyphClass: 2
Flags: W
AnchorPoint: "Anchor-3" 324 700 basechar 0
AnchorPoint: "Anchor-1" 321 249 basechar 0
AnchorPoint: "Anchor-0" 324 0 basechar 0
LayerCount: 2
Fore
SplineSet
759 715 m 1,0,-1
 711 647 l 1,1,2
 687 667 687 667 654.5 663 c 128,-1,3
 622 659 622 659 597 618 c 2,4,-1
 351 206 l 1,5,-1
 373 268 l 1,6,-1
 373 0 l 1,7,-1
 274 0 l 1,8,-1
 274 268 l 1,9,-1
 297 206 l 1,10,-1
 -4 700 l 1,11,-1
 103 700 l 1,12,-1
 356 283 l 1,13,-1
 298 283 l 1,14,-1
 526 662 l 2,15,16
 558 714 558 714 598.5 734 c 128,-1,17
 639 754 639 754 681.5 748 c 128,-1,18
 724 742 724 742 759 715 c 1,0,-1
EndSplineSet
Substitution2: "'ss01' Style Set 1 lookup 50 subtable" uni01B3.ss01
Substitution2: "'c2sc' Capitals to Small Capitals lookup 45 subtable" uni01B4.sc
AlternateSubs2: "'aalt' Access All Alternates lookup 1 subtable" uni01B4.sc uni01B3.ss01
EndChar

StartChar: uni01A6
Encoding: 422 422 352
Width: 727
GlyphClass: 2
Flags: W
AnchorPoint: "Anchor-3" 367 700 basechar 0
AnchorPoint: "Anchor-0" 367 0 basechar 0
LayerCount: 2
Fore
SplineSet
160 141 m 1,0,-1
 160 226 l 1,1,-1
 375 226 l 2,2,3
 471 226 471 226 520.5 267.5 c 128,-1,4
 570 309 570 309 570 384 c 0,5,6
 570 460 570 460 520.5 501 c 128,-1,7
 471 542 471 542 375 542 c 2,8,-1
 160 542 l 1,9,-1
 160 628 l 1,10,-1
 378 628 l 2,11,12
 514 628 514 628 592 563.5 c 128,-1,13
 670 499 670 499 670 384 c 0,14,15
 670 309 670 309 635 254.5 c 128,-1,16
 600 200 600 200 535 170.5 c 128,-1,17
 470 141 470 141 378 141 c 2,18,-1
 160 141 l 1,0,-1
105 0 m 1,19,-1
 105 700 l 1,20,-1
 205 700 l 1,21,-1
 205 0 l 1,22,-1
 105 0 l 1,19,-1
573 -100 m 1,23,-1
 389 166 l 1,24,-1
 497 166 l 1,25,-1
 682 -100 l 1,26,-1
 573 -100 l 1,23,-1
EndSplineSet
Substitution2: "'c2sc' Capitals to Small Capitals lookup 45 subtable" uni0280.sc
Substitution2: "'aalt' Access All Alternates lookup 0 subtable" uni0280.sc
EndChar

StartChar: uni024E
Encoding: 590 590 353
Width: 649
GlyphClass: 2
Flags: W
AnchorPoint: "Anchor-3" 325 700 basechar 0
AnchorPoint: "Anchor-1" 322 249 basechar 0
AnchorPoint: "Anchor-0" 325 0 basechar 0
LayerCount: 2
Fore
SplineSet
275 0 m 1,0,-1
 275 249 l 1,1,-1
 298 188 l 1,2,-1
 -3 700 l 1,3,-1
 104 700 l 1,4,-1
 357 265 l 1,5,-1
 299 265 l 1,6,-1
 553 700 l 1,7,-1
 652 700 l 1,8,-1
 351 188 l 1,9,-1
 374 249 l 1,10,-1
 374 0 l 1,11,-1
 275 0 l 1,0,-1
-6 505 m 1,12,-1
 -6 584 l 1,13,-1
 655 584 l 1,14,-1
 655 505 l 1,15,-1
 -6 505 l 1,12,-1
EndSplineSet
Substitution2: "'ss01' Style Set 1 lookup 50 subtable" uni024E.ss01
Substitution2: "'c2sc' Capitals to Small Capitals lookup 45 subtable" uni024F.sc
AlternateSubs2: "'aalt' Access All Alternates lookup 1 subtable" uni024F.sc uni024E.ss01
EndChar

StartChar: Z
Encoding: 90 90 355
Width: 657
GlyphClass: 2
Flags: W
AnchorPoint: "Anchor-3" 336 700 basechar 0
AnchorPoint: "Anchor-2" 628 0 basechar 0
AnchorPoint: "Anchor-0" 342 0 basechar 0
LayerCount: 2
Fore
SplineSet
43 0 m 1,0,-1
 43 68 l 1,1,-1
 514 652 l 1,2,-1
 525 613 l 1,3,-1
 50 613 l 1,4,-1
 50 700 l 1,5,-1
 615 700 l 1,6,-1
 615 632 l 1,7,-1
 146 48 l 1,8,-1
 134 87 l 1,9,-1
 628 87 l 1,10,-1
 628 0 l 1,11,-1
 43 0 l 1,0,-1
EndSplineSet
Substitution2: "'ss01' Style Set 1 lookup 50 subtable" Z.ss01
Substitution2: "'c2sc' Capitals to Small Capitals lookup 45 subtable" z.sc
AlternateSubs2: "'aalt' Access All Alternates lookup 1 subtable" z.sc Z.ss01
EndChar

StartChar: uni01B5
Encoding: 437 437 362
Width: 657
GlyphClass: 2
Flags: W
AnchorPoint: "Anchor-3" 336 700 basechar 0
AnchorPoint: "Anchor-0" 342 0 basechar 0
LayerCount: 2
Fore
SplineSet
43 0 m 1,0,-1
 43 68 l 1,1,-1
 514 652 l 1,2,-1
 525 613 l 1,3,-1
 50 613 l 1,4,-1
 50 700 l 1,5,-1
 615 700 l 1,6,-1
 615 632 l 1,7,-1
 146 48 l 1,8,-1
 134 87 l 1,9,-1
 628 87 l 1,10,-1
 628 0 l 1,11,-1
 43 0 l 1,0,-1
124 319 m 1,12,-1
 124 398 l 1,13,-1
 548 398 l 1,14,-1
 548 319 l 1,15,-1
 124 319 l 1,12,-1
EndSplineSet
Substitution2: "'c2sc' Capitals to Small Capitals lookup 45 subtable" uni01B6.sc
Substitution2: "'aalt' Access All Alternates lookup 0 subtable" uni01B6.sc
EndChar

StartChar: uniA78B
Encoding: 42891 42891 363
Width: 258
GlyphClass: 1
Flags: W
LayerCount: 2
Fore
SplineSet
80 297 m 1,0,-1
 80 700 l 1,1,-1
 178 700 l 1,2,-1
 166 297 l 1,3,-1
 80 297 l 1,0,-1
EndSplineSet
Substitution2: "'c2sc' Capitals to Small Capitals lookup 45 subtable" uniA78C.sc
Substitution2: "'aalt' Access All Alternates lookup 0 subtable" uniA78C.sc
EndChar

StartChar: uni0295.case
Encoding: 65538 -1 364
Width: 571
GlyphClass: 2
Flags: W
AnchorPoint: "Anchor-3" 319 700 basechar 0
AnchorPoint: "Anchor-0" 319 0 basechar 0
LayerCount: 2
Fore
SplineSet
369 0 m 1,0,-1
 270 0 l 1,1,-1
 270 152 l 2,2,3
 270 190 270 190 251.5 217 c 128,-1,4
 233 244 233 244 204 264.5 c 128,-1,5
 175 285 175 285 143 304.5 c 128,-1,6
 111 324 111 324 82.5 348.5 c 128,-1,7
 54 373 54 373 35.5 407.5 c 128,-1,8
 17 442 17 442 17 491 c 0,9,10
 17 546 17 546 41 587 c 128,-1,11
 65 628 65 628 105.5 654.5 c 128,-1,12
 146 681 146 681 197 694.5 c 128,-1,13
 248 708 248 708 304 708 c 0,14,15
 363 708 363 708 418 693 c 128,-1,16
 473 678 473 678 519.5 648 c 128,-1,17
 566 618 566 618 599 573 c 1,18,-1
 520 516 l 1,19,20
 497 552 497 552 462 575.5 c 128,-1,21
 427 599 427 599 386 610.5 c 128,-1,22
 345 622 345 622 303 622 c 0,23,24
 257 622 257 622 214 607.5 c 128,-1,25
 171 593 171 593 144 564.5 c 128,-1,26
 117 536 117 536 117 490 c 0,27,28
 117 452 117 452 135.5 426.5 c 128,-1,29
 154 401 154 401 182.5 382 c 128,-1,30
 211 363 211 363 243 344 c 128,-1,31
 275 325 275 325 303.5 301.5 c 128,-1,32
 332 278 332 278 350.5 243.5 c 128,-1,33
 369 209 369 209 369 157 c 2,34,-1
 369 0 l 1,0,-1
EndSplineSet
EndChar

StartChar: uni01B2.loclTOD0
Encoding: 65548 -1 374
Width: 770
GlyphClass: 2
Flags: W
AnchorPoint: "Anchor-3" 356 700 basechar 0
AnchorPoint: "Anchor-0" 356 0 basechar 0
LayerCount: 2
Fore
SplineSet
308 0 m 1,0,-1
 -1 700 l 1,1,-1
 107 700 l 1,2,-1
 378 77 l 1,3,-1
 339 77 l 1,4,-1
 581 632 l 2,5,6
 600 676 600 676 627 703 c 128,-1,7
 654 730 654 730 685.5 741 c 128,-1,8
 717 752 717 752 751.5 747.5 c 128,-1,9
 786 743 786 743 818 723 c 1,10,-1
 778 650 l 1,11,12
 748 668 748 668 717 658 c 128,-1,13
 686 648 686 648 666 604 c 2,14,-1
 406 0 l 1,15,-1
 308 0 l 1,0,-1
EndSplineSet
Substitution2: "'ss01' Style Set 1 lookup 50 subtable" uni01B2.loclTOD0.ss01
Substitution2: "'c2sc' Capitals to Small Capitals lookup 45 subtable" uni01B2.loclTOD0.sc
AlternateSubs2: "'aalt' Access All Alternates lookup 1 subtable" uni01B2.loclTOD0.sc uni01B2.loclTOD0.ss01
EndChar

StartChar: uni0181.loclXPE
Encoding: 65549 -1 375
Width: 739
GlyphClass: 1
Flags: W
LayerCount: 2
Fore
SplineSet
114 52 m 1,0,-1
 114 700 l 1,1,-1
 622 700 l 1,2,-1
 622 615 l 1,3,-1
 213 615 l 1,4,-1
 213 97 l 1,5,-1
 114 52 l 1,0,-1
404 -9 m 0,6,7
 331 -9 331 -9 254.5 7.5 c 128,-1,8
 178 24 178 24 114 52 c 1,9,-1
 199 113 l 1,10,11
 217 104 217 104 249.5 95.5 c 128,-1,12
 282 87 282 87 322 81 c 128,-1,13
 362 75 362 75 402 75 c 0,14,15
 437 75 437 75 470.5 81.5 c 128,-1,16
 504 88 504 88 530 102 c 128,-1,17
 556 116 556 116 571.5 140.5 c 128,-1,18
 587 165 587 165 587 201 c 0,19,20
 587 250 587 250 561.5 277.5 c 128,-1,21
 536 305 536 305 495.5 316.5 c 128,-1,22
 455 328 455 328 406 328 c 0,23,24
 353 328 353 328 297 317 c 128,-1,25
 241 306 241 306 199 291 c 1,26,-1
 197 369 l 1,27,28
 244 388 244 388 301.5 399 c 128,-1,29
 359 410 359 410 416 410 c 0,30,31
 468 410 468 410 517 399 c 128,-1,32
 566 388 566 388 604 363.5 c 128,-1,33
 642 339 642 339 664.5 299.5 c 128,-1,34
 687 260 687 260 687 201 c 0,35,36
 687 144 687 144 664.5 103.5 c 128,-1,37
 642 63 642 63 602.5 38.5 c 128,-1,38
 563 14 563 14 512 2.5 c 128,-1,39
 461 -9 461 -9 404 -9 c 0,6,7
EndSplineSet
EndChar

StartChar: A.ss01
Encoding: 65550 -1 376
Width: 800
GlyphClass: 2
Flags: W
AnchorPoint: "Anchor-3" 399 700 basechar 0
AnchorPoint: "Anchor-2" 701 0 basechar 0
AnchorPoint: "Anchor-0" 399 0 basechar 0
LayerCount: 2
Fore
SplineSet
99 0 m 1,0,-1
 99 393 l 2,1,2
 99 497 99 497 136.5 567 c 128,-1,3
 174 637 174 637 242 672.5 c 128,-1,4
 310 708 310 708 399 708 c 0,5,6
 490 708 490 708 558 672.5 c 128,-1,7
 626 637 626 637 663.5 567 c 128,-1,8
 701 497 701 497 701 393 c 2,9,-1
 701 0 l 1,10,-1
 601 0 l 1,11,-1
 601 402 l 2,12,13
 601 512 601 512 546.5 565.5 c 128,-1,14
 492 619 492 619 399 619 c 0,15,16
 307 619 307 619 252 565.5 c 128,-1,17
 197 512 197 512 197 402 c 2,18,-1
 197 0 l 1,19,-1
 99 0 l 1,0,-1
162 193 m 1,20,-1
 162 280 l 1,21,-1
 637 280 l 1,22,-1
 637 193 l 1,23,-1
 162 193 l 1,20,-1
EndSplineSet
EndChar

StartChar: uni023A.ss01
Encoding: 65579 -1 405
Width: 800
GlyphClass: 2
Flags: W
AnchorPoint: "Anchor-3" 399 700 basechar 0
AnchorPoint: "Anchor-2" 701 0 basechar 0
AnchorPoint: "Anchor-0" 399 0 basechar 0
LayerCount: 2
Fore
SplineSet
99 0 m 1,0,-1
 99 393 l 2,1,2
 99 497 99 497 136.5 567 c 128,-1,3
 174 637 174 637 242 672.5 c 128,-1,4
 310 708 310 708 399 708 c 0,5,6
 490 708 490 708 558 672.5 c 128,-1,7
 626 637 626 637 663.5 567 c 128,-1,8
 701 497 701 497 701 393 c 2,9,-1
 701 0 l 1,10,-1
 601 0 l 1,11,-1
 601 402 l 2,12,13
 601 512 601 512 546.5 565.5 c 128,-1,14
 492 619 492 619 399 619 c 0,15,16
 307 619 307 619 252 565.5 c 128,-1,17
 197 512 197 512 197 402 c 2,18,-1
 197 0 l 1,19,-1
 99 0 l 1,0,-1
162 193 m 1,20,-1
 162 280 l 1,21,-1
 637 280 l 1,22,-1
 637 193 l 1,23,-1
 162 193 l 1,20,-1
211 -70 m 1,24,-1
 590 770 l 1,25,-1
 669 770 l 1,26,-1
 291 -70 l 1,27,-1
 211 -70 l 1,24,-1
EndSplineSet
EndChar

StartChar: uni2C6F.ss01
Encoding: 65581 -1 407
Width: 800
GlyphClass: 2
Flags: W
AnchorPoint: "Anchor-3" 400 700 basechar 0
AnchorPoint: "Anchor-0" 400 0 basechar 0
LayerCount: 2
Fore
SplineSet
701 700 m 1,0,-1
 701 307 l 2,1,2
 701 204 701 204 663.5 133.5 c 128,-1,3
 626 63 626 63 558.5 27.5 c 128,-1,4
 491 -8 491 -8 400 -8 c 0,5,6
 310 -8 310 -8 242 27.5 c 128,-1,7
 174 63 174 63 136.5 133.5 c 128,-1,8
 99 204 99 204 99 307 c 2,9,-1
 99 700 l 1,10,-1
 199 700 l 1,11,-1
 199 298 l 2,12,13
 199 188 199 188 253 134.5 c 128,-1,14
 307 81 307 81 400 81 c 0,15,16
 494 81 494 81 548.5 134.5 c 128,-1,17
 603 188 603 188 603 298 c 2,18,-1
 603 700 l 1,19,-1
 701 700 l 1,0,-1
638 507 m 1,20,-1
 638 420 l 1,21,-1
 162 420 l 1,22,-1
 162 507 l 1,23,-1
 638 507 l 1,20,-1
EndSplineSet
EndChar

StartChar: AE.ss01
Encoding: 65582 -1 408
Width: 1074
GlyphClass: 2
Flags: W
AnchorPoint: "Anchor-3" 532 700 basechar 0
AnchorPoint: "Anchor-0" 532 0 basechar 0
LayerCount: 2
Fore
SplineSet
526 0 m 1,0,-1
 526 700 l 1,1,-1
 1021 700 l 1,2,-1
 1021 615 l 1,3,-1
 624 615 l 1,4,-1
 624 396 l 1,5,-1
 977 396 l 1,6,-1
 977 315 l 1,7,-1
 624 315 l 1,8,-1
 624 85 l 1,9,-1
 1035 85 l 1,10,-1
 1035 0 l 1,11,-1
 526 0 l 1,0,-1
153 203 m 1,12,-1
 153 287 l 1,13,-1
 575 287 l 1,14,-1
 575 203 l 1,15,-1
 153 203 l 1,12,-1
90 0 m 1,16,-1
 90 393 l 2,17,18
 90 541 90 541 166 620.5 c 128,-1,19
 242 700 242 700 383 700 c 2,20,-1
 575 700 l 1,21,-1
 575 610 l 1,22,-1
 390 610 l 2,23,24
 292 610 292 610 241 554.5 c 128,-1,25
 190 499 190 499 190 391 c 2,26,-1
 190 0 l 1,27,-1
 90 0 l 1,16,-1
EndSplineSet
EndChar

StartChar: E.ss01
Encoding: 65589 -1 415
Width: 644
GlyphClass: 2
Flags: W
AnchorPoint: "Anchor-3" 350 700 basechar 0
AnchorPoint: "Anchor-2" 593 0 basechar 0
AnchorPoint: "Anchor-0" 350 0 basechar 0
LayerCount: 2
Fore
SplineSet
349 -8 m 0,0,1
 251 -8 251 -8 184.5 17.5 c 128,-1,2
 118 43 118 43 84.5 88.5 c 128,-1,3
 51 134 51 134 51 192 c 0,4,5
 51 247 51 247 79 287 c 128,-1,6
 107 327 107 327 153 348.5 c 128,-1,7
 199 370 199 370 252 370 c 1,8,-1
 257 341 l 1,9,10
 205 341 205 341 164.5 363 c 128,-1,11
 124 385 124 385 102.5 424 c 128,-1,12
 81 463 81 463 81 512 c 0,13,14
 81 565 81 565 111.5 609.5 c 128,-1,15
 142 654 142 654 205.5 681 c 128,-1,16
 269 708 269 708 364 708 c 0,17,18
 430 708 430 708 491 694 c 128,-1,19
 552 680 552 680 597 654 c 1,20,-1
 568 574 l 1,21,22
 521 599 521 599 471.5 610.5 c 128,-1,23
 422 622 422 622 368 622 c 0,24,25
 274 622 274 622 227.5 588.5 c 128,-1,26
 181 555 181 555 181 505 c 0,27,28
 181 453 181 453 218 425 c 128,-1,29
 255 397 255 397 324 397 c 2,30,-1
 504 397 l 1,31,-1
 504 311 l 1,32,-1
 320 311 l 2,33,34
 269 311 269 311 231 299 c 128,-1,35
 193 287 193 287 172 262 c 128,-1,36
 151 237 151 237 151 199 c 0,37,38
 151 145 151 145 200.5 111.5 c 128,-1,39
 250 78 250 78 354 78 c 0,40,41
 424 78 424 78 487.5 97 c 128,-1,42
 551 116 551 116 592 151 c 1,43,-1
 626 73 l 1,44,45
 581 35 581 35 508 13.5 c 128,-1,46
 435 -8 435 -8 349 -8 c 0,0,1
EndSplineSet
EndChar

StartChar: Eogonek.ss01
Encoding: 65612 -1 438
Width: 644
GlyphClass: 2
Flags: W
AnchorPoint: "Anchor-3" 350 700 basechar 0
AnchorPoint: "Anchor-0" 350 0 basechar 0
LayerCount: 2
Fore
SplineSet
525 -224 m 0,0,1
 469 -224 469 -224 437 -196 c 128,-1,2
 405 -168 405 -168 405 -123 c 0,3,4
 405 -83 405 -83 425 -43 c 128,-1,5
 445 -3 445 -3 495 35 c 1,6,-1
 511 17 l 1,7,8
 474 5 474 5 434 -1.5 c 128,-1,9
 394 -8 394 -8 349 -8 c 0,10,11
 251 -8 251 -8 184.5 17.5 c 128,-1,12
 118 43 118 43 84.5 88.5 c 128,-1,13
 51 134 51 134 51 192 c 0,14,15
 51 247 51 247 79 287 c 128,-1,16
 107 327 107 327 153 348.5 c 128,-1,17
 199 370 199 370 252 370 c 1,18,-1
 257 341 l 1,19,20
 205 341 205 341 164.5 363 c 128,-1,21
 124 385 124 385 102.5 424 c 128,-1,22
 81 463 81 463 81 512 c 0,23,24
 81 565 81 565 111.5 609.5 c 128,-1,25
 142 654 142 654 205.5 681 c 128,-1,26
 269 708 269 708 364 708 c 0,27,28
 430 708 430 708 491 694 c 128,-1,29
 552 680 552 680 597 654 c 1,30,-1
 568 574 l 1,31,32
 521 599 521 599 471.5 610.5 c 128,-1,33
 422 622 422 622 368 622 c 0,34,35
 274 622 274 622 227.5 588.5 c 128,-1,36
 181 555 181 555 181 505 c 0,37,38
 181 453 181 453 218 425 c 128,-1,39
 255 397 255 397 324 397 c 2,40,-1
 504 397 l 1,41,-1
 504 311 l 1,42,-1
 320 311 l 2,43,44
 269 311 269 311 231 299 c 128,-1,45
 193 287 193 287 172 262 c 128,-1,46
 151 237 151 237 151 199 c 0,47,48
 151 145 151 145 200.5 111.5 c 128,-1,49
 250 78 250 78 354 78 c 0,50,51
 424 78 424 78 487.5 98.5 c 128,-1,52
 551 119 551 119 592 151 c 1,53,-1
 626 72 l 1,54,55
 564 30 564 30 531 -3.5 c 128,-1,56
 498 -37 498 -37 485.5 -64 c 128,-1,57
 473 -91 473 -91 473 -114 c 0,58,59
 473 -140 473 -140 490.5 -154 c 128,-1,60
 508 -168 508 -168 535 -168 c 0,61,62
 551 -168 551 -168 567.5 -163 c 128,-1,63
 584 -158 584 -158 596 -151 c 1,64,-1
 615 -200 l 1,65,66
 596 -211 596 -211 573 -217.5 c 128,-1,67
 550 -224 550 -224 525 -224 c 0,0,1
EndSplineSet
EndChar

StartChar: uni0246.ss01
Encoding: 65613 -1 439
Width: 644
GlyphClass: 2
Flags: W
AnchorPoint: "Anchor-3" 339 700 basechar 0
AnchorPoint: "Anchor-2" 425 0 basechar 0
AnchorPoint: "Anchor-0" 339 0 basechar 0
LayerCount: 2
Fore
SplineSet
349 -8 m 0,0,1
 251 -8 251 -8 184.5 17.5 c 128,-1,2
 118 43 118 43 84.5 88.5 c 128,-1,3
 51 134 51 134 51 192 c 0,4,5
 51 247 51 247 79 287 c 128,-1,6
 107 327 107 327 153 348.5 c 128,-1,7
 199 370 199 370 252 370 c 1,8,-1
 257 341 l 1,9,10
 205 341 205 341 164.5 363 c 128,-1,11
 124 385 124 385 102.5 424 c 128,-1,12
 81 463 81 463 81 512 c 0,13,14
 81 565 81 565 111.5 609.5 c 128,-1,15
 142 654 142 654 205.5 681 c 128,-1,16
 269 708 269 708 364 708 c 0,17,18
 430 708 430 708 491 694 c 128,-1,19
 552 680 552 680 597 654 c 1,20,-1
 568 574 l 1,21,22
 521 599 521 599 471.5 610.5 c 128,-1,23
 422 622 422 622 368 622 c 0,24,25
 274 622 274 622 227.5 588.5 c 128,-1,26
 181 555 181 555 181 505 c 0,27,28
 181 453 181 453 218 425 c 128,-1,29
 255 397 255 397 324 397 c 2,30,-1
 504 397 l 1,31,-1
 504 311 l 1,32,-1
 320 311 l 2,33,34
 269 311 269 311 231 299 c 128,-1,35
 193 287 193 287 172 262 c 128,-1,36
 151 237 151 237 151 199 c 0,37,38
 151 145 151 145 200.5 111.5 c 128,-1,39
 250 78 250 78 354 78 c 0,40,41
 424 78 424 78 487.5 97 c 128,-1,42
 551 116 551 116 592 151 c 1,43,-1
 626 73 l 1,44,45
 581 35 581 35 508 13.5 c 128,-1,46
 435 -8 435 -8 349 -8 c 0,0,1
139 -70 m 1,47,-1
 518 770 l 1,48,-1
 597 770 l 1,49,-1
 219 -70 l 1,50,-1
 139 -70 l 1,47,-1
EndSplineSet
EndChar

StartChar: uni018E.ss01
Encoding: 65616 -1 442
Width: 633
GlyphClass: 2
Flags: W
AnchorPoint: "Anchor-3" 264 700 basechar 0
AnchorPoint: "Anchor-0" 264 0 basechar 0
LayerCount: 2
Fore
SplineSet
276 -8 m 0,0,1
 190 -8 190 -8 118.5 13.5 c 128,-1,2
 47 35 47 35 1 73 c 1,3,-1
 35 151 l 1,4,5
 77 116 77 116 139.5 97 c 128,-1,6
 202 78 202 78 277 78 c 0,7,8
 378 78 378 78 427 111.5 c 128,-1,9
 476 145 476 145 476 203 c 0,10,11
 476 243 476 243 455 269.5 c 128,-1,12
 434 296 434 296 396.5 308.5 c 128,-1,13
 359 321 359 321 308 321 c 2,14,-1
 143 321 l 1,15,-1
 143 402 l 1,16,-1
 303 402 l 2,17,18
 371 402 371 402 408.5 427.5 c 128,-1,19
 446 453 446 453 446 504 c 0,20,21
 446 546 446 546 423 571.5 c 128,-1,22
 400 597 400 597 362.5 609 c 128,-1,23
 325 621 325 621 280 621 c 0,24,25
 244 621 244 621 205.5 614 c 128,-1,26
 167 607 167 607 131 594.5 c 128,-1,27
 95 582 95 582 64 566 c 1,28,-1
 35 646 l 1,29,30
 89 676 89 676 152.5 691.5 c 128,-1,31
 216 707 216 707 279 707 c 0,32,33
 332 707 332 707 380 695.5 c 128,-1,34
 428 684 428 684 465.5 661 c 128,-1,35
 503 638 503 638 524.5 602 c 128,-1,36
 546 566 546 566 546 518 c 256,37,38
 546 470 546 470 524.5 431 c 128,-1,39
 503 392 503 392 463 369 c 128,-1,40
 423 346 423 346 370 346 c 1,41,-1
 375 375 l 1,42,43
 429 375 429 375 475 354 c 128,-1,44
 521 333 521 333 548.5 293.5 c 128,-1,45
 576 254 576 254 576 197 c 0,46,47
 576 138 576 138 541.5 91.5 c 128,-1,48
 507 45 507 45 440.5 18.5 c 128,-1,49
 374 -8 374 -8 276 -8 c 0,0,1
EndSplineSet
EndChar

StartChar: uni018F.ss01
Encoding: 65617 -1 443
Width: 817
GlyphClass: 2
Flags: W
AnchorPoint: "Anchor-3" 408 700 basechar 0
AnchorPoint: "Anchor-2" 458 0 basechar 0
AnchorPoint: "Anchor-0" 408 0 basechar 0
LayerCount: 2
Fore
SplineSet
409 -8 m 0,0,1
 328 -8 328 -8 260.5 21 c 128,-1,2
 193 50 193 50 144 102.5 c 128,-1,3
 95 155 95 155 69 229 c 1,4,-1
 665 471 l 1,5,-1
 687 390 l 1,6,-1
 144 168 l 1,7,-1
 173 241 l 1,8,9
 197 167 197 167 258 122.5 c 128,-1,10
 319 78 319 78 409 78 c 0,11,12
 467 78 467 78 514.5 97.5 c 128,-1,13
 562 117 562 117 596.5 152.5 c 128,-1,14
 631 188 631 188 650 237 c 128,-1,15
 669 286 669 286 669 345 c 2,16,-1
 669 354 l 2,17,18
 669 411 669 411 648.5 459.5 c 128,-1,19
 628 508 628 508 591.5 543.5 c 128,-1,20
 555 579 555 579 506.5 599 c 128,-1,21
 458 619 458 619 402 619 c 0,22,23
 361 619 361 619 321.5 610 c 128,-1,24
 282 601 282 601 246.5 583 c 128,-1,25
 211 565 211 565 182 537 c 1,26,-1
 122 606 l 1,27,28
 155 639 155 639 198.5 661.5 c 128,-1,29
 242 684 242 684 294 696 c 128,-1,30
 346 708 346 708 403 708 c 0,31,32
 483 708 483 708 549.5 681.5 c 128,-1,33
 616 655 616 655 665.5 606.5 c 128,-1,34
 715 558 715 558 742 493 c 128,-1,35
 769 428 769 428 769 351 c 256,36,37
 769 274 769 274 742 208.5 c 128,-1,38
 715 143 715 143 666 94.5 c 128,-1,39
 617 46 617 46 551.5 19 c 128,-1,40
 486 -8 486 -8 409 -8 c 0,0,1
EndSplineSet
EndChar

StartChar: F.ss01
Encoding: 65618 -1 444
Width: 606
GlyphClass: 2
Flags: W
AnchorPoint: "Anchor-3" 360 700 basechar 0
AnchorPoint: "Anchor-0" 360 0 basechar 0
LayerCount: 2
Fore
SplineSet
99 0 m 1,0,-1
 99 450 l 2,1,2
 99 570 99 570 175.5 639 c 128,-1,3
 252 708 252 708 389 708 c 0,4,5
 448 708 448 708 500 695 c 128,-1,6
 552 682 552 682 591 655 c 1,7,-1
 558 572 l 1,8,9
 523 597 523 597 480.5 608 c 128,-1,10
 438 619 438 619 392 619 c 0,11,12
 295 619 295 619 247 575 c 128,-1,13
 199 531 199 531 199 449 c 2,14,-1
 199 0 l 1,15,-1
 99 0 l 1,0,-1
162 283 m 1,16,-1
 162 369 l 1,17,-1
 519 369 l 1,18,-1
 519 283 l 1,19,-1
 162 283 l 1,16,-1
EndSplineSet
EndChar

StartChar: uni0191.ss01
Encoding: 65620 -1 446
Width: 631
GlyphClass: 1
Flags: W
LayerCount: 2
Fore
SplineSet
-25 -182 m 1,0,-1
 3 -104 l 1,1,2
 24 -114 24 -114 45 -114 c 128,-1,3
 66 -114 66 -114 84 -105.5 c 128,-1,4
 102 -97 102 -97 113 -79.5 c 128,-1,5
 124 -62 124 -62 124 -35 c 2,6,-1
 124 450 l 2,7,8
 124 570 124 570 200.5 639 c 128,-1,9
 277 708 277 708 414 708 c 0,10,11
 473 708 473 708 525 695 c 128,-1,12
 577 682 577 682 616 655 c 1,13,-1
 583 572 l 1,14,15
 548 597 548 597 505.5 608 c 128,-1,16
 463 619 463 619 417 619 c 0,17,18
 320 619 320 619 272 575 c 128,-1,19
 224 531 224 531 224 449 c 2,20,-1
 224 -36 l 2,21,22
 224 -79 224 -79 208.5 -111 c 128,-1,23
 193 -143 193 -143 168 -164 c 128,-1,24
 143 -185 143 -185 110 -193.5 c 128,-1,25
 77 -202 77 -202 42.5 -199.5 c 128,-1,26
 8 -197 8 -197 -25 -182 c 1,0,-1
187 283 m 1,27,-1
 187 369 l 1,28,-1
 544 369 l 1,29,-1
 544 283 l 1,30,-1
 187 283 l 1,27,-1
EndSplineSet
EndChar

StartChar: G.ss01
Encoding: 65621 -1 447
Width: 772
GlyphClass: 2
Flags: W
AnchorPoint: "Anchor-3" 410 700 basechar 0
AnchorPoint: "Anchor-0" 405 0 basechar 0
LayerCount: 2
Fore
SplineSet
403 -8 m 0,0,1
 333 -8 333 -8 269 15 c 128,-1,2
 205 38 205 38 155 83.5 c 128,-1,3
 105 129 105 129 76.5 195 c 128,-1,4
 48 261 48 261 48 347 c 0,5,6
 48 426 48 426 76 491.5 c 128,-1,7
 104 557 104 557 154.5 606 c 128,-1,8
 205 655 205 655 273 681.5 c 128,-1,9
 341 708 341 708 423 708 c 0,10,11
 506 708 506 708 575 681 c 128,-1,12
 644 654 644 654 692 600 c 1,13,-1
 630 538 l 1,14,15
 587 580 587 580 536.5 599.5 c 128,-1,16
 486 619 486 619 427 619 c 0,17,18
 367 619 367 619 315.5 599 c 128,-1,19
 264 579 264 579 226.5 543 c 128,-1,20
 189 507 189 507 168.5 457 c 128,-1,21
 148 407 148 407 148 347 c 0,22,23
 148 282 148 282 169.5 232 c 128,-1,24
 191 182 191 182 228.5 148 c 128,-1,25
 266 114 266 114 312.5 96.5 c 128,-1,26
 359 79 359 79 411 79 c 0,27,28
 469 79 469 79 524 102 c 128,-1,29
 579 125 579 125 618 174 c 1,30,-1
 660 112 l 1,31,32
 623 52 623 52 555 22 c 128,-1,33
 487 -8 487 -8 403 -8 c 0,0,1
598 0 m 1,34,-1
 598 93 l 1,35,-1
 590 106 l 1,36,-1
 590 354 l 1,37,-1
 686 354 l 1,38,-1
 686 0 l 1,39,-1
 598 0 l 1,34,-1
EndSplineSet
EndChar

StartChar: uni0193.ss01
Encoding: 65628 -1 454
Width: 780
GlyphClass: 2
Flags: W
AnchorPoint: "Anchor-3" 410 700 basechar 0
AnchorPoint: "Anchor-0" 405 0 basechar 0
LayerCount: 2
Fore
SplineSet
601 600 m 1,0,-1
 601 675 l 2,1,2
 601 728 601 728 621.5 764 c 128,-1,3
 642 800 642 800 675 819 c 128,-1,4
 708 838 708 838 749 839.5 c 128,-1,5
 790 841 790 841 831 824 c 1,6,-1
 804 746 l 1,7,8
 777 757 777 757 751.5 752 c 128,-1,9
 726 747 726 747 709 727.5 c 128,-1,10
 692 708 692 708 692 675 c 2,11,-1
 692 600 l 1,12,-1
 601 600 l 1,0,-1
403 -8 m 0,13,14
 333 -8 333 -8 269 15 c 128,-1,15
 205 38 205 38 155 83.5 c 128,-1,16
 105 129 105 129 76.5 195 c 128,-1,17
 48 261 48 261 48 347 c 0,18,19
 48 426 48 426 76 491.5 c 128,-1,20
 104 557 104 557 154.5 606 c 128,-1,21
 205 655 205 655 273 681.5 c 128,-1,22
 341 708 341 708 423 708 c 0,23,24
 506 708 506 708 575 681 c 128,-1,25
 644 654 644 654 692 600 c 1,26,-1
 630 538 l 1,27,28
 587 580 587 580 536.5 599.5 c 128,-1,29
 486 619 486 619 427 619 c 0,30,31
 367 619 367 619 315.5 599 c 128,-1,32
 264 579 264 579 226.5 543 c 128,-1,33
 189 507 189 507 168.5 457 c 128,-1,34
 148 407 148 407 148 347 c 0,35,36
 148 282 148 282 169.5 232 c 128,-1,37
 191 182 191 182 228.5 148 c 128,-1,38
 266 114 266 114 312.5 96.5 c 128,-1,39
 359 79 359 79 411 79 c 0,40,41
 469 79 469 79 524 102 c 128,-1,42
 579 125 579 125 618 174 c 1,43,-1
 660 112 l 1,44,45
 623 52 623 52 555 22 c 128,-1,46
 487 -8 487 -8 403 -8 c 0,13,14
598 0 m 1,47,-1
 598 93 l 1,48,-1
 590 106 l 1,49,-1
 590 354 l 1,50,-1
 686 354 l 1,51,-1
 686 0 l 1,52,-1
 598 0 l 1,47,-1
EndSplineSet
EndChar

StartChar: uni01E4.ss01
Encoding: 65630 -1 456
Width: 812
GlyphClass: 2
Flags: W
AnchorPoint: "Anchor-3" 410 700 basechar 0
AnchorPoint: "Anchor-0" 405 0 basechar 0
LayerCount: 2
Fore
SplineSet
403 -8 m 0,0,1
 333 -8 333 -8 269 15 c 128,-1,2
 205 38 205 38 155 83.5 c 128,-1,3
 105 129 105 129 76.5 195 c 128,-1,4
 48 261 48 261 48 347 c 0,5,6
 48 426 48 426 76 491.5 c 128,-1,7
 104 557 104 557 154.5 606 c 128,-1,8
 205 655 205 655 273 681.5 c 128,-1,9
 341 708 341 708 423 708 c 0,10,11
 506 708 506 708 575 681 c 128,-1,12
 644 654 644 654 692 600 c 1,13,-1
 630 538 l 1,14,15
 587 580 587 580 536.5 599.5 c 128,-1,16
 486 619 486 619 427 619 c 0,17,18
 367 619 367 619 315.5 599 c 128,-1,19
 264 579 264 579 226.5 543 c 128,-1,20
 189 507 189 507 168.5 457 c 128,-1,21
 148 407 148 407 148 347 c 0,22,23
 148 282 148 282 169.5 232 c 128,-1,24
 191 182 191 182 228.5 148 c 128,-1,25
 266 114 266 114 312.5 96.5 c 128,-1,26
 359 79 359 79 411 79 c 0,27,28
 469 79 469 79 524 102 c 128,-1,29
 579 125 579 125 618 174 c 1,30,-1
 660 112 l 1,31,32
 623 52 623 52 555 22 c 128,-1,33
 487 -8 487 -8 403 -8 c 0,0,1
598 0 m 1,34,-1
 598 93 l 1,35,-1
 590 106 l 1,36,-1
 590 354 l 1,37,-1
 686 354 l 1,38,-1
 686 0 l 1,39,-1
 598 0 l 1,34,-1
437 209 m 1,40,-1
 437 288 l 1,41,-1
 789 288 l 1,42,-1
 789 209 l 1,43,-1
 437 209 l 1,40,-1
EndSplineSet
EndChar

StartChar: I.ss01
Encoding: 65631 -1 457
Width: 456
GlyphClass: 2
Flags: W
AnchorPoint: "Anchor-3" 229 700 basechar 0
AnchorPoint: "Anchor-2" 288 0 basechar 0
AnchorPoint: "Anchor-0" 229 0 basechar 0
LayerCount: 2
Fore
SplineSet
178 14 m 1,0,-1
 178 687 l 1,1,-1
 278 687 l 1,2,-1
 278 14 l 1,3,-1
 178 14 l 1,0,-1
43 0 m 1,4,-1
 43 85 l 1,5,-1
 413 85 l 1,6,-1
 413 0 l 1,7,-1
 43 0 l 1,4,-1
43 615 m 1,8,-1
 43 700 l 1,9,-1
 413 700 l 1,10,-1
 413 615 l 1,11,-1
 43 615 l 1,8,-1
EndSplineSet
EndChar

StartChar: IJ.ss01
Encoding: 65632 -1 458
Width: 720
GlyphClass: 2
Flags: W
AnchorPoint: "Anchor-3" 168 700 basechar 0
LayerCount: 2
Fore
SplineSet
327 -108 m 0,0,1
 256 -108 256 -108 194.5 -88.5 c 128,-1,2
 133 -69 133 -69 87 -37 c 1,3,-1
 126 43 l 1,4,5
 169 13 169 13 221.5 -3 c 128,-1,6
 274 -19 274 -19 329 -19 c 0,7,8
 421 -19 421 -19 471 35 c 128,-1,9
 521 89 521 89 521 202 c 2,10,-1
 521 700 l 1,11,-1
 621 700 l 1,12,-1
 621 207 l 2,13,14
 621 103 621 103 584 33 c 128,-1,15
 547 -37 547 -37 481.5 -72.5 c 128,-1,16
 416 -108 416 -108 327 -108 c 0,0,1
99 209 m 1,17,-1
 99 700 l 1,18,-1
 199 700 l 1,19,-1
 199 209 l 1,20,-1
 99 209 l 1,17,-1
EndSplineSet
EndChar

StartChar: Iogonek.ss01
Encoding: 65645 -1 471
Width: 456
GlyphClass: 2
Flags: W
AnchorPoint: "Anchor-3" 229 700 basechar 0
AnchorPoint: "Anchor-2" 288 0 basechar 0
AnchorPoint: "Anchor-0" 229 0 basechar 0
LayerCount: 2
Fore
SplineSet
178 14 m 1,0,-1
 178 687 l 1,1,-1
 278 687 l 1,2,-1
 278 14 l 1,3,-1
 178 14 l 1,0,-1
236 -225 m 0,4,5
 204 -225 204 -225 177 -213.5 c 128,-1,6
 150 -202 150 -202 132.5 -179 c 128,-1,7
 115 -156 115 -156 115 -122 c 0,8,9
 115 -96 115 -96 127 -68 c 128,-1,10
 139 -40 139 -40 162 -14 c 128,-1,11
 185 12 185 12 219 31 c 1,12,-1
 263 0 l 1,13,14
 222 -27 222 -27 202.5 -58 c 128,-1,15
 183 -89 183 -89 183 -114 c 0,16,17
 183 -143 183 -143 202.5 -155.5 c 128,-1,18
 222 -168 222 -168 247 -168 c 0,19,20
 263 -168 263 -168 279 -163 c 128,-1,21
 295 -158 295 -158 307 -151 c 1,22,-1
 326 -200 l 1,23,24
 306 -213 306 -213 282.5 -219 c 128,-1,25
 259 -225 259 -225 236 -225 c 0,4,5
43 0 m 1,26,-1
 43 87 l 1,27,-1
 413 87 l 1,28,-1
 413 0 l 1,29,-1
 43 0 l 1,26,-1
43 613 m 1,30,-1
 43 700 l 1,31,-1
 413 700 l 1,32,-1
 413 613 l 1,33,-1
 43 613 l 1,30,-1
EndSplineSet
EndChar

StartChar: uni0197.ss01
Encoding: 65646 -1 472
Width: 456
GlyphClass: 2
Flags: W
AnchorPoint: "Anchor-3" 229 700 basechar 0
AnchorPoint: "Anchor-2" 288 0 basechar 0
AnchorPoint: "Anchor-0" 229 0 basechar 0
LayerCount: 2
Fore
SplineSet
178 14 m 1,0,-1
 178 687 l 1,1,-1
 278 687 l 1,2,-1
 278 14 l 1,3,-1
 178 14 l 1,0,-1
43 0 m 1,4,-1
 43 85 l 1,5,-1
 413 85 l 1,6,-1
 413 0 l 1,7,-1
 43 0 l 1,4,-1
43 615 m 1,8,-1
 43 700 l 1,9,-1
 413 700 l 1,10,-1
 413 615 l 1,11,-1
 43 615 l 1,8,-1
75 319 m 1,12,-1
 75 398 l 1,13,-1
 381 398 l 1,14,-1
 381 319 l 1,15,-1
 75 319 l 1,12,-1
EndSplineSet
EndChar

StartChar: J.ss01
Encoding: 65649 -1 475
Width: 511
GlyphClass: 2
Flags: W
AnchorPoint: "Anchor-3" 236 700 basechar 0
LayerCount: 2
Fore
SplineSet
192 -108 m 0,0,1
 130 -108 130 -108 77.5 -82 c 128,-1,2
 25 -56 25 -56 -9 -7 c 1,3,-1
 47 61 l 1,4,5
 76 21 76 21 112 -0.5 c 128,-1,6
 148 -22 148 -22 191 -22 c 0,7,8
 312 -22 312 -22 312 120 c 2,9,-1
 312 613 l 1,10,-1
 60 613 l 1,11,-1
 60 700 l 1,12,-1
 412 700 l 1,13,-1
 412 125 l 2,14,15
 412 8 412 8 356 -50 c 128,-1,16
 300 -108 300 -108 192 -108 c 0,0,1
EndSplineSet
EndChar

StartChar: uniA7B2.ss01
Encoding: 65651 -1 477
Width: 511
GlyphClass: 2
Flags: W
AnchorPoint: "Anchor-3" 236 700 basechar 0
LayerCount: 2
Fore
SplineSet
200 -106 m 0,0,1
 150 -106 150 -106 109 -88 c 128,-1,2
 68 -70 68 -70 44 -38 c 128,-1,3
 20 -6 20 -6 20 38 c 0,4,5
 20 76 20 76 41 110 c 128,-1,6
 62 144 62 144 109.5 166 c 128,-1,7
 157 188 157 188 234 188 c 2,8,-1
 492 188 l 1,9,-1
 492 108 l 1,10,-1
 234 108 l 2,11,12
 187 108 187 108 160.5 96.5 c 128,-1,13
 134 85 134 85 123 69 c 128,-1,14
 112 53 112 53 112 37 c 256,15,16
 112 21 112 21 122.5 6 c 128,-1,17
 133 -9 133 -9 152.5 -17.5 c 128,-1,18
 172 -26 172 -26 197 -26 c 0,19,20
 225 -26 225 -26 251 -14 c 128,-1,21
 277 -2 277 -2 294.5 26.5 c 128,-1,22
 312 55 312 55 312 103 c 2,23,-1
 312 613 l 1,24,-1
 60 613 l 1,25,-1
 60 700 l 1,26,-1
 412 700 l 1,27,-1
 412 103 l 2,28,29
 412 29 412 29 380.5 -17 c 128,-1,30
 349 -63 349 -63 300 -84.5 c 128,-1,31
 251 -106 251 -106 200 -106 c 0,0,1
EndSplineSet
EndChar

StartChar: uni0248.ss01
Encoding: 65652 -1 478
Width: 511
GlyphClass: 2
Flags: W
AnchorPoint: "Anchor-3" 236 700 basechar 0
LayerCount: 2
Fore
SplineSet
192 -108 m 0,0,1
 130 -108 130 -108 77.5 -82 c 128,-1,2
 25 -56 25 -56 -9 -7 c 1,3,-1
 47 61 l 1,4,5
 76 21 76 21 112 -0.5 c 128,-1,6
 148 -22 148 -22 191 -22 c 0,7,8
 312 -22 312 -22 312 120 c 2,9,-1
 312 613 l 1,10,-1
 60 613 l 1,11,-1
 60 700 l 1,12,-1
 412 700 l 1,13,-1
 412 125 l 2,14,15
 412 8 412 8 356 -50 c 128,-1,16
 300 -108 300 -108 192 -108 c 0,0,1
159 319 m 1,17,-1
 159 398 l 1,18,-1
 515 398 l 1,19,-1
 515 319 l 1,20,-1
 159 319 l 1,17,-1
EndSplineSet
EndChar

StartChar: M.ss01
Encoding: 65654 -1 480
Width: 1227
GlyphClass: 2
Flags: W
AnchorPoint: "Anchor-3" 617 700 basechar 0
AnchorPoint: "Anchor-0" 617 0 basechar 0
LayerCount: 2
Fore
SplineSet
105 0 m 1,0,-1
 105 700 l 1,1,-1
 201 700 l 1,2,-1
 201 560 l 1,3,-1
 189 574 l 1,4,5
 216 637 216 637 276 672.5 c 128,-1,6
 336 708 336 708 420 708 c 0,7,8
 509 708 509 708 569.5 668.5 c 128,-1,9
 630 629 630 629 650 560 c 1,10,-1
 623 561 l 1,11,12
 651 632 651 632 717 670 c 128,-1,13
 783 708 783 708 870 708 c 0,14,15
 989 708 989 708 1058 639 c 128,-1,16
 1127 570 1127 570 1127 435 c 2,17,-1
 1127 0 l 1,18,-1
 1028 0 l 1,19,-1
 1028 432 l 2,20,21
 1028 528 1028 528 978.5 573.5 c 128,-1,22
 929 619 929 619 853 619 c 0,23,24
 770 619 770 619 717.5 571.5 c 128,-1,25
 665 524 665 524 665 418 c 2,26,-1
 665 0 l 1,27,-1
 566 0 l 1,28,-1
 566 432 l 2,29,30
 566 528 566 528 519 573.5 c 128,-1,31
 472 619 472 619 396 619 c 0,32,33
 341 619 341 619 297.5 598 c 128,-1,34
 254 577 254 577 229.5 533 c 128,-1,35
 205 489 205 489 205 418 c 2,36,-1
 205 0 l 1,37,-1
 105 0 l 1,0,-1
EndSplineSet
EndChar

StartChar: N.ss01
Encoding: 65656 -1 482
Width: 798
GlyphClass: 2
Flags: W
AnchorPoint: "Anchor-3" 402 700 basechar 0
AnchorPoint: "Anchor-0" 401 0 basechar 0
LayerCount: 2
Fore
SplineSet
105 0 m 1,0,-1
 105 700 l 1,1,-1
 201 700 l 1,2,-1
 201 529 l 1,3,-1
 173 545 l 1,4,5
 206 630 206 630 272.5 669 c 128,-1,6
 339 708 339 708 431 708 c 0,7,8
 556 708 556 708 627.5 632.5 c 128,-1,9
 699 557 699 557 699 415 c 2,10,-1
 699 0 l 1,11,-1
 600 0 l 1,12,-1
 600 412 l 2,13,14
 600 516 600 516 549 567.5 c 128,-1,15
 498 619 498 619 411 619 c 0,16,17
 318 619 318 619 261.5 564.5 c 128,-1,18
 205 510 205 510 205 397 c 2,19,-1
 205 0 l 1,20,-1
 105 0 l 1,0,-1
EndSplineSet
EndChar

StartChar: Eng.ss01
Encoding: 65668 -1 494
Width: 798
GlyphClass: 2
Flags: W
AnchorPoint: "Anchor-3" 433 700 basechar 0
AnchorPoint: "Anchor-0" 399 -194 basechar 0
LayerCount: 2
Fore
SplineSet
482 -200 m 0,0,1
 428 -200 428 -200 380.5 -179.5 c 128,-1,2
 333 -159 333 -159 300 -121 c 1,3,-1
 349 -46 l 1,4,5
 373 -78 373 -78 406.5 -95.5 c 128,-1,6
 440 -113 440 -113 481 -113 c 0,7,8
 600 -113 600 -113 600 31 c 2,9,-1
 600 412 l 2,10,11
 600 516 600 516 549 567.5 c 128,-1,12
 498 619 498 619 411 619 c 0,13,14
 318 619 318 619 261.5 564.5 c 128,-1,15
 205 510 205 510 205 397 c 2,16,-1
 205 0 l 1,17,-1
 105 0 l 1,18,-1
 105 700 l 1,19,-1
 201 700 l 1,20,-1
 201 529 l 1,21,-1
 173 545 l 1,22,23
 206 630 206 630 272.5 669 c 128,-1,24
 339 708 339 708 431 708 c 0,25,26
 556 708 556 708 627.5 632.5 c 128,-1,27
 699 557 699 557 699 415 c 2,28,-1
 699 34 l 2,29,30
 699 -84 699 -84 644 -142 c 128,-1,31
 589 -200 589 -200 482 -200 c 0,0,1
EndSplineSet
EndChar

StartChar: Q.ss01
Encoding: 65669 -1 495
Width: 840
GlyphClass: 1
Flags: W
LayerCount: 2
Fore
SplineSet
421 -8 m 256,0,1
 341 -8 341 -8 272.5 19 c 128,-1,2
 204 46 204 46 154 94.5 c 128,-1,3
 104 143 104 143 76 208 c 128,-1,4
 48 273 48 273 48 350 c 256,5,6
 48 427 48 427 76 492 c 128,-1,7
 104 557 104 557 154 605.5 c 128,-1,8
 204 654 204 654 272 681 c 128,-1,9
 340 708 340 708 421 708 c 0,10,11
 501 708 501 708 568.5 681.5 c 128,-1,12
 636 655 636 655 686.5 606.5 c 128,-1,13
 737 558 737 558 764.5 493 c 128,-1,14
 792 428 792 428 792 350 c 256,15,16
 792 272 792 272 764.5 207 c 128,-1,17
 737 142 737 142 686.5 93.5 c 128,-1,18
 636 45 636 45 568.5 18.5 c 128,-1,19
 501 -8 501 -8 421 -8 c 256,0,1
370 -135 m 1,20,-1
 370 11 l 1,21,-1
 373 44 l 1,22,-1
 373 250 l 1,23,-1
 466 250 l 1,24,-1
 466 44 l 1,25,-1
 470 11 l 1,26,-1
 470 -135 l 1,27,-1
 370 -135 l 1,20,-1
421 81 m 0,28,29
 479 81 479 81 528.5 101 c 128,-1,30
 578 121 578 121 614.5 158 c 128,-1,31
 651 195 651 195 671.5 244 c 128,-1,32
 692 293 692 293 692 350 c 0,33,34
 692 408 692 408 671.5 457 c 128,-1,35
 651 506 651 506 614.5 542.5 c 128,-1,36
 578 579 578 579 528.5 599 c 128,-1,37
 479 619 479 619 421 619 c 0,38,39
 362 619 362 619 312.5 599 c 128,-1,40
 263 579 263 579 226 542.5 c 128,-1,41
 189 506 189 506 168.5 457 c 128,-1,42
 148 408 148 408 148 350 c 0,43,44
 148 293 148 293 168.5 244 c 128,-1,45
 189 195 189 195 226 158 c 128,-1,46
 263 121 263 121 312.5 101 c 128,-1,47
 362 81 362 81 421 81 c 0,28,29
EndSplineSet
EndChar

StartChar: T.ss01
Encoding: 65670 -1 496
Width: 598
GlyphClass: 2
Flags: W
AnchorPoint: "Anchor-3" 301 700 basechar 0
AnchorPoint: "Anchor-1" 299 358 basechar 0
AnchorPoint: "Anchor-0" 299 0 basechar 0
LayerCount: 2
Fore
SplineSet
31 549 m 1,0,-1
 -4 628 l 1,1,2
 66 669 66 669 143 688.5 c 128,-1,3
 220 708 220 708 298 708 c 0,4,5
 377 708 377 708 455 688.5 c 128,-1,6
 533 669 533 669 602 628 c 1,7,-1
 567 549 l 1,8,9
 505 585 505 585 437.5 602.5 c 128,-1,10
 370 620 370 620 298 620 c 0,11,12
 228 620 228 620 161 602.5 c 128,-1,13
 94 585 94 585 31 549 c 1,0,-1
250 0 m 1,14,-1
 250 655 l 1,15,-1
 349 655 l 1,16,-1
 349 0 l 1,17,-1
 250 0 l 1,14,-1
EndSplineSet
EndChar

StartChar: Tbar.ss01
Encoding: 65671 -1 497
Width: 598
GlyphClass: 2
Flags: W
AnchorPoint: "Anchor-3" 301 700 basechar 0
AnchorPoint: "Anchor-1" 299 358 basechar 0
AnchorPoint: "Anchor-0" 299 0 basechar 0
LayerCount: 2
Fore
SplineSet
31 549 m 1,0,-1
 -4 628 l 1,1,2
 66 669 66 669 143 688.5 c 128,-1,3
 220 708 220 708 298 708 c 0,4,5
 377 708 377 708 455 688.5 c 128,-1,6
 533 669 533 669 602 628 c 1,7,-1
 567 549 l 1,8,9
 505 585 505 585 437.5 602.5 c 128,-1,10
 370 620 370 620 298 620 c 0,11,12
 228 620 228 620 161 602.5 c 128,-1,13
 94 585 94 585 31 549 c 1,0,-1
250 0 m 1,14,-1
 250 655 l 1,15,-1
 349 655 l 1,16,-1
 349 0 l 1,17,-1
 250 0 l 1,14,-1
97 319 m 1,18,-1
 97 398 l 1,19,-1
 502 398 l 1,20,-1
 502 319 l 1,21,-1
 97 319 l 1,18,-1
EndSplineSet
EndChar

StartChar: uni023E.ss01
Encoding: 65676 -1 502
Width: 598
GlyphClass: 2
Flags: W
AnchorPoint: "Anchor-3" 300 700 basechar 0
AnchorPoint: "Anchor-1" 300 341 basechar 0
AnchorPoint: "Anchor-0" 300 0 basechar 0
LayerCount: 2
Fore
SplineSet
104 -70 m 1,0,-1
 483 770 l 1,1,-1
 562 770 l 1,2,-1
 183 -70 l 1,3,-1
 104 -70 l 1,0,-1
31 549 m 1,4,-1
 -4 628 l 1,5,6
 66 669 66 669 143 688.5 c 128,-1,7
 220 708 220 708 298 708 c 0,8,9
 377 708 377 708 455 688.5 c 128,-1,10
 533 669 533 669 602 628 c 1,11,-1
 567 549 l 1,12,13
 505 585 505 585 437.5 602.5 c 128,-1,14
 370 620 370 620 298 620 c 0,15,16
 228 620 228 620 161 602.5 c 128,-1,17
 94 585 94 585 31 549 c 1,4,-1
251 0 m 1,18,-1
 251 655 l 1,19,-1
 347 655 l 1,20,-1
 347 0 l 1,21,-1
 251 0 l 1,18,-1
EndSplineSet
EndChar

StartChar: uni01AC.ss01
Encoding: 65679 -1 505
Width: 611
GlyphClass: 2
Flags: W
AnchorPoint: "Anchor-3" 313 700 basechar 0
AnchorPoint: "Anchor-1" 313 339 basechar 0
AnchorPoint: "Anchor-0" 313 0 basechar 0
LayerCount: 2
Fore
SplineSet
59 373 m 1,0,1
 23 410 23 410 7 454.5 c 128,-1,2
 -9 499 -9 499 -1.5 544 c 128,-1,3
 6 589 6 589 41 625.5 c 128,-1,4
 76 662 76 662 141.5 685 c 128,-1,5
 207 708 207 708 307 708 c 0,6,7
 391 708 391 708 467.5 689.5 c 128,-1,8
 544 671 544 671 616 628 c 1,9,-1
 581 549 l 1,10,11
 535 575 535 575 491.5 590.5 c 128,-1,12
 448 606 448 606 402.5 613 c 128,-1,13
 357 620 357 620 306 620 c 0,14,15
 211 620 211 620 159.5 600.5 c 128,-1,16
 108 581 108 581 91.5 550 c 128,-1,17
 75 519 75 519 85 485 c 128,-1,18
 95 451 95 451 124 419 c 1,19,-1
 59 373 l 1,0,1
263 0 m 1,20,-1
 263 655 l 1,21,-1
 363 655 l 1,22,-1
 363 0 l 1,23,-1
 263 0 l 1,20,-1
EndSplineSet
EndChar

StartChar: uni01AE.ss01
Encoding: 65681 -1 507
Width: 622
GlyphClass: 2
Flags: W
AnchorPoint: "Anchor-3" 311 700 basechar 0
AnchorPoint: "Anchor-1" 311 339 basechar 0
AnchorPoint: "Anchor-0" 311 0 basechar 0
LayerCount: 2
Fore
SplineSet
543 -166 m 1,0,1
 500 -192 500 -192 451.5 -198 c 128,-1,2
 403 -204 403 -204 359.5 -189 c 128,-1,3
 316 -174 316 -174 288.5 -135.5 c 128,-1,4
 261 -97 261 -97 261 -36 c 2,5,-1
 261 628 l 1,6,-1
 360 628 l 1,7,-1
 360 -33 l 2,8,9
 360 -64 360 -64 374 -83.5 c 128,-1,10
 388 -103 388 -103 410 -110 c 128,-1,11
 432 -117 432 -117 458.5 -112.5 c 128,-1,12
 485 -108 485 -108 509 -92 c 1,13,-1
 543 -166 l 1,0,1
42 549 m 1,14,-1
 7 628 l 1,15,16
 77 669 77 669 154 688.5 c 128,-1,17
 231 708 231 708 310 708 c 256,18,19
 389 708 389 708 467 688.5 c 128,-1,20
 545 669 545 669 614 628 c 1,21,-1
 578 549 l 1,22,23
 517 585 517 585 449 602.5 c 128,-1,24
 381 620 381 620 310 620 c 256,25,26
 239 620 239 620 172 602.5 c 128,-1,27
 105 585 105 585 42 549 c 1,14,-1
EndSplineSet
EndChar

StartChar: uniA7B1.ss01
Encoding: 65682 -1 508
Width: 598
GlyphClass: 1
Flags: W
LayerCount: 2
Fore
SplineSet
567 151 m 1,0,-1
 602 72 l 1,1,2
 533 31 533 31 455.5 11.5 c 128,-1,3
 378 -8 378 -8 299 -8 c 0,4,5
 221 -8 221 -8 143 11.5 c 128,-1,6
 65 31 65 31 -4 72 c 1,7,-1
 31 151 l 1,8,9
 93 115 93 115 160.5 97.5 c 128,-1,10
 228 80 228 80 299 80 c 256,11,12
 370 80 370 80 437 97.5 c 128,-1,13
 504 115 504 115 567 151 c 1,0,-1
348 700 m 1,14,-1
 348 45 l 1,15,-1
 249 45 l 1,16,-1
 249 700 l 1,17,-1
 348 700 l 1,14,-1
EndSplineSet
EndChar

StartChar: U.ss01
Encoding: 65683 -1 509
Width: 794
GlyphClass: 2
Flags: W
AnchorPoint: "Anchor-4" 654 700 basechar 0
AnchorPoint: "Anchor-3" 392 700 basechar 0
AnchorPoint: "Anchor-2" 689 0 basechar 0
AnchorPoint: "Anchor-1" 395 358 basechar 0
AnchorPoint: "Anchor-0" 392 0 basechar 0
LayerCount: 2
Fore
SplineSet
365 -8 m 0,0,1
 242 -8 242 -8 170.5 67.5 c 128,-1,2
 99 143 99 143 99 285 c 2,3,-1
 99 700 l 1,4,-1
 199 700 l 1,5,-1
 199 288 l 2,6,7
 199 184 199 184 250 132.5 c 128,-1,8
 301 81 301 81 386 81 c 0,9,10
 477 81 477 81 533.5 135.5 c 128,-1,11
 590 190 590 190 590 303 c 2,12,-1
 590 700 l 1,13,-1
 689 700 l 1,14,-1
 689 0 l 1,15,-1
 593 0 l 1,16,-1
 593 171 l 1,17,-1
 621 155 l 1,18,19
 589 70 589 70 523 31 c 128,-1,20
 457 -8 457 -8 365 -8 c 0,0,1
EndSplineSet
EndChar

StartChar: uni0244.ss01
Encoding: 65685 -1 511
Width: 801
GlyphClass: 2
Flags: W
AnchorPoint: "Anchor-4" 653 700 basechar 0
AnchorPoint: "Anchor-3" 391 700 basechar 0
AnchorPoint: "Anchor-2" 688 0 basechar 0
AnchorPoint: "Anchor-1" 394 358 basechar 0
AnchorPoint: "Anchor-0" 391 0 basechar 0
LayerCount: 2
Fore
SplineSet
364 -8 m 0,0,1
 241 -8 241 -8 169.5 67.5 c 128,-1,2
 98 143 98 143 98 285 c 2,3,-1
 98 700 l 1,4,-1
 198 700 l 1,5,-1
 198 288 l 2,6,7
 198 184 198 184 249 132.5 c 128,-1,8
 300 81 300 81 385 81 c 0,9,10
 476 81 476 81 532.5 135.5 c 128,-1,11
 589 190 589 190 589 303 c 2,12,-1
 589 700 l 1,13,-1
 688 700 l 1,14,-1
 688 0 l 1,15,-1
 592 0 l 1,16,-1
 592 171 l 1,17,-1
 621 155 l 1,18,19
 588 70 588 70 522 31 c 128,-1,20
 456 -8 456 -8 364 -8 c 0,0,1
-5 319 m 1,21,-1
 -5 398 l 1,22,-1
 791 398 l 1,23,-1
 791 319 l 1,24,-1
 -5 319 l 1,21,-1
EndSplineSet
EndChar

StartChar: W.ss01
Encoding: 65715 -1 541
Width: 1190
GlyphClass: 2
Flags: W
AnchorPoint: "Anchor-3" 594 700 basechar 0
AnchorPoint: "Anchor-0" 595 0 basechar 0
LayerCount: 2
Fore
SplineSet
370 -8 m 0,0,1
 241 -8 241 -8 170 64 c 128,-1,2
 99 136 99 136 99 279 c 2,3,-1
 99 700 l 1,4,-1
 199 700 l 1,5,-1
 199 282 l 2,6,7
 199 175 199 175 244.5 128 c 128,-1,8
 290 81 290 81 370 81 c 0,9,10
 451 81 451 81 498 128 c 128,-1,11
 545 175 545 175 545 282 c 2,12,-1
 545 700 l 1,13,-1
 645 700 l 1,14,-1
 645 282 l 2,15,16
 645 175 645 175 692 128 c 128,-1,17
 739 81 739 81 819 81 c 256,18,19
 899 81 899 81 945 128 c 128,-1,20
 991 175 991 175 991 282 c 2,21,-1
 991 700 l 1,22,-1
 1091 700 l 1,23,-1
 1091 279 l 2,24,25
 1091 136 1091 136 1019.5 64 c 128,-1,26
 948 -8 948 -8 819 -8 c 0,27,28
 728 -8 728 -8 665 28.5 c 128,-1,29
 602 65 602 65 578 126 c 1,30,-1
 611 126 l 1,31,32
 586 65 586 65 524.5 28.5 c 128,-1,33
 463 -8 463 -8 370 -8 c 0,0,1
EndSplineSet
EndChar

StartChar: uni2C72.ss01
Encoding: 65722 -1 548
Width: 1191
GlyphClass: 2
Flags: W
AnchorPoint: "Anchor-3" 594 700 basechar 0
AnchorPoint: "Anchor-0" 595 0 basechar 0
LayerCount: 2
Fore
SplineSet
1091 587 m 2,0,-1
 1091 279 l 2,1,2
 1091 136 1091 136 1019.5 64 c 128,-1,3
 948 -8 948 -8 819 -8 c 0,4,5
 728 -8 728 -8 665 28.5 c 128,-1,6
 602 65 602 65 578 126 c 1,7,-1
 611 126 l 1,8,9
 586 65 586 65 524.5 28.5 c 128,-1,10
 463 -8 463 -8 370 -8 c 0,11,12
 241 -8 241 -8 170 64 c 128,-1,13
 99 136 99 136 99 279 c 2,14,-1
 99 700 l 1,15,-1
 199 700 l 1,16,-1
 199 282 l 2,17,18
 199 175 199 175 244.5 128 c 128,-1,19
 290 81 290 81 370 81 c 0,20,21
 451 81 451 81 498 128 c 128,-1,22
 545 175 545 175 545 282 c 2,23,-1
 545 700 l 1,24,-1
 645 700 l 1,25,-1
 645 282 l 2,26,27
 645 175 645 175 692 128 c 128,-1,28
 739 81 739 81 819 81 c 256,29,30
 899 81 899 81 945 128 c 128,-1,31
 991 175 991 175 991 282 c 2,32,-1
 991 587 l 2,33,34
 991 630 991 630 1005 662 c 128,-1,35
 1019 694 1019 694 1043 715 c 128,-1,36
 1067 736 1067 736 1098 746 c 128,-1,37
 1129 756 1129 756 1162.5 754.5 c 128,-1,38
 1196 753 1196 753 1229 739 c 1,39,-1
 1202 661 l 1,40,41
 1176 672 1176 672 1150 667 c 128,-1,42
 1124 662 1124 662 1107.5 642 c 128,-1,43
 1091 622 1091 622 1091 587 c 2,0,-1
EndSplineSet
EndChar

StartChar: Y.ss01
Encoding: 65723 -1 549
Width: 787
GlyphClass: 2
Flags: W
AnchorPoint: "Anchor-3" 391 700 basechar 0
AnchorPoint: "Anchor-2" 443 -100 basechar 0
AnchorPoint: "Anchor-0" 663 0 basechar 0
LayerCount: 2
Fore
SplineSet
383 -106 m 0,0,1
 292 -106 292 -106 220.5 -77 c 128,-1,2
 149 -48 149 -48 101 3 c 1,3,-1
 151 74 l 1,4,5
 197 29 197 29 254.5 6.5 c 128,-1,6
 312 -16 312 -16 383 -16 c 0,7,8
 483 -16 483 -16 536 38 c 128,-1,9
 589 92 589 92 589 204 c 2,10,-1
 589 346 l 1,11,-1
 620 335 l 1,12,13
 588 250 588 250 523.5 211.5 c 128,-1,14
 459 173 459 173 372 173 c 0,15,16
 242 173 242 173 168 248.5 c 128,-1,17
 94 324 94 324 94 466 c 2,18,-1
 94 700 l 1,19,-1
 194 700 l 1,20,-1
 194 470 l 2,21,22
 194 366 194 366 245 314 c 128,-1,23
 296 262 296 262 383 262 c 0,24,25
 476 262 476 262 532.5 316.5 c 128,-1,26
 589 371 589 371 589 485 c 2,27,-1
 589 700 l 1,28,-1
 688 700 l 1,29,-1
 688 208 l 2,30,31
 688 105 688 105 651 35.5 c 128,-1,32
 614 -34 614 -34 545.5 -70 c 128,-1,33
 477 -106 477 -106 383 -106 c 0,0,1
EndSplineSet
EndChar

StartChar: uni01B3.ss01
Encoding: 65730 -1 556
Width: 789
GlyphClass: 2
Flags: W
AnchorPoint: "Anchor-3" 391 700 basechar 0
AnchorPoint: "Anchor-0" 663 0 basechar 0
LayerCount: 2
Fore
SplineSet
383 -106 m 0,0,1
 293 -106 293 -106 221.5 -78 c 128,-1,2
 150 -50 150 -50 103 0 c 1,3,-1
 154 73 l 1,4,5
 198 28 198 28 255 6 c 128,-1,6
 312 -16 312 -16 383 -16 c 0,7,8
 483 -16 483 -16 536 38 c 128,-1,9
 589 92 589 92 589 204 c 2,10,-1
 589 346 l 1,11,-1
 620 335 l 1,12,13
 588 250 588 250 523.5 211.5 c 128,-1,14
 459 173 459 173 372 173 c 0,15,16
 242 173 242 173 168 248.5 c 128,-1,17
 94 324 94 324 94 466 c 2,18,-1
 94 700 l 1,19,-1
 194 700 l 1,20,-1
 194 470 l 2,21,22
 194 366 194 366 245 314 c 128,-1,23
 296 262 296 262 383 262 c 0,24,25
 476 262 476 262 532.5 316.5 c 128,-1,26
 589 371 589 371 589 485 c 2,27,-1
 589 588 l 2,28,29
 589 630 589 630 603 662 c 128,-1,30
 617 694 617 694 641 715.5 c 128,-1,31
 665 737 665 737 696 746.5 c 128,-1,32
 727 756 727 756 760.5 754.5 c 128,-1,33
 794 753 794 753 827 739 c 1,34,-1
 800 661 l 1,35,36
 773 672 773 672 747.5 667 c 128,-1,37
 722 662 722 662 705 642 c 128,-1,38
 688 622 688 622 688 588 c 2,39,-1
 688 208 l 2,40,41
 688 105 688 105 651 35.5 c 128,-1,42
 614 -34 614 -34 545.5 -70 c 128,-1,43
 477 -106 477 -106 383 -106 c 0,0,1
EndSplineSet
EndChar

StartChar: uni024E.ss01
Encoding: 65733 -1 559
Width: 785
GlyphClass: 2
Flags: W
AnchorPoint: "Anchor-3" 389 700 basechar 0
AnchorPoint: "Anchor-0" 661 0 basechar 0
LayerCount: 2
Fore
SplineSet
381 -106 m 0,0,1
 290 -106 290 -106 218.5 -77 c 128,-1,2
 147 -48 147 -48 99 3 c 1,3,-1
 149 74 l 1,4,5
 195 29 195 29 252.5 6.5 c 128,-1,6
 310 -16 310 -16 381 -16 c 0,7,8
 481 -16 481 -16 534 38 c 128,-1,9
 587 92 587 92 587 204 c 2,10,-1
 587 346 l 1,11,-1
 618 335 l 1,12,13
 586 250 586 250 521.5 211.5 c 128,-1,14
 457 173 457 173 370 173 c 0,15,16
 240 173 240 173 166 248.5 c 128,-1,17
 92 324 92 324 92 466 c 2,18,-1
 92 700 l 1,19,-1
 191 700 l 1,20,-1
 191 470 l 2,21,22
 191 366 191 366 242.5 314 c 128,-1,23
 294 262 294 262 381 262 c 0,24,25
 474 262 474 262 530.5 316.5 c 128,-1,26
 587 371 587 371 587 485 c 2,27,-1
 587 700 l 1,28,-1
 686 700 l 1,29,-1
 686 208 l 2,30,31
 686 105 686 105 649 35.5 c 128,-1,32
 612 -34 612 -34 543.5 -70 c 128,-1,33
 475 -106 475 -106 381 -106 c 0,0,1
-11 505 m 1,34,-1
 -11 584 l 1,35,-1
 789 584 l 1,36,-1
 789 505 l 1,37,-1
 -11 505 l 1,34,-1
EndSplineSet
EndChar

StartChar: Z.ss01
Encoding: 65735 -1 561
Width: 667
GlyphClass: 2
Flags: W
AnchorPoint: "Anchor-3" 338 700 basechar 0
AnchorPoint: "Anchor-0" 343 0 basechar 0
LayerCount: 2
Fore
SplineSet
48 0 m 1,0,-1
 48 62 l 1,1,-1
 516 652 l 1,2,-1
 527 613 l 1,3,-1
 52 613 l 1,4,-1
 52 700 l 1,5,-1
 618 700 l 1,6,-1
 618 639 l 1,7,-1
 151 48 l 1,8,-1
 139 87 l 1,9,-1
 633 87 l 1,10,-1
 633 0 l 1,11,-1
 48 0 l 1,0,-1
329 313 m 1,12,-1
 302 315 l 1,13,-1
 108 315 l 1,14,-1
 108 398 l 1,15,-1
 351 398 l 1,16,-1
 378 396 l 1,17,-1
 556 396 l 1,18,-1
 556 313 l 1,19,-1
 329 313 l 1,12,-1
EndSplineSet
EndChar

StartChar: uni01B2.loclTOD0.ss01
Encoding: 65746 -1 572
Width: 722
GlyphClass: 2
Flags: W
AnchorPoint: "Anchor-3" 356 700 basechar 0
AnchorPoint: "Anchor-0" 356 0 basechar 0
LayerCount: 2
Fore
SplineSet
308 0 m 1,0,-1
 -1 700 l 1,1,-1
 107 700 l 1,2,-1
 378 77 l 1,3,-1
 339 77 l 1,4,-1
 618 715 l 2,5,6
 638 759 638 759 664.5 786 c 128,-1,7
 691 813 691 813 723 824 c 128,-1,8
 755 835 755 835 789 830.5 c 128,-1,9
 823 826 823 826 855 806 c 1,10,-1
 815 733 l 1,11,12
 785 751 785 751 754 741 c 128,-1,13
 723 731 723 731 704 687 c 2,14,-1
 406 0 l 1,15,-1
 308 0 l 1,0,-1
EndSplineSet
EndChar

StartChar: T_h
Encoding: 65747 -1 573
Width: 1201
GlyphClass: 3
LigCaretCntFixed: 1
Flags: W
AnchorPoint: "Anchor-8" 301 700 baselig 0
AnchorPoint: "Anchor-6" 301 350 baselig 0
AnchorPoint: "Anchor-5" 301 0 baselig 0
AnchorPoint: "Anchor-8" 901 700 baselig 1
AnchorPoint: "Anchor-5" 901 0 baselig 1
AnchorPoint: "Anchor-6" 901 350 baselig 1
LayerCount: 2
Fore
SplineSet
244 0 m 1,0,-1
 244 613 l 1,1,-1
 4 613 l 1,2,-1
 4 700 l 1,3,-1
 621 700 l 1,4,-1
 621 613 l 1,5,-1
 343 613 l 1,6,-1
 343 0 l 1,7,-1
 244 0 l 1,0,-1
612 0 m 1,8,-1
 612 700 l 1,9,-1
 708 700 l 1,10,-1
 708 387 l 1,11,-1
 688 425 l 1,12,13
 715 477 715 477 768.5 506 c 128,-1,14
 822 535 822 535 894 535 c 0,15,16
 959 535 959 535 1008.5 510 c 128,-1,17
 1058 485 1058 485 1086.5 434 c 128,-1,18
 1115 383 1115 383 1115 305 c 2,19,-1
 1115 0 l 1,20,-1
 1019 0 l 1,21,-1
 1019 294 l 2,22,23
 1019 371 1019 371 981.5 410 c 128,-1,24
 944 449 944 449 875 449 c 0,25,26
 825 449 825 449 787 429 c 128,-1,27
 749 409 749 409 728.5 370 c 128,-1,28
 708 331 708 331 708 273 c 2,29,-1
 708 0 l 1,30,-1
 612 0 l 1,8,-1
EndSplineSet
Ligature2: "'dlig' Discretionary Ligatures lookup 48 subtable" T h
LCarets2: 1 601
EndChar

StartChar: Iacute_J.loclNLD.ss01
Encoding: 65748 -1 574
Width: 720
GlyphClass: 2
LigCaretCntFixed: 1
Flags: W
LayerCount: 2
Fore
SplineSet
327 -106 m 0,0,1
 256 -106 256 -106 194.5 -85.5 c 128,-1,2
 133 -65 133 -65 87 -33 c 1,3,-1
 126 46 l 1,4,5
 169 15 169 15 220.5 -1 c 128,-1,6
 272 -17 272 -17 324 -17 c 0,7,8
 419 -17 419 -17 470 37 c 128,-1,9
 521 91 521 91 521 204 c 2,10,-1
 521 700 l 1,11,-1
 621 700 l 1,12,-1
 621 208 l 2,13,14
 621 105 621 105 584 35.5 c 128,-1,15
 547 -34 547 -34 481.5 -70 c 128,-1,16
 416 -106 416 -106 327 -106 c 0,0,1
99 209 m 1,17,-1
 99 700 l 1,18,-1
 199 700 l 1,19,-1
 199 209 l 1,20,-1
 99 209 l 1,17,-1
101 757 m 1,21,-1
 238 887 l 1,22,-1
 343 887 l 1,23,-1
 175 757 l 1,24,-1
 101 757 l 1,21,-1
523 757 m 1,25,-1
 660 887 l 1,26,-1
 765 887 l 1,27,-1
 597 757 l 1,28,-1
 523 757 l 1,25,-1
EndSplineSet
LCarets2: 1 360
EndChar

StartChar: uni026A
Encoding: 618 618 575
Width: 365
GlyphClass: 2
Flags: W
AnchorPoint: "Anchor-3" 183 530 basechar 0
AnchorPoint: "Anchor-2" 231 0 basechar 0
AnchorPoint: "Anchor-0" 183 0 basechar 0
LayerCount: 2
Fore
SplineSet
37 451 m 1,0,-1
 37 530 l 1,1,-1
 328 530 l 1,2,-1
 328 451 l 1,3,-1
 37 451 l 1,0,-1
37 0 m 1,4,-1
 37 79 l 1,5,-1
 328 79 l 1,6,-1
 328 0 l 1,7,-1
 37 0 l 1,4,-1
135 0 m 1,8,-1
 135 530 l 1,9,-1
 231 530 l 1,10,-1
 231 0 l 1,11,-1
 135 0 l 1,8,-1
EndSplineSet
Substitution2: "'smcp' Lowercase to Small Capitals lookup 46 subtable" uni026A.sc
Substitution2: "'aalt' Access All Alternates lookup 0 subtable" uni026A.sc
EndChar

StartChar: uni1D7B
Encoding: 7547 7547 576
Width: 402
GlyphClass: 2
Flags: W
AnchorPoint: "Anchor-3" 201 530 basechar 0
AnchorPoint: "Anchor-2" 249 0 basechar 0
AnchorPoint: "Anchor-0" 201 0 basechar 0
LayerCount: 2
Fore
SplineSet
56 451 m 1,0,-1
 56 530 l 1,1,-1
 346 530 l 1,2,-1
 346 451 l 1,3,-1
 56 451 l 1,0,-1
56 0 m 1,4,-1
 56 79 l 1,5,-1
 346 79 l 1,6,-1
 346 0 l 1,7,-1
 56 0 l 1,4,-1
153 0 m 1,8,-1
 153 530 l 1,9,-1
 249 530 l 1,10,-1
 249 0 l 1,11,-1
 153 0 l 1,8,-1
57 237 m 1,12,-1
 57 305 l 1,13,-1
 345 305 l 1,14,-1
 345 237 l 1,15,-1
 57 237 l 1,12,-1
EndSplineSet
Substitution2: "'smcp' Lowercase to Small Capitals lookup 46 subtable" uni1D7B.sc
Substitution2: "'aalt' Access All Alternates lookup 0 subtable" uni1D7B.sc
EndChar

StartChar: uni0274
Encoding: 628 628 577
Width: 662
GlyphClass: 2
Flags: W
AnchorPoint: "Anchor-3" 331 530 basechar 0
AnchorPoint: "Anchor-0" 331 0 basechar 0
LayerCount: 2
Fore
SplineSet
81 0 m 1,0,-1
 81 530 l 1,1,-1
 161 530 l 1,2,-1
 526 119 l 1,3,-1
 486 119 l 1,4,-1
 486 530 l 1,5,-1
 582 530 l 1,6,-1
 582 0 l 1,7,-1
 502 0 l 1,8,-1
 137 411 l 1,9,-1
 177 411 l 1,10,-1
 177 0 l 1,11,-1
 81 0 l 1,0,-1
EndSplineSet
Substitution2: "'smcp' Lowercase to Small Capitals lookup 46 subtable" uni0274.sc
Substitution2: "'aalt' Access All Alternates lookup 0 subtable" uni0274.sc
EndChar

StartChar: uni0280
Encoding: 640 640 578
Width: 607
GlyphClass: 2
Flags: W
AnchorPoint: "Anchor-3" 314 530 basechar 0
AnchorPoint: "Anchor-0" 314 0 basechar 0
LayerCount: 2
Fore
SplineSet
91 0 m 1,0,-1
 91 530 l 1,1,-1
 321 530 l 2,2,3
 433 530 433 530 497.5 480 c 128,-1,4
 562 430 562 430 562 342 c 0,5,6
 562 284 562 284 533 242 c 128,-1,7
 504 200 504 200 450 178 c 128,-1,8
 396 156 396 156 321 156 c 2,9,-1
 145 156 l 1,10,-1
 187 199 l 1,11,-1
 187 0 l 1,12,-1
 91 0 l 1,0,-1
467 0 m 1,13,-1
 322 192 l 1,14,-1
 425 192 l 1,15,-1
 572 0 l 1,16,-1
 467 0 l 1,13,-1
187 189 m 1,17,-1
 145 236 l 1,18,-1
 317 236 l 2,19,20
 390 236 390 236 427.5 264 c 128,-1,21
 465 292 465 292 465 342 c 0,22,23
 465 393 465 393 427.5 421 c 128,-1,24
 390 449 390 449 317 449 c 2,25,-1
 145 449 l 1,26,-1
 187 495 l 1,27,-1
 187 189 l 1,17,-1
EndSplineSet
Substitution2: "'smcp' Lowercase to Small Capitals lookup 46 subtable" uni0280.sc
Substitution2: "'aalt' Access All Alternates lookup 0 subtable" uni0280.sc
EndChar

StartChar: a
Encoding: 97 97 580
Width: 598
GlyphClass: 2
Flags: W
AnchorPoint: "Anchor-3" 291 530 basechar 0
AnchorPoint: "Anchor-2" 511 0 basechar 0
AnchorPoint: "Anchor-0" 289 0 basechar 0
LayerCount: 2
Fore
SplineSet
420 0 m 1,0,-1
 420 112 l 1,1,-1
 415 133 l 1,2,-1
 415 324 l 2,3,4
 415 385 415 385 379.5 418.5 c 128,-1,5
 344 452 344 452 273 452 c 0,6,7
 226 452 226 452 181 436.5 c 128,-1,8
 136 421 136 421 105 395 c 1,9,-1
 65 467 l 1,10,11
 106 500 106 500 163.5 517.5 c 128,-1,12
 221 535 221 535 284 535 c 0,13,14
 393 535 393 535 452 482 c 128,-1,15
 511 429 511 429 511 320 c 2,16,-1
 511 0 l 1,17,-1
 420 0 l 1,0,-1
246 -6 m 0,18,19
 187 -6 187 -6 142.5 14 c 128,-1,20
 98 34 98 34 74 69.5 c 128,-1,21
 50 105 50 105 50 150 c 0,22,23
 50 193 50 193 70.5 228 c 128,-1,24
 91 263 91 263 137.5 284 c 128,-1,25
 184 305 184 305 263 305 c 2,26,-1
 431 305 l 1,27,-1
 431 236 l 1,28,-1
 267 236 l 2,29,30
 195 236 195 236 170 212 c 128,-1,31
 145 188 145 188 145 154 c 0,32,33
 145 115 145 115 176 91.5 c 128,-1,34
 207 68 207 68 262 68 c 0,35,36
 316 68 316 68 356.5 92 c 128,-1,37
 397 116 397 116 415 162 c 1,38,-1
 434 96 l 1,39,40
 415 49 415 49 367 21.5 c 128,-1,41
 319 -6 319 -6 246 -6 c 0,18,19
EndSplineSet
Substitution2: "'ss01' Style Set 1 lookup 50 subtable" a.ss01
Substitution2: "'smcp' Lowercase to Small Capitals lookup 46 subtable" a.sc
Substitution2: "Single Substitution lookup 39 subtable" ordfeminine
AlternateSubs2: "'aalt' Access All Alternates lookup 1 subtable" ordfeminine a.sc a.ss01
EndChar

StartChar: uni2C65
Encoding: 11365 11365 611
Width: 598
GlyphClass: 2
Flags: W
AnchorPoint: "Anchor-3" 291 530 basechar 0
AnchorPoint: "Anchor-2" 511 0 basechar 0
AnchorPoint: "Anchor-0" 289 0 basechar 0
LayerCount: 2
Fore
SplineSet
420 0 m 1,0,-1
 420 112 l 1,1,-1
 415 133 l 1,2,-1
 415 324 l 2,3,4
 415 385 415 385 379.5 418.5 c 128,-1,5
 344 452 344 452 273 452 c 0,6,7
 226 452 226 452 181 436.5 c 128,-1,8
 136 421 136 421 105 395 c 1,9,-1
 65 467 l 1,10,11
 106 500 106 500 163.5 517.5 c 128,-1,12
 221 535 221 535 284 535 c 0,13,14
 393 535 393 535 452 482 c 128,-1,15
 511 429 511 429 511 320 c 2,16,-1
 511 0 l 1,17,-1
 420 0 l 1,0,-1
246 -6 m 0,18,19
 187 -6 187 -6 142.5 14 c 128,-1,20
 98 34 98 34 74 69.5 c 128,-1,21
 50 105 50 105 50 150 c 0,22,23
 50 193 50 193 70.5 228 c 128,-1,24
 91 263 91 263 137.5 284 c 128,-1,25
 184 305 184 305 263 305 c 2,26,-1
 431 305 l 1,27,-1
 431 236 l 1,28,-1
 267 236 l 2,29,30
 195 236 195 236 170 212 c 128,-1,31
 145 188 145 188 145 154 c 0,32,33
 145 115 145 115 176 91.5 c 128,-1,34
 207 68 207 68 262 68 c 0,35,36
 316 68 316 68 356.5 92 c 128,-1,37
 397 116 397 116 415 162 c 1,38,-1
 434 96 l 1,39,40
 415 49 415 49 367 21.5 c 128,-1,41
 319 -6 319 -6 246 -6 c 0,18,19
118 -80 m 1,42,-1
 399 609 l 1,43,-1
 465 609 l 1,44,-1
 184 -80 l 1,45,-1
 118 -80 l 1,42,-1
EndSplineSet
Substitution2: "'ss01' Style Set 1 lookup 50 subtable" uni2C65.ss01
Substitution2: "'smcp' Lowercase to Small Capitals lookup 46 subtable" uni2C65.sc
AlternateSubs2: "'aalt' Access All Alternates lookup 1 subtable" uni2C65.sc uni2C65.ss01
EndChar

StartChar: uni0250
Encoding: 592 592 613
Width: 598
GlyphClass: 2
Flags: W
AnchorPoint: "Anchor-3" 299 530 basechar 0
AnchorPoint: "Anchor-0" 299 0 basechar 0
LayerCount: 2
Fore
SplineSet
178 530 m 1,0,-1
 178 418 l 1,1,-1
 182 396 l 1,2,-1
 182 205 l 2,3,4
 182 144 182 144 218 111 c 128,-1,5
 254 78 254 78 324 78 c 0,6,7
 372 78 372 78 416.5 93 c 128,-1,8
 461 108 461 108 493 134 c 1,9,-1
 533 63 l 1,10,11
 492 30 492 30 434.5 12 c 128,-1,12
 377 -6 377 -6 313 -6 c 0,13,14
 205 -6 205 -6 145.5 48 c 128,-1,15
 86 102 86 102 86 210 c 2,16,-1
 86 530 l 1,17,-1
 178 530 l 1,0,-1
351 535 m 0,18,19
 412 535 412 535 456 515.5 c 128,-1,20
 500 496 500 496 524 461 c 128,-1,21
 548 426 548 426 548 379 c 0,22,23
 548 337 548 337 527.5 302 c 128,-1,24
 507 267 507 267 460.5 245.5 c 128,-1,25
 414 224 414 224 335 224 c 2,26,-1
 167 224 l 1,27,-1
 167 294 l 1,28,-1
 331 294 l 2,29,30
 402 294 402 294 427.5 317.5 c 128,-1,31
 453 341 453 341 453 376 c 0,32,33
 453 415 453 415 421.5 438 c 128,-1,34
 390 461 390 461 335 461 c 0,35,36
 282 461 282 461 241.5 437 c 128,-1,37
 201 413 201 413 182 367 c 1,38,-1
 164 434 l 1,39,40
 183 481 183 481 231 508 c 128,-1,41
 279 535 279 535 351 535 c 0,18,19
EndSplineSet
Substitution2: "'smcp' Lowercase to Small Capitals lookup 46 subtable" uni0250.sc
Substitution2: "'aalt' Access All Alternates lookup 0 subtable" uni0250.sc
EndChar

StartChar: ae
Encoding: 230 230 614
Width: 989
GlyphClass: 2
Flags: W
AnchorPoint: "Anchor-3" 463 530 basechar 0
AnchorPoint: "Anchor-2" 748 0 basechar 0
AnchorPoint: "Anchor-0" 475 0 basechar 0
LayerCount: 2
Fore
SplineSet
256 -6 m 0,0,1
 159 -6 159 -6 104.5 38.5 c 128,-1,2
 50 83 50 83 50 154 c 0,3,4
 50 194 50 194 70.5 228 c 128,-1,5
 91 262 91 262 137.5 283 c 128,-1,6
 184 304 184 304 263 304 c 2,7,-1
 430 304 l 1,8,-1
 430 235 l 1,9,-1
 267 235 l 2,10,11
 196 235 196 235 170.5 211.5 c 128,-1,12
 145 188 145 188 145 156 c 0,13,14
 145 115 145 115 176.5 91.5 c 128,-1,15
 208 68 208 68 264 68 c 0,16,17
 335 68 335 68 375 104.5 c 128,-1,18
 415 141 415 141 415 201 c 2,19,-1
 415 324 l 2,20,21
 415 385 415 385 379.5 418.5 c 128,-1,22
 344 452 344 452 274 452 c 0,23,24
 226 452 226 452 181 436.5 c 128,-1,25
 136 421 136 421 105 395 c 1,26,-1
 65 467 l 1,27,28
 106 500 106 500 163.5 517.5 c 128,-1,29
 221 535 221 535 283 535 c 0,30,31
 375 535 375 535 429 498.5 c 128,-1,32
 483 462 483 462 498 391 c 1,33,-1
 452 397 l 1,34,35
 483 461 483 461 543.5 498 c 128,-1,36
 604 535 604 535 683 535 c 0,37,38
 740 535 740 535 788.5 515.5 c 128,-1,39
 837 496 837 496 872.5 460 c 128,-1,40
 908 424 908 424 927.5 375 c 128,-1,41
 947 326 947 326 947 268 c 0,42,43
 947 258 947 258 946.5 250 c 128,-1,44
 946 242 946 242 944 235 c 1,45,-1
 492 235 l 1,46,-1
 492 304 l 1,47,-1
 894 304 l 1,48,-1
 854 278 l 1,49,50
 854 335 854 335 830 374 c 128,-1,51
 806 413 806 413 766.5 433.5 c 128,-1,52
 727 454 727 454 682 454 c 0,53,54
 639 454 639 454 599.5 433.5 c 128,-1,55
 560 413 560 413 535.5 373.5 c 128,-1,56
 511 334 511 334 511 276 c 2,57,-1
 511 260 l 2,58,59
 511 207 511 207 535 165.5 c 128,-1,60
 559 124 559 124 602.5 101 c 128,-1,61
 646 78 646 78 704 78 c 0,62,63
 751 78 751 78 789 94 c 128,-1,64
 827 110 827 110 857 142 c 1,65,-1
 911 80 l 1,66,67
 874 37 874 37 820.5 15.5 c 128,-1,68
 767 -6 767 -6 701 -6 c 0,69,70
 640 -6 640 -6 586 13 c 128,-1,71
 532 32 532 32 492 72 c 128,-1,72
 452 112 452 112 430 175 c 1,73,-1
 492 173 l 1,74,75
 480 106 480 106 443.5 66.5 c 128,-1,76
 407 27 407 27 357.5 10.5 c 128,-1,77
 308 -6 308 -6 256 -6 c 0,0,1
EndSplineSet
Substitution2: "'ss01' Style Set 1 lookup 50 subtable" ae.ss01
Substitution2: "'smcp' Lowercase to Small Capitals lookup 46 subtable" ae.sc
AlternateSubs2: "'aalt' Access All Alternates lookup 1 subtable" ae.sc ae.ss01
EndChar

StartChar: b
Encoding: 98 98 617
Width: 682
GlyphClass: 2
Flags: W
AnchorPoint: "Anchor-3" 374 530 basechar 0
AnchorPoint: "Anchor-0" 374 0 basechar 0
LayerCount: 2
Fore
SplineSet
372 -6 m 0,0,1
 304 -6 304 -6 249.5 24.5 c 128,-1,2
 195 55 195 55 163.5 115 c 128,-1,3
 132 175 132 175 132 265 c 256,4,5
 132 355 132 355 164.5 415 c 128,-1,6
 197 475 197 475 251.5 505 c 128,-1,7
 306 535 306 535 372 535 c 0,8,9
 450 535 450 535 510 501 c 128,-1,10
 570 467 570 467 605 406.5 c 128,-1,11
 640 346 640 346 640 265 c 256,12,13
 640 184 640 184 605 123 c 128,-1,14
 570 62 570 62 510 28 c 128,-1,15
 450 -6 450 -6 372 -6 c 0,0,1
91 0 m 1,16,-1
 91 742 l 1,17,-1
 187 742 l 1,18,-1
 187 389 l 1,19,-1
 177 266 l 1,20,-1
 183 143 l 1,21,-1
 183 0 l 1,22,-1
 91 0 l 1,16,-1
364 78 m 0,23,24
 415 78 415 78 455.5 101 c 128,-1,25
 496 124 496 124 519.5 166.5 c 128,-1,26
 543 209 543 209 543 265 c 0,27,28
 543 322 543 322 519.5 363.5 c 128,-1,29
 496 405 496 405 455.5 428 c 128,-1,30
 415 451 415 451 364 451 c 0,31,32
 314 451 314 451 273.5 428 c 128,-1,33
 233 405 233 405 209.5 363.5 c 128,-1,34
 186 322 186 322 186 265 c 0,35,36
 186 209 186 209 209.5 166.5 c 128,-1,37
 233 124 233 124 273.5 101 c 128,-1,38
 314 78 314 78 364 78 c 0,23,24
EndSplineSet
Substitution2: "'smcp' Lowercase to Small Capitals lookup 46 subtable" b.sc
Substitution2: "'aalt' Access All Alternates lookup 0 subtable" b.sc
EndChar

StartChar: uniA7B5
Encoding: 42933 42933 620
Width: 676
GlyphClass: 1
Flags: W
LayerCount: 2
Fore
SplineSet
91 -194 m 1,0,-1
 91 494 l 2,1,2
 91 578 91 578 124 634.5 c 128,-1,3
 157 691 157 691 213.5 719.5 c 128,-1,4
 270 748 270 748 342 748 c 256,5,6
 414 748 414 748 466 722 c 128,-1,7
 518 696 518 696 546 651 c 128,-1,8
 574 606 574 606 574 550 c 0,9,10
 574 504 574 504 556.5 469 c 128,-1,11
 539 434 539 434 511 409.5 c 128,-1,12
 483 385 483 385 449.5 372 c 128,-1,13
 416 359 416 359 383 359 c 1,14,-1
 413 397 l 1,15,16
 475 397 475 397 525 374 c 128,-1,17
 575 351 575 351 604 307.5 c 128,-1,18
 633 264 633 264 633 199 c 0,19,20
 633 145 633 145 612 105.5 c 128,-1,21
 591 66 591 66 555.5 41.5 c 128,-1,22
 520 17 520 17 474.5 5 c 128,-1,23
 429 -7 429 -7 380 -7 c 0,24,25
 314 -7 314 -7 253.5 13.5 c 128,-1,26
 193 34 193 34 151 71 c 1,27,-1
 184 144 l 1,28,29
 221 111 221 111 273 93.5 c 128,-1,30
 325 76 325 76 375 76 c 0,31,32
 418 76 418 76 454.5 89.5 c 128,-1,33
 491 103 491 103 514 131.5 c 128,-1,34
 537 160 537 160 537 204 c 0,35,36
 537 265 537 265 492.5 297.5 c 128,-1,37
 448 330 448 330 377 330 c 2,38,-1
 320 330 l 1,39,-1
 320 411 l 1,40,41
 396 412 396 412 438.5 448.5 c 128,-1,42
 481 485 481 485 481 545 c 0,43,44
 481 599 481 599 445 631.5 c 128,-1,45
 409 664 409 664 342 664 c 0,46,47
 270 664 270 664 228.5 623 c 128,-1,48
 187 582 187 582 187 502 c 2,49,-1
 187 -194 l 1,50,-1
 91 -194 l 1,0,-1
EndSplineSet
Substitution2: "'smcp' Lowercase to Small Capitals lookup 46 subtable" uniA7B5.sc
Substitution2: "'aalt' Access All Alternates lookup 0 subtable" uniA7B5.sc
EndChar

StartChar: uni0253
Encoding: 595 595 621
Width: 684
GlyphClass: 1
Flags: W
LayerCount: 2
Fore
SplineSet
374 -6 m 0,0,1
 306 -6 306 -6 251.5 24.5 c 128,-1,2
 197 55 197 55 165.5 115 c 128,-1,3
 134 175 134 175 134 265 c 256,4,5
 134 355 134 355 166.5 415 c 128,-1,6
 199 475 199 475 253.5 505 c 128,-1,7
 308 535 308 535 374 535 c 0,8,9
 452 535 452 535 512.5 501 c 128,-1,10
 573 467 573 467 607.5 406.5 c 128,-1,11
 642 346 642 346 642 265 c 256,12,13
 642 184 642 184 607.5 123 c 128,-1,14
 573 62 573 62 512.5 28 c 128,-1,15
 452 -6 452 -6 374 -6 c 0,0,1
94 0 m 1,16,-1
 94 577 l 2,17,18
 94 622 94 622 109 654.5 c 128,-1,19
 124 687 124 687 150 708 c 128,-1,20
 176 729 176 729 208 738.5 c 128,-1,21
 240 748 240 748 274 748 c 0,22,23
 316 748 316 748 355.5 735 c 128,-1,24
 395 722 395 722 421 699 c 1,25,-1
 374 631 l 1,26,27
 356 649 356 649 330 658 c 128,-1,28
 304 667 304 667 278 667 c 0,29,30
 242 667 242 667 216 646.5 c 128,-1,31
 190 626 190 626 190 576 c 2,32,-1
 190 389 l 1,33,-1
 180 266 l 1,34,-1
 185 143 l 1,35,-1
 185 0 l 1,36,-1
 94 0 l 1,16,-1
366 78 m 0,37,38
 417 78 417 78 457.5 101 c 128,-1,39
 498 124 498 124 521.5 166.5 c 128,-1,40
 545 209 545 209 545 265 c 0,41,42
 545 322 545 322 521.5 363.5 c 128,-1,43
 498 405 498 405 457.5 428 c 128,-1,44
 417 451 417 451 366 451 c 0,45,46
 316 451 316 451 275.5 428 c 128,-1,47
 235 405 235 405 211.5 363.5 c 128,-1,48
 188 322 188 322 188 265 c 0,49,50
 188 209 188 209 211.5 166.5 c 128,-1,51
 235 124 235 124 275.5 101 c 128,-1,52
 316 78 316 78 366 78 c 0,37,38
EndSplineSet
Substitution2: "'smcp' Lowercase to Small Capitals lookup 46 subtable" uni0253.sc
Substitution2: "'aalt' Access All Alternates lookup 0 subtable" uni0253.sc
EndChar

StartChar: uni0298
Encoding: 664 664 622
Width: 857
GlyphClass: 2
Flags: W
AnchorPoint: "Anchor-4" 638 700 basechar 0
AnchorPoint: "Anchor-3" 420 370 basechar 0
AnchorPoint: "Anchor-2" 498 0 basechar 0
AnchorPoint: "Anchor-1" 421 350 basechar 0
AnchorPoint: "Anchor-0" 421 0 basechar 0
LayerCount: 2
Fore
SplineSet
421 -8 m 256,0,1
 341 -8 341 -8 272.5 19 c 128,-1,2
 204 46 204 46 154 94.5 c 128,-1,3
 104 143 104 143 76 208 c 128,-1,4
 48 273 48 273 48 350 c 256,5,6
 48 427 48 427 76 492 c 128,-1,7
 104 557 104 557 154 605.5 c 128,-1,8
 204 654 204 654 272 681 c 128,-1,9
 340 708 340 708 421 708 c 0,10,11
 501 708 501 708 568.5 681.5 c 128,-1,12
 636 655 636 655 686.5 606.5 c 128,-1,13
 737 558 737 558 764.5 493 c 128,-1,14
 792 428 792 428 792 350 c 256,15,16
 792 272 792 272 764.5 207 c 128,-1,17
 737 142 737 142 686.5 93.5 c 128,-1,18
 636 45 636 45 568.5 18.5 c 128,-1,19
 501 -8 501 -8 421 -8 c 256,0,1
421 81 m 0,20,21
 479 81 479 81 528.5 101 c 128,-1,22
 578 121 578 121 614.5 157.5 c 128,-1,23
 651 194 651 194 671.5 243 c 128,-1,24
 692 292 692 292 692 350 c 256,25,26
 692 408 692 408 671.5 457 c 128,-1,27
 651 506 651 506 614.5 542.5 c 128,-1,28
 578 579 578 579 528.5 599 c 128,-1,29
 479 619 479 619 421 619 c 0,30,31
 362 619 362 619 312.5 599 c 128,-1,32
 263 579 263 579 226 542.5 c 128,-1,33
 189 506 189 506 168.5 457 c 128,-1,34
 148 408 148 408 148 350 c 256,35,36
 148 292 148 292 168.5 243 c 128,-1,37
 189 194 189 194 226 157.5 c 128,-1,38
 263 121 263 121 312.5 101 c 128,-1,39
 362 81 362 81 421 81 c 0,20,21
420 283 m 0,40,41
 391 283 391 283 371.5 302.5 c 128,-1,42
 352 322 352 322 352 351 c 0,43,44
 352 379 352 379 371.5 398.5 c 128,-1,45
 391 418 391 418 420 418 c 0,46,47
 448 418 448 418 467.5 398.5 c 128,-1,48
 487 379 487 379 487 351 c 0,49,50
 487 322 487 322 467.5 302.5 c 128,-1,51
 448 283 448 283 420 283 c 0,40,41
EndSplineSet
Substitution2: "'smcp' Lowercase to Small Capitals lookup 46 subtable" uni0298.sc
Substitution2: "'aalt' Access All Alternates lookup 0 subtable" uni0298.sc
EndChar

StartChar: uni0180
Encoding: 384 384 624
Width: 694
GlyphClass: 1
Flags: W
LayerCount: 2
Fore
SplineSet
384 -6 m 0,0,1
 316 -6 316 -6 261.5 24.5 c 128,-1,2
 207 55 207 55 175 115 c 128,-1,3
 143 175 143 175 143 265 c 256,4,5
 143 355 143 355 175.5 415 c 128,-1,6
 208 475 208 475 263 505 c 128,-1,7
 318 535 318 535 384 535 c 0,8,9
 461 535 461 535 521.5 501 c 128,-1,10
 582 467 582 467 617 406.5 c 128,-1,11
 652 346 652 346 652 265 c 256,12,13
 652 184 652 184 617 123 c 128,-1,14
 582 62 582 62 521.5 28 c 128,-1,15
 461 -6 461 -6 384 -6 c 0,0,1
103 0 m 1,16,-1
 103 742 l 1,17,-1
 199 742 l 1,18,-1
 199 389 l 1,19,-1
 189 266 l 1,20,-1
 195 143 l 1,21,-1
 195 0 l 1,22,-1
 103 0 l 1,16,-1
376 78 m 256,23,24
 427 78 427 78 467 101 c 128,-1,25
 507 124 507 124 531 166.5 c 128,-1,26
 555 209 555 209 555 265 c 0,27,28
 555 322 555 322 531 363.5 c 128,-1,29
 507 405 507 405 467 428 c 128,-1,30
 427 451 427 451 376 451 c 256,31,32
 325 451 325 451 285 428 c 128,-1,33
 245 405 245 405 221 363.5 c 128,-1,34
 197 322 197 322 197 265 c 0,35,36
 197 209 197 209 221 166.5 c 128,-1,37
 245 124 245 124 285 101 c 128,-1,38
 325 78 325 78 376 78 c 256,23,24
7 601 m 1,39,-1
 7 669 l 1,40,-1
 373 669 l 1,41,-1
 373 601 l 1,42,-1
 7 601 l 1,39,-1
EndSplineSet
Substitution2: "'smcp' Lowercase to Small Capitals lookup 46 subtable" uni0180.sc
Substitution2: "'aalt' Access All Alternates lookup 0 subtable" uni0180.sc
EndChar

StartChar: uni0183
Encoding: 387 387 625
Width: 682
GlyphClass: 1
Flags: W
LayerCount: 2
Fore
SplineSet
372 -6 m 0,0,1
 304 -6 304 -6 249.5 24.5 c 128,-1,2
 195 55 195 55 163.5 115 c 128,-1,3
 132 175 132 175 132 265 c 256,4,5
 132 355 132 355 164.5 415 c 128,-1,6
 197 475 197 475 251.5 505 c 128,-1,7
 306 535 306 535 372 535 c 0,8,9
 450 535 450 535 510 501 c 128,-1,10
 570 467 570 467 605 406.5 c 128,-1,11
 640 346 640 346 640 265 c 256,12,13
 640 184 640 184 605 123 c 128,-1,14
 570 62 570 62 510 28 c 128,-1,15
 450 -6 450 -6 372 -6 c 0,0,1
91 0 m 1,16,-1
 91 742 l 1,17,-1
 187 742 l 1,18,-1
 187 389 l 1,19,-1
 177 266 l 1,20,-1
 183 143 l 1,21,-1
 183 0 l 1,22,-1
 91 0 l 1,16,-1
364 78 m 0,23,24
 415 78 415 78 455.5 101 c 128,-1,25
 496 124 496 124 519.5 166.5 c 128,-1,26
 543 209 543 209 543 265 c 0,27,28
 543 322 543 322 519.5 363.5 c 128,-1,29
 496 405 496 405 455.5 428 c 128,-1,30
 415 451 415 451 364 451 c 0,31,32
 314 451 314 451 273.5 428 c 128,-1,33
 233 405 233 405 209.5 363.5 c 128,-1,34
 186 322 186 322 186 265 c 0,35,36
 186 209 186 209 209.5 166.5 c 128,-1,37
 233 124 233 124 273.5 101 c 128,-1,38
 314 78 314 78 364 78 c 0,23,24
187 663 m 1,39,-1
 91 742 l 1,40,-1
 519 742 l 1,41,-1
 519 663 l 1,42,-1
 187 663 l 1,39,-1
EndSplineSet
Substitution2: "'smcp' Lowercase to Small Capitals lookup 46 subtable" uni0183.sc
Substitution2: "'aalt' Access All Alternates lookup 0 subtable" uni0183.sc
EndChar

StartChar: c
Encoding: 99 99 626
Width: 571
GlyphClass: 2
Flags: W
AnchorPoint: "Anchor-3" 307 530 basechar 0
AnchorPoint: "Anchor-1" 130 265 basechar 0
AnchorPoint: "Anchor-0" 307 0 basechar 0
LayerCount: 2
Fore
SplineSet
322 -6 m 0,0,1
 241 -6 241 -6 177.5 29 c 128,-1,2
 114 64 114 64 78 125 c 128,-1,3
 42 186 42 186 42 265 c 256,4,5
 42 344 42 344 78 405 c 128,-1,6
 114 466 114 466 177.5 500.5 c 128,-1,7
 241 535 241 535 322 535 c 0,8,9
 394 535 394 535 450.5 506.5 c 128,-1,10
 507 478 507 478 538 422 c 1,11,-1
 465 375 l 1,12,13
 439 414 439 414 401.5 432.5 c 128,-1,14
 364 451 364 451 321 451 c 0,15,16
 269 451 269 451 228 428 c 128,-1,17
 187 405 187 405 163 363.5 c 128,-1,18
 139 322 139 322 139 265 c 256,19,20
 139 208 139 208 163 166 c 128,-1,21
 187 124 187 124 228 101 c 128,-1,22
 269 78 269 78 321 78 c 0,23,24
 364 78 364 78 401.5 96.5 c 128,-1,25
 439 115 439 115 465 154 c 1,26,-1
 538 108 l 1,27,28
 507 53 507 53 450.5 23.5 c 128,-1,29
 394 -6 394 -6 322 -6 c 0,0,1
EndSplineSet
Substitution2: "'smcp' Lowercase to Small Capitals lookup 46 subtable" c.sc
Substitution2: "'aalt' Access All Alternates lookup 0 subtable" c.sc
EndChar

StartChar: uniA793
Encoding: 42899 42899 628
Width: 629
GlyphClass: 2
Flags: W
AnchorPoint: "Anchor-3" 365 530 basechar 0
AnchorPoint: "Anchor-1" 187 265 basechar 0
AnchorPoint: "Anchor-0" 365 0 basechar 0
LayerCount: 2
Fore
SplineSet
379 -6 m 0,0,1
 299 -6 299 -6 235.5 29 c 128,-1,2
 172 64 172 64 136 125 c 128,-1,3
 100 186 100 186 100 265 c 256,4,5
 100 344 100 344 136 405 c 128,-1,6
 172 466 172 466 235.5 500.5 c 128,-1,7
 299 535 299 535 379 535 c 0,8,9
 451 535 451 535 507.5 506.5 c 128,-1,10
 564 478 564 478 596 422 c 1,11,-1
 523 375 l 1,12,13
 497 414 497 414 459.5 432.5 c 128,-1,14
 422 451 422 451 378 451 c 0,15,16
 327 451 327 451 285.5 428 c 128,-1,17
 244 405 244 405 220.5 363.5 c 128,-1,18
 197 322 197 322 197 265 c 256,19,20
 197 208 197 208 220.5 166 c 128,-1,21
 244 124 244 124 285.5 101 c 128,-1,22
 327 78 327 78 378 78 c 0,23,24
 422 78 422 78 459.5 96.5 c 128,-1,25
 497 115 497 115 523 154 c 1,26,-1
 596 108 l 1,27,28
 564 53 564 53 507.5 23.5 c 128,-1,29
 451 -6 451 -6 379 -6 c 0,0,1
4 237 m 1,30,-1
 4 305 l 1,31,-1
 351 305 l 1,32,-1
 351 237 l 1,33,-1
 4 237 l 1,30,-1
EndSplineSet
Substitution2: "'smcp' Lowercase to Small Capitals lookup 46 subtable" uniA793.sc
Substitution2: "'aalt' Access All Alternates lookup 0 subtable" uniA793.sc
EndChar

StartChar: uniAB53
Encoding: 43859 43859 634
Width: 547
GlyphClass: 1
Flags: W
LayerCount: 2
Fore
SplineSet
642 -141 m 1,0,1
 624 -167 624 -167 593 -184 c 128,-1,2
 562 -201 562 -201 527.5 -202 c 128,-1,3
 493 -203 493 -203 461.5 -184.5 c 128,-1,4
 430 -166 430 -166 408 -123 c 2,5,-1
 279 129 l 1,6,-1
 252 169 l 1,7,-1
 118 419 l 2,8,9
 105 444 105 444 86.5 452.5 c 128,-1,10
 68 461 68 461 48.5 454.5 c 128,-1,11
 29 448 29 448 13 427 c 1,12,-1
 -42 476 l 1,13,14
 -23 503 -23 503 7 519.5 c 128,-1,15
 37 536 37 536 71 537 c 128,-1,16
 105 538 105 538 136.5 520 c 128,-1,17
 168 502 168 502 191 459 c 2,18,-1
 304 243 l 1,19,-1
 329 205 l 1,20,-1
 481 -83 l 2,21,22
 495 -107 495 -107 513 -116.5 c 128,-1,23
 531 -126 531 -126 551 -119.5 c 128,-1,24
 571 -113 571 -113 589 -92 c 1,25,-1
 642 -141 l 1,0,1
28 -194 m 1,26,-1
 262 217 l 1,27,-1
 273 219 l 1,28,-1
 446 530 l 1,29,-1
 547 530 l 1,30,-1
 324 154 l 1,31,-1
 313 148 l 1,32,-1
 126 -194 l 1,33,-1
 28 -194 l 1,26,-1
EndSplineSet
Substitution2: "'smcp' Lowercase to Small Capitals lookup 46 subtable" uniAB53.sc
Substitution2: "'aalt' Access All Alternates lookup 0 subtable" uniAB53.sc
EndChar

StartChar: uni0188
Encoding: 392 392 635
Width: 585
GlyphClass: 1
Flags: W
LayerCount: 2
Fore
SplineSet
538 422 m 1,0,-1
 447 423 l 1,1,-1
 447 595 l 2,2,3
 447 646 447 646 467 679.5 c 128,-1,4
 487 713 487 713 519.5 730.5 c 128,-1,5
 552 748 552 748 590.5 749 c 128,-1,6
 629 750 629 750 666 735 c 1,7,-1
 646 663 l 1,8,9
 620 674 620 674 595 670 c 128,-1,10
 570 666 570 666 554 647 c 128,-1,11
 538 628 538 628 538 595 c 2,12,-1
 538 422 l 1,0,-1
322 -6 m 0,13,14
 241 -6 241 -6 177.5 29 c 128,-1,15
 114 64 114 64 78 125 c 128,-1,16
 42 186 42 186 42 265 c 256,17,18
 42 344 42 344 78 405 c 128,-1,19
 114 466 114 466 177.5 500.5 c 128,-1,20
 241 535 241 535 322 535 c 0,21,22
 394 535 394 535 450.5 506.5 c 128,-1,23
 507 478 507 478 538 422 c 1,24,-1
 465 375 l 1,25,26
 439 414 439 414 401.5 432.5 c 128,-1,27
 364 451 364 451 321 451 c 0,28,29
 269 451 269 451 228 428 c 128,-1,30
 187 405 187 405 163 363.5 c 128,-1,31
 139 322 139 322 139 265 c 256,32,33
 139 208 139 208 163 166 c 128,-1,34
 187 124 187 124 228 101 c 128,-1,35
 269 78 269 78 321 78 c 0,36,37
 364 78 364 78 401.5 96.5 c 128,-1,38
 439 115 439 115 465 154 c 1,39,-1
 538 108 l 1,40,41
 507 53 507 53 450.5 23.5 c 128,-1,42
 394 -6 394 -6 322 -6 c 0,13,14
EndSplineSet
Substitution2: "'smcp' Lowercase to Small Capitals lookup 46 subtable" uni0188.sc
Substitution2: "'aalt' Access All Alternates lookup 0 subtable" uni0188.sc
EndChar

StartChar: uni023C
Encoding: 572 572 637
Width: 571
GlyphClass: 2
Flags: W
AnchorPoint: "Anchor-3" 307 530 basechar 0
AnchorPoint: "Anchor-1" 130 265 basechar 0
AnchorPoint: "Anchor-0" 307 0 basechar 0
LayerCount: 2
Fore
SplineSet
322 -6 m 0,0,1
 241 -6 241 -6 177.5 29 c 128,-1,2
 114 64 114 64 78 125 c 128,-1,3
 42 186 42 186 42 265 c 256,4,5
 42 344 42 344 78 405 c 128,-1,6
 114 466 114 466 177.5 500.5 c 128,-1,7
 241 535 241 535 322 535 c 0,8,9
 394 535 394 535 450.5 506.5 c 128,-1,10
 507 478 507 478 538 422 c 1,11,-1
 465 375 l 1,12,13
 439 414 439 414 401.5 432.5 c 128,-1,14
 364 451 364 451 321 451 c 0,15,16
 269 451 269 451 228 428 c 128,-1,17
 187 405 187 405 163 363.5 c 128,-1,18
 139 322 139 322 139 265 c 256,19,20
 139 208 139 208 163 166 c 128,-1,21
 187 124 187 124 228 101 c 128,-1,22
 269 78 269 78 321 78 c 0,23,24
 364 78 364 78 401.5 96.5 c 128,-1,25
 439 115 439 115 465 154 c 1,26,-1
 538 108 l 1,27,28
 507 53 507 53 450.5 23.5 c 128,-1,29
 394 -6 394 -6 322 -6 c 0,0,1
136 -80 m 1,30,-1
 418 609 l 1,31,-1
 484 609 l 1,32,-1
 201 -80 l 1,33,-1
 136 -80 l 1,30,-1
EndSplineSet
Substitution2: "'smcp' Lowercase to Small Capitals lookup 46 subtable" uni023C.sc
Substitution2: "'aalt' Access All Alternates lookup 0 subtable" uni023C.sc
EndChar

StartChar: d
Encoding: 100 100 638
Width: 682
GlyphClass: 2
Flags: W
AnchorPoint: "Anchor-4" 681 742 basechar 0
AnchorPoint: "Anchor-3" 310 530 basechar 0
AnchorPoint: "Anchor-1" 484 634 basechar 0
AnchorPoint: "Anchor-0" 347 0 basechar 0
LayerCount: 2
Fore
SplineSet
310 -6 m 0,0,1
 233 -6 233 -6 172.5 28 c 128,-1,2
 112 62 112 62 77 123 c 128,-1,3
 42 184 42 184 42 265 c 256,4,5
 42 346 42 346 77 406.5 c 128,-1,6
 112 467 112 467 172.5 501 c 128,-1,7
 233 535 233 535 310 535 c 0,8,9
 377 535 377 535 431 505 c 128,-1,10
 485 475 485 475 517.5 415 c 128,-1,11
 550 355 550 355 550 265 c 256,12,13
 550 175 550 175 518.5 115 c 128,-1,14
 487 55 487 55 433 24.5 c 128,-1,15
 379 -6 379 -6 310 -6 c 0,0,1
318 78 m 0,16,17
 368 78 368 78 408.5 101 c 128,-1,18
 449 124 449 124 472.5 166.5 c 128,-1,19
 496 209 496 209 496 265 c 0,20,21
 496 322 496 322 472.5 363.5 c 128,-1,22
 449 405 449 405 408.5 428 c 128,-1,23
 368 451 368 451 318 451 c 0,24,25
 267 451 267 451 227 428 c 128,-1,26
 187 405 187 405 163 363.5 c 128,-1,27
 139 322 139 322 139 265 c 0,28,29
 139 209 139 209 163 166.5 c 128,-1,30
 187 124 187 124 227 101 c 128,-1,31
 267 78 267 78 318 78 c 0,16,17
499 0 m 1,32,-1
 499 143 l 1,33,-1
 505 266 l 1,34,-1
 495 389 l 1,35,-1
 495 742 l 1,36,-1
 591 742 l 1,37,-1
 591 0 l 1,38,-1
 499 0 l 1,32,-1
EndSplineSet
Substitution2: "'smcp' Lowercase to Small Capitals lookup 46 subtable" d.sc
Substitution2: "'aalt' Access All Alternates lookup 0 subtable" d.sc
EndChar

StartChar: uni0257
Encoding: 599 599 645
Width: 672
GlyphClass: 2
Flags: W
AnchorPoint: "Anchor-4" 681 742 basechar 0
AnchorPoint: "Anchor-1" 484 634 basechar 0
AnchorPoint: "Anchor-0" 347 0 basechar 0
LayerCount: 2
Fore
SplineSet
310 -6 m 0,0,1
 233 -6 233 -6 172.5 28 c 128,-1,2
 112 62 112 62 77 123 c 128,-1,3
 42 184 42 184 42 265 c 256,4,5
 42 346 42 346 77 406.5 c 128,-1,6
 112 467 112 467 172.5 501 c 128,-1,7
 233 535 233 535 310 535 c 0,8,9
 377 535 377 535 431 505 c 128,-1,10
 485 475 485 475 517.5 415 c 128,-1,11
 550 355 550 355 550 265 c 256,12,13
 550 175 550 175 518.5 115 c 128,-1,14
 487 55 487 55 433 24.5 c 128,-1,15
 379 -6 379 -6 310 -6 c 0,0,1
318 78 m 0,16,17
 368 78 368 78 408.5 101 c 128,-1,18
 449 124 449 124 472.5 166.5 c 128,-1,19
 496 209 496 209 496 265 c 0,20,21
 496 322 496 322 472.5 363.5 c 128,-1,22
 449 405 449 405 408.5 428 c 128,-1,23
 368 451 368 451 318 451 c 0,24,25
 267 451 267 451 227 428 c 128,-1,26
 187 405 187 405 163 363.5 c 128,-1,27
 139 322 139 322 139 265 c 0,28,29
 139 209 139 209 163 166.5 c 128,-1,30
 187 124 187 124 227 101 c 128,-1,31
 267 78 267 78 318 78 c 0,16,17
499 0 m 1,32,-1
 499 143 l 1,33,-1
 505 266 l 1,34,-1
 495 389 l 1,35,-1
 495 595 l 2,36,37
 495 647 495 647 514.5 681.5 c 128,-1,38
 534 716 534 716 567 733 c 128,-1,39
 600 750 600 750 640 749.5 c 128,-1,40
 680 749 680 749 720 732 c 1,41,-1
 696 660 l 1,42,43
 673 674 673 674 648.5 671.5 c 128,-1,44
 624 669 624 669 607.5 652 c 128,-1,45
 591 635 591 635 591 602 c 2,46,-1
 591 0 l 1,47,-1
 499 0 l 1,32,-1
EndSplineSet
Substitution2: "'smcp' Lowercase to Small Capitals lookup 46 subtable" uni0257.sc
Substitution2: "'aalt' Access All Alternates lookup 0 subtable" uni0257.sc
EndChar

StartChar: uni1D91
Encoding: 7569 7569 646
Width: 678
GlyphClass: 1
Flags: W
LayerCount: 2
Fore
SplineSet
310 -6 m 0,0,1
 233 -6 233 -6 172.5 28 c 128,-1,2
 112 62 112 62 77 123 c 128,-1,3
 42 184 42 184 42 265 c 256,4,5
 42 346 42 346 77 406.5 c 128,-1,6
 112 467 112 467 172.5 501 c 128,-1,7
 233 535 233 535 310 535 c 0,8,9
 377 535 377 535 431 505 c 128,-1,10
 485 475 485 475 517.5 415 c 128,-1,11
 550 355 550 355 550 265 c 256,12,13
 550 175 550 175 518.5 115 c 128,-1,14
 487 55 487 55 433 24.5 c 128,-1,15
 379 -6 379 -6 310 -6 c 0,0,1
318 78 m 0,16,17
 368 78 368 78 408.5 101 c 128,-1,18
 449 124 449 124 472.5 166.5 c 128,-1,19
 496 209 496 209 496 265 c 0,20,21
 496 322 496 322 472.5 363.5 c 128,-1,22
 449 405 449 405 408.5 428 c 128,-1,23
 368 451 368 451 318 451 c 0,24,25
 267 451 267 451 227 428 c 128,-1,26
 187 405 187 405 163 363.5 c 128,-1,27
 139 322 139 322 139 265 c 0,28,29
 139 209 139 209 163 166.5 c 128,-1,30
 187 124 187 124 227 101 c 128,-1,31
 267 78 267 78 318 78 c 0,16,17
495 143 m 1,32,-1
 505 266 l 1,33,-1
 495 389 l 1,34,-1
 495 587 l 2,35,36
 495 629 495 629 508 660 c 128,-1,37
 521 691 521 691 543.5 710.5 c 128,-1,38
 566 730 566 730 595.5 739.5 c 128,-1,39
 625 749 625 749 658 748.5 c 128,-1,40
 691 748 691 748 725 736 c 1,41,-1
 706 661 l 1,42,43
 660 679 660 679 625.5 659 c 128,-1,44
 591 639 591 639 591 587 c 2,45,-1
 591 -39 l 2,46,47
 591 -90 591 -90 625.5 -110 c 128,-1,48
 660 -130 660 -130 706 -113 c 1,49,-1
 725 -188 l 1,50,51
 691 -200 691 -200 658 -200.5 c 128,-1,52
 625 -201 625 -201 595.5 -191.5 c 128,-1,53
 566 -182 566 -182 543.5 -162.5 c 128,-1,54
 521 -143 521 -143 508 -112 c 128,-1,55
 495 -81 495 -81 495 -39 c 2,56,-1
 495 143 l 1,32,-1
EndSplineSet
Substitution2: "'smcp' Lowercase to Small Capitals lookup 46 subtable" uni1D91.sc
Substitution2: "'aalt' Access All Alternates lookup 0 subtable" uni1D91.sc
EndChar

StartChar: uni0256
Encoding: 598 598 648
Width: 678
GlyphClass: 1
Flags: W
LayerCount: 2
Fore
SplineSet
310 -6 m 0,0,1
 233 -6 233 -6 172.5 28 c 128,-1,2
 112 62 112 62 77 123 c 128,-1,3
 42 184 42 184 42 265 c 256,4,5
 42 346 42 346 77 406.5 c 128,-1,6
 112 467 112 467 172.5 501 c 128,-1,7
 233 535 233 535 310 535 c 0,8,9
 377 535 377 535 431 505 c 128,-1,10
 485 475 485 475 517.5 415 c 128,-1,11
 550 355 550 355 550 265 c 256,12,13
 550 175 550 175 518.5 115 c 128,-1,14
 487 55 487 55 433 24.5 c 128,-1,15
 379 -6 379 -6 310 -6 c 0,0,1
318 78 m 0,16,17
 368 78 368 78 408.5 101 c 128,-1,18
 449 124 449 124 472.5 166.5 c 128,-1,19
 496 209 496 209 496 265 c 0,20,21
 496 322 496 322 472.5 363.5 c 128,-1,22
 449 405 449 405 408.5 428 c 128,-1,23
 368 451 368 451 318 451 c 0,24,25
 267 451 267 451 227 428 c 128,-1,26
 187 405 187 405 163 363.5 c 128,-1,27
 139 322 139 322 139 265 c 0,28,29
 139 209 139 209 163 166.5 c 128,-1,30
 187 124 187 124 227 101 c 128,-1,31
 267 78 267 78 318 78 c 0,16,17
495 49 m 1,32,-1
 499 148 l 1,33,-1
 513 266 l 1,34,-1
 495 389 l 1,35,-1
 495 742 l 1,36,-1
 591 742 l 1,37,-1
 591 -41 l 2,38,39
 591 -92 591 -92 625.5 -112 c 128,-1,40
 660 -132 660 -132 706 -114 c 1,41,-1
 725 -190 l 1,42,43
 691 -202 691 -202 658 -202.5 c 128,-1,44
 625 -203 625 -203 595.5 -193.5 c 128,-1,45
 566 -184 566 -184 543.5 -164 c 128,-1,46
 521 -144 521 -144 508 -113 c 128,-1,47
 495 -82 495 -82 495 -41 c 2,48,-1
 495 49 l 1,32,-1
EndSplineSet
Substitution2: "'smcp' Lowercase to Small Capitals lookup 46 subtable" uni0256.sc
Substitution2: "'aalt' Access All Alternates lookup 0 subtable" uni0256.sc
EndChar

StartChar: uni018C
Encoding: 396 396 649
Width: 682
GlyphClass: 2
Flags: W
AnchorPoint: "Anchor-4" 681 742 basechar 0
AnchorPoint: "Anchor-1" 484 634 basechar 0
AnchorPoint: "Anchor-0" 347 0 basechar 0
LayerCount: 2
Fore
SplineSet
310 -6 m 0,0,1
 233 -6 233 -6 172.5 28 c 128,-1,2
 112 62 112 62 77 123 c 128,-1,3
 42 184 42 184 42 265 c 256,4,5
 42 346 42 346 77 406.5 c 128,-1,6
 112 467 112 467 172.5 501 c 128,-1,7
 233 535 233 535 310 535 c 0,8,9
 377 535 377 535 431 505 c 128,-1,10
 485 475 485 475 517.5 415 c 128,-1,11
 550 355 550 355 550 265 c 256,12,13
 550 175 550 175 518.5 115 c 128,-1,14
 487 55 487 55 433 24.5 c 128,-1,15
 379 -6 379 -6 310 -6 c 0,0,1
318 78 m 0,16,17
 368 78 368 78 408.5 101 c 128,-1,18
 449 124 449 124 472.5 166.5 c 128,-1,19
 496 209 496 209 496 265 c 0,20,21
 496 322 496 322 472.5 363.5 c 128,-1,22
 449 405 449 405 408.5 428 c 128,-1,23
 368 451 368 451 318 451 c 0,24,25
 267 451 267 451 227 428 c 128,-1,26
 187 405 187 405 163 363.5 c 128,-1,27
 139 322 139 322 139 265 c 0,28,29
 139 209 139 209 163 166.5 c 128,-1,30
 187 124 187 124 227 101 c 128,-1,31
 267 78 267 78 318 78 c 0,16,17
499 0 m 1,32,-1
 499 143 l 1,33,-1
 505 266 l 1,34,-1
 495 389 l 1,35,-1
 495 742 l 1,36,-1
 591 742 l 1,37,-1
 591 0 l 1,38,-1
 499 0 l 1,32,-1
163 663 m 1,39,-1
 163 742 l 1,40,-1
 591 742 l 1,41,-1
 495 663 l 1,42,-1
 163 663 l 1,39,-1
EndSplineSet
Substitution2: "'smcp' Lowercase to Small Capitals lookup 46 subtable" uni018C.sc
Substitution2: "'aalt' Access All Alternates lookup 0 subtable" uni018C.sc
EndChar

StartChar: eth
Encoding: 240 240 652
Width: 598
GlyphClass: 1
Flags: W
LayerCount: 2
Fore
SplineSet
282 -4 m 0,0,1
 209 -4 209 -4 154.5 24 c 128,-1,2
 100 52 100 52 70 103.5 c 128,-1,3
 40 155 40 155 40 224 c 0,4,5
 40 291 40 291 68 339.5 c 128,-1,6
 96 388 96 388 147 415 c 128,-1,7
 198 442 198 442 267 442 c 0,8,9
 326 442 326 442 375.5 417.5 c 128,-1,10
 425 393 425 393 449 351 c 1,11,12
 437 420 437 420 391 485.5 c 128,-1,13
 345 551 345 551 277 606.5 c 128,-1,14
 209 662 209 662 128 700 c 1,15,-1
 194 746 l 1,16,17
 302 695 302 695 382 616.5 c 128,-1,18
 462 538 462 538 506 445.5 c 128,-1,19
 550 353 550 353 550 257 c 0,20,21
 550 177 550 177 516.5 118.5 c 128,-1,22
 483 60 483 60 423 28 c 128,-1,23
 363 -4 363 -4 282 -4 c 0,0,1
289 75 m 0,24,25
 359 75 359 75 401.5 114.5 c 128,-1,26
 444 154 444 154 444 219 c 0,27,28
 444 286 444 286 401.5 326.5 c 128,-1,29
 359 367 359 367 289 367 c 256,30,31
 219 367 219 367 177.5 328.5 c 128,-1,32
 136 290 136 290 136 224 c 0,33,34
 136 156 136 156 178 115.5 c 128,-1,35
 220 75 220 75 289 75 c 0,24,25
138 494 m 1,36,-1
 113 546 l 1,37,-1
 479 714 l 1,38,-1
 504 662 l 1,39,-1
 138 494 l 1,36,-1
EndSplineSet
Substitution2: "'smcp' Lowercase to Small Capitals lookup 46 subtable" eth.sc
Substitution2: "'aalt' Access All Alternates lookup 0 subtable" eth.sc
EndChar

StartChar: e
Encoding: 101 101 653
Width: 612
GlyphClass: 2
Flags: WO
AnchorPoint: "Anchor-3" 307 530 basechar 0
AnchorPoint: "Anchor-2" 519 0 basechar 0
AnchorPoint: "Anchor-0" 307 0 basechar 0
LayerCount: 2
Fore
SplineSet
327 -6 m 0,0,1
 242 -6 242 -6 177.5 29 c 128,-1,2
 113 64 113 64 77.5 125 c 128,-1,3
 42 186 42 186 42 265 c 256,4,5
 42 344 42 344 76.5 405 c 128,-1,6
 111 466 111 466 171.5 500.5 c 0,7,8
 230 534 230 534 308 535 c 0,9,10
 385.444444444 535.944444444 385.444444444 535.944444444 444 501 c 0,11,12
 506 464 506 464 534 412 c 0,13,14
 568 351.361586132 568 351.361586132 568 280 c 1,15,-1
 117 190 l 1,16,-1
 117 259 l 1,17,-1
 517 340 l 1,18,-1
 479 278 l 1,19,20
 480 329 480 329 458 369 c 128,-1,21
 436 409 436 409 397.5 431.5 c 128,-1,22
 359 454 359 454 308 454 c 0,23,24
 258 454 258 454 219 431.5 c 128,-1,25
 180 409 180 409 158 368.5 c 128,-1,26
 136 328 136 328 136 276 c 2,27,-1
 136 260 l 2,28,29
 136 207 136 207 160.5 165.5 c 128,-1,30
 185 124 185 124 229 101 c 128,-1,31
 273 78 273 78 330 78 c 0,32,33
 377 78 377 78 415.5 94 c 128,-1,34
 454 110 454 110 483 142 c 1,35,-1
 536 80 l 1,36,37
 500 38 500 38 446.5 16 c 128,-1,38
 393 -6 393 -6 327 -6 c 0,0,1
EndSplineSet
Substitution2: "'ss01' Style Set 1 lookup 50 subtable" e.ss01
Substitution2: "'smcp' Lowercase to Small Capitals lookup 46 subtable" e.sc
AlternateSubs2: "'aalt' Access All Alternates lookup 1 subtable" e.sc e.ss01
EndChar

